<svg width="603" height="612" viewBox="0 0 603 612" fill="none" xmlns="http://www.w3.org/2000/svg">
<path d="M125.893 251.471C112.912 267.775 104.372 279.207 96.0583 284.207C91.793 286.804 68.3303 274.362 73.2407 264.323C77.7431 255.139 78.8346 250.131 91.0715 231.895C99.825 218.86 108.759 203.011 117.997 190.483C123.987 182.389 145.834 182.827 149.796 189.406C173.586 228.782 168.272 279.515 171.916 314.024C173.578 329.693 175.757 378.161 175.757 387.315C175.757 388.531 134.765 396.852 134.417 388.686C132.467 339.817 127.175 294.54 125.893 251.471Z" fill="#D55816"/>
<path d="M506.685 323.226C501.821 322.641 497.433 328.726 496.613 331.054C494.426 337.216 493.084 344.373 497.471 350.221C499.118 352.425 501.266 355.66 505.646 355.399C522.104 354.436 520.486 338.01 517.276 330.444C516.16 327.818 511.204 323.226 506.685 323.226Z" fill="#D55816"/>
<path d="M530.174 140.087C529.907 137.097 490.434 132.282 490.656 141.589C491.413 174.278 490.29 215.333 490.481 243.893C490.481 248.054 491.391 274.711 496.856 286.637C498.42 290.058 506.884 289.811 516.374 288.509C524.086 287.447 532.761 207.576 530.174 140.087Z" fill="#D55816"/>
<path d="M466.021 401.058C392.517 405.22 288.347 430.389 203.714 452.676C175.423 460.12 127.804 480.259 123.766 474.619C113.139 459.627 117.262 452.47 119.129 451.197C134.994 440.459 202.584 422.692 220.847 417.129C272.862 401.128 326.045 384.41 379.507 373.885C402.334 369.385 425.502 366.388 448.319 362.068C457.658 360.295 461.089 366.729 466.021 401.058Z" fill="#2953A7"/>
<path fill-rule="evenodd" clip-rule="evenodd" d="M210.333 209.863C242.071 149.763 286.122 177.166 296.059 194.033C319.197 233.276 326.483 294.711 310.413 335.252C303.613 352.408 278.615 365.713 258.993 368.025C185.427 376.615 187.272 253.548 210.333 209.863ZM245.586 219.755C258.362 198.947 267.22 218.36 267.714 236.412C268.329 260.117 268.579 284.617 263.373 307.738C260.639 319.803 249.238 332.223 239.719 316.812C231.573 303.654 231.534 292.808 233.092 276.288C234.572 260.533 237.92 232.244 245.586 219.755Z" fill="#D55816"/>
<path fill-rule="evenodd" clip-rule="evenodd" d="M339.845 204.68C342.04 179.527 346.185 168.723 360.85 158.331C381.384 143.792 418.374 157.46 437.489 180.549C472.029 222.26 468.574 321.115 413.715 341.992C362.217 361.592 342.647 273.409 339.717 236.783C338.525 221.944 338.639 218.548 339.845 204.68ZM378.522 212.36C383.599 191.206 397.954 202.113 404.187 215.551C412.362 233.185 420.432 251.6 423.019 271.253C424.364 281.576 417.857 295.79 404.193 288.201C392.503 281.708 388.982 273.526 385.125 260.382C381.444 247.854 375.485 225.049 378.522 212.36Z" fill="#D55816"/>
<path d="M125.893 251.471C112.912 267.775 104.372 279.207 96.0583 284.207C91.793 286.804 68.3303 274.362 73.2407 264.323C77.7431 255.139 78.8346 250.131 91.0715 231.895C99.825 218.86 108.759 203.011 117.997 190.483C123.987 182.389 145.834 182.827 149.796 189.406C173.586 228.782 168.272 279.515 171.916 314.024C173.578 329.693 175.757 378.161 175.757 387.315C175.757 388.531 134.765 396.852 134.417 388.686C132.467 339.817 127.175 294.54 125.893 251.471Z" stroke="#292524" stroke-width="0.612512" stroke-linecap="round" stroke-linejoin="round"/>
<path d="M506.685 323.226C501.821 322.641 497.433 328.726 496.613 331.054C494.426 337.216 493.084 344.373 497.471 350.221C499.118 352.425 501.266 355.66 505.646 355.399C522.104 354.436 520.486 338.01 517.276 330.444C516.16 327.818 511.204 323.226 506.685 323.226Z" stroke="#292524" stroke-width="0.612512" stroke-linecap="round" stroke-linejoin="round"/>
<path d="M530.174 140.087C529.907 137.097 490.434 132.282 490.656 141.589C491.413 174.278 490.29 215.333 490.481 243.893C490.481 248.054 491.391 274.711 496.856 286.637C498.42 290.058 506.884 289.811 516.374 288.509C524.086 287.447 532.761 207.576 530.174 140.087Z" stroke="#292524" stroke-width="0.612512" stroke-linecap="round" stroke-linejoin="round"/>
<path d="M466.021 401.058C392.517 405.22 288.347 430.389 203.714 452.676C175.423 460.12 127.804 480.259 123.766 474.619C113.139 459.627 117.262 452.47 119.129 451.197C134.994 440.459 202.584 422.692 220.847 417.129C272.862 401.128 326.045 384.41 379.507 373.885C402.334 369.385 425.502 366.388 448.319 362.068C457.658 360.295 461.089 366.729 466.021 401.058Z" stroke="#292524" stroke-width="0.612512" stroke-linecap="round" stroke-linejoin="round"/>
<path d="M210.333 209.863C242.071 149.763 286.122 177.166 296.059 194.033C319.197 233.276 326.483 294.711 310.413 335.252C303.613 352.408 278.615 365.713 258.993 368.025C185.427 376.615 187.272 253.548 210.333 209.863ZM245.586 219.755C258.362 198.947 267.22 218.36 267.714 236.412C268.329 260.117 268.579 284.617 263.373 307.738C260.639 319.803 249.238 332.223 239.719 316.812C231.573 303.654 231.534 292.808 233.092 276.288C234.572 260.533 237.92 232.244 245.586 219.755Z" stroke="#292524" stroke-width="0.612512" stroke-linecap="round" stroke-linejoin="round"/>
<path d="M339.845 204.68C342.04 179.527 346.185 168.723 360.85 158.331C381.384 143.792 418.374 157.46 437.489 180.549C472.029 222.26 468.574 321.115 413.715 341.992C362.217 361.592 342.647 273.409 339.717 236.783C338.525 221.944 338.639 218.548 339.845 204.68ZM378.522 212.36C383.599 191.206 397.954 202.113 404.187 215.551C412.362 233.185 420.432 251.6 423.019 271.253C424.364 281.576 417.857 295.79 404.193 288.201C392.503 281.708 388.982 273.526 385.125 260.382C381.444 247.854 375.485 225.049 378.522 212.36Z" stroke="#292524" stroke-width="0.612512" stroke-linecap="round" stroke-linejoin="round"/>
</svg>
