<svg width="608" height="608" viewBox="0 0 608 608" fill="none" xmlns="http://www.w3.org/2000/svg">
<path d="M180.674 139.111C180.126 128.616 181.78 111.143 183.999 93.1275C186.492 72.9602 222.236 39.3499 256.035 46.6094C295.932 55.2126 291.5 83.7157 291.5 112.486C291.5 116.517 297.318 106.57 300.924 104.151C309.229 99.0434 318.373 94.7387 327.238 90.4402C347.74 80.4872 387.637 78.341 408.971 85.868C428.646 92.5864 430.306 114.639 422.268 130.501C420.609 133.724 408.971 145.823 408.971 148.784C408.971 149.592 414.516 146.899 414.516 146.899C417.836 146.096 421.162 146.096 424.761 146.096C436.125 146.096 445.543 145.561 455.794 149.866C481.287 160.348 497.63 192.882 486.826 219.239C479.068 238.324 450.528 246.927 431.413 244.775C428.64 244.507 407.865 236.445 407.032 237.515C404.259 240.209 390.963 270.858 385.977 276.774C363.809 302.59 343.861 305.544 309.229 303.392C293.439 302.316 270.439 291.56 260.188 279.735C256.035 274.628 251.323 268.706 247.997 263.331C246.617 261.179 246.058 255.263 244.118 256.874C232.761 267.903 224.45 283.498 209.213 291.56C173.195 310.652 113.35 314.148 78.4384 291.56C35.2156 263.599 90.0755 230.797 109.471 212.241C110.577 211.165 105.312 210.63 104.759 210.356C100.326 209.286 95.0611 206.599 91.4617 203.911C80.3779 195.034 66.8012 186.699 64.3084 171.912C57.663 136.15 101.992 112.219 133.019 119.746C147.428 123.242 170.149 139.104 180.674 139.104V139.111Z" fill="#F7F2EC"/>
<path d="M100.466 301.611C99.5902 323.256 98.8545 346.785 98.8545 350.08C98.8545 363.438 99.2254 376.875 99.6023 390.348C99.9793 403.895 100.356 417.483 100.356 431.066C100.356 447.628 101.262 464.19 102.77 480.746C103.074 484.734 103.256 489.154 103.451 493.818C104.193 511.681 105.074 533.009 113.909 546.385C118.578 553.517 130.89 554.216 139.84 554.727C141.846 554.849 143.676 554.952 145.221 555.116C159.825 556.606 174.429 557.646 188.984 558.679C200.834 559.518 212.648 560.357 224.406 561.44C251.602 564.242 280.501 560.394 308.554 556.661C319.625 555.183 330.569 553.73 341.222 552.709C345.471 552.32 350.767 552.551 356.379 552.8C368.29 553.323 381.623 553.906 389.393 548.787C395.802 544.519 397.711 535.752 399.322 528.364L399.93 525.61C403.871 506.61 406.787 487.412 408.667 468.099C409.512 460.037 410.43 451.44 411.385 442.442C417.665 383.387 425.831 306.694 428.907 244.136C426.986 243.541 424.268 242.616 421.405 241.638C414.856 239.394 407.518 236.889 407.031 237.515C405.773 238.744 402.332 245.748 398.489 253.585C393.88 262.972 388.694 273.552 385.976 276.774C363.809 302.59 343.86 305.544 309.229 303.392C293.439 302.316 270.438 291.56 260.187 279.729C256.035 274.622 251.323 268.706 247.997 263.331C247.51 262.577 247.134 261.367 246.757 260.182C246.057 257.962 245.382 255.828 244.118 256.874C240.239 260.644 236.718 264.942 233.15 269.289C226.279 277.68 219.245 286.253 209.213 291.56C179.968 307.064 135.024 312.281 100.466 301.611Z" fill="#D55816"/>
<path d="M411.385 442.46C410.673 449.111 409.986 455.532 409.342 461.691C418.565 471.942 426.566 479.761 427.934 480.448C440.885 486.923 456.735 485.154 470.877 483.573C473.176 483.317 475.425 483.062 477.614 482.855C518.861 479.244 531.805 444.916 540.84 408.491C548.367 378.377 549.267 339.544 528.796 313.947C524.424 308.536 518.618 303.848 512.963 299.282C510.47 297.298 508.019 295.261 505.613 293.172C491.762 281.133 473.395 277.82 455.939 279.625C453.598 279.917 439.578 286.526 425.697 293.968C421.879 343.55 416.638 393.011 411.379 442.46H411.385Z" stroke="#292524" stroke-width="0.612512" stroke-miterlimit="2.854" stroke-linecap="round" stroke-linejoin="round"/>
<path d="M150.316 306.918C151.848 379.939 155.788 473.596 158.615 485.889C162.822 503.345 284.581 501.308 314.038 498.402C315.479 498.268 317.066 498.147 318.762 498.013C331.907 497.01 351.436 495.52 358.647 484.436C361.037 480.825 361.067 474.234 361.091 469.017C361.097 467.51 361.103 466.117 361.17 464.944C361.286 463.223 362.216 453.817 363.633 439.56C367.202 403.657 373.817 337.008 378.073 285.103C358.817 303.222 339.708 305.289 309.229 303.392C293.439 302.316 270.438 291.56 260.188 279.735C256.035 274.628 251.323 268.706 247.997 263.331C247.511 262.577 247.134 261.367 246.757 260.182C246.058 257.968 245.383 255.828 244.118 256.874C240.239 260.644 236.719 264.942 233.15 269.289C226.279 277.68 219.245 286.253 209.213 291.56C192.943 300.188 171.815 305.63 150.316 306.918Z" fill="#FBC604"/>
<path d="M180.674 139.111C180.126 128.616 181.78 111.143 183.999 93.1275C186.492 72.9602 222.236 39.3499 256.035 46.6094C295.932 55.2126 291.5 83.7157 291.5 112.486C291.5 116.517 297.318 106.57 300.924 104.151C309.229 99.0434 318.373 94.7387 327.238 90.4402C347.74 80.4872 387.637 78.341 408.971 85.868C428.646 92.5864 430.306 114.639 422.268 130.501C420.609 133.724 408.971 145.823 408.971 148.784C408.971 149.592 414.516 146.899 414.516 146.899C417.836 146.096 421.162 146.096 424.761 146.096C436.125 146.096 445.543 145.561 455.794 149.866C481.287 160.348 497.63 192.882 486.826 219.239C479.068 238.324 450.528 246.927 431.413 244.775C428.64 244.507 407.865 236.445 407.032 237.515C404.259 240.209 390.963 270.858 385.977 276.774C363.809 302.59 343.861 305.544 309.229 303.392C293.439 302.316 270.439 291.56 260.188 279.735C256.035 274.628 251.323 268.706 247.997 263.331C246.617 261.179 246.058 255.263 244.118 256.874C232.761 267.903 224.45 283.498 209.213 291.56C173.195 310.652 113.35 314.148 78.4384 291.56C35.2156 263.599 90.0755 230.797 109.471 212.241C110.577 211.165 105.312 210.63 104.759 210.356C100.326 209.286 95.0611 206.599 91.4617 203.911C80.3779 195.034 66.8012 186.699 64.3084 171.912C57.663 136.15 101.992 112.219 133.019 119.746C147.428 123.242 170.149 139.104 180.674 139.104V139.111Z" stroke="#292524" stroke-width="0.612512" stroke-miterlimit="1.585" stroke-linecap="round" stroke-linejoin="round"/>
<path d="M100.466 301.611C99.5902 323.256 98.8545 346.785 98.8545 350.08C98.8545 363.438 99.2254 376.875 99.6023 390.348C99.9793 403.895 100.356 417.483 100.356 431.066C100.356 447.628 101.262 464.19 102.77 480.746C103.074 484.734 103.256 489.154 103.451 493.818C104.193 511.681 105.074 533.009 113.909 546.385C118.578 553.517 130.89 554.216 139.84 554.727C141.846 554.849 143.676 554.952 145.221 555.116C159.825 556.606 174.429 557.646 188.984 558.679C200.834 559.518 212.648 560.357 224.406 561.44C251.602 564.242 280.501 560.394 308.554 556.661C319.625 555.183 330.569 553.73 341.222 552.709C345.471 552.32 350.767 552.551 356.379 552.8C368.29 553.323 381.623 553.906 389.393 548.787C395.802 544.519 397.711 535.752 399.322 528.364L399.93 525.61C403.871 506.61 406.787 487.412 408.667 468.099C409.512 460.037 410.43 451.44 411.385 442.442C417.665 383.387 425.831 306.694 428.907 244.136C426.986 243.541 424.268 242.616 421.405 241.638C414.856 239.394 407.518 236.889 407.031 237.515C405.773 238.744 402.332 245.748 398.489 253.585C393.88 262.972 388.694 273.552 385.976 276.774C363.809 302.59 343.86 305.544 309.229 303.392C293.439 302.316 270.438 291.56 260.187 279.729C256.035 274.622 251.323 268.706 247.997 263.331C247.51 262.577 247.134 261.367 246.757 260.182C246.057 257.962 245.382 255.828 244.118 256.874C240.239 260.644 236.718 264.942 233.15 269.289C226.279 277.68 219.245 286.253 209.213 291.56C179.968 307.064 135.024 312.281 100.466 301.611Z" stroke="#292524" stroke-width="0.612512" stroke-miterlimit="2.854" stroke-linecap="round" stroke-linejoin="round"/>
<path d="M150.316 306.918C151.848 379.939 155.788 473.596 158.615 485.889C162.822 503.345 284.581 501.308 314.038 498.402C315.479 498.268 317.066 498.147 318.762 498.013C331.907 497.01 351.436 495.52 358.647 484.436C361.037 480.825 361.067 474.234 361.091 469.017C361.097 467.51 361.103 466.117 361.17 464.944C361.286 463.223 362.216 453.817 363.633 439.56C367.202 403.657 373.817 337.008 378.073 285.103C358.817 303.222 339.708 305.289 309.229 303.392C293.439 302.316 270.438 291.56 260.188 279.735C256.035 274.628 251.323 268.706 247.997 263.331C247.511 262.577 247.134 261.367 246.757 260.182C246.058 257.968 245.383 255.828 244.118 256.874C240.239 260.644 236.719 264.942 233.15 269.289C226.279 277.68 219.245 286.253 209.213 291.56C192.943 300.188 171.815 305.63 150.316 306.918Z" stroke="#292524" stroke-width="0.612512" stroke-miterlimit="1.585" stroke-linecap="round" stroke-linejoin="round"/>
</svg>
