<svg width="609" height="612" viewBox="0 0 609 612" fill="none" xmlns="http://www.w3.org/2000/svg">
<path fill-rule="evenodd" clip-rule="evenodd" d="M226.457 404.905C226.152 411.013 225.683 420.193 226.098 420.401C226.098 424.74 226.506 426.392 226.975 428.308C227.34 429.777 227.736 431.405 228.016 434.52C261.797 428.583 319.177 427.176 352.562 429.826C352.562 411.759 355.352 393.295 365.534 381.166C381.082 362.671 400.868 347.04 420.649 331.41C461.768 298.925 502.882 266.452 505.848 208.294C506.731 188.832 502.918 172.014 498.223 153.722C493.607 135.729 484.478 122.522 474.32 107.81C473.478 106.595 472.638 105.379 471.799 104.162C458.888 85.2819 436.866 68.764 416.611 58.4396C349.98 24.8102 267.784 36.6095 203.498 68.764C184.71 77.9073 162.402 91.7752 149.187 108.299C130.99 131.004 119.541 152.547 109.852 180.27C99.2855 210.362 96.6424 247.529 107.215 278.209C111.904 292.077 118.365 307.12 127.47 318.919C140.685 336.055 161.525 347.279 181.75 358.179C192.529 363.981 203.126 369.69 212.304 376.147C219.642 381.165 226.688 390.896 226.688 399.746C226.688 400.358 226.585 402.365 226.457 404.905Z" fill="#FBC604"/>
<path d="M241.365 554.618C206.141 538.988 205.081 478.914 200.97 446.76C198.443 426.998 361.722 423.938 377.568 434.556C384.913 439.575 383.146 452.849 383.737 459.93C385.199 475.56 385.497 491.491 384.322 507.127C383.445 515.977 384.614 527.776 378.743 535.157C372.288 543.113 355.845 546.356 346.454 548.425C315.925 555.506 272.187 568.193 241.365 554.625V554.618Z" fill="#2953A7"/>
<path fill-rule="evenodd" clip-rule="evenodd" d="M242.821 238.478C246.436 231.323 251.043 224.721 256.505 218.869C254.272 218.462 252.013 218.217 249.745 218.135C236.451 217.621 222.176 222.315 211.877 230.038C207.316 233.79 203.638 238.545 200.453 244.432C195.922 253.166 195.313 260.559 196.713 267.095C198.187 273.937 202.091 280.846 208.187 287.854C220.513 302.009 239.24 313.79 255.25 323.864L255.756 324.182L255.896 324.268C258.636 326.043 261.28 327.346 264.556 328.962C265.884 329.617 267.315 330.32 268.898 331.128C273.91 333.686 279.805 337.022 285.128 342.346C289.354 346.483 291.315 351.973 292.363 356.128C293.502 360.627 294.032 365.492 294.287 369.935C294.665 376.349 294.513 383.381 294.409 388.02C294.379 389.586 294.348 390.878 294.348 391.784C294.348 392.677 294.239 395.15 294.105 398.21C293.958 401.557 293.782 405.627 293.678 409.122C293.565 412.429 293.539 415.739 293.599 419.048C293.636 420.272 293.684 421.147 293.745 421.71C294.519 424.067 294.537 426.545 293.891 428.84C286.151 429.067 278.362 429.415 270.78 429.887C270.151 428.241 269.744 426.518 269.568 424.764L269.562 424.685C269.389 423.033 269.285 421.375 269.251 419.715C269.177 415.945 269.203 412.174 269.331 408.405C269.446 404.513 269.617 400.621 269.757 397.542L269.793 396.588C269.857 395.166 269.918 393.744 269.976 392.322L269.982 392.077V391.924V391.784C269.982 390.07 270.031 388.216 270.074 386.233C270.171 381.783 270.287 376.716 269.97 371.373C269.757 367.665 269.349 364.519 268.752 362.144C268.558 361.28 268.268 360.44 267.887 359.641C265.323 357.089 262.175 355.155 257.863 352.952C256.872 352.451 255.877 351.958 254.879 351.471C251.261 349.696 246.791 347.493 242.76 344.886L241.158 343.882C225.939 334.317 204.594 320.896 189.856 303.974C182.079 295.045 175.526 284.475 172.901 272.254C170.222 259.745 171.878 246.513 178.906 233.006L178.991 232.853C183.388 224.689 189.04 217.125 196.713 210.882L197.048 210.613C211.695 199.536 231.53 192.926 250.677 193.667C260.573 194.053 270.536 196.439 279.47 201.341C299.829 190.833 324.476 189.328 347.374 203.844L347.417 203.869L348.33 204.456C351.314 206.354 355.273 208.881 358.994 211.739C362.995 214.818 367.666 218.979 370.887 224.249C373.253 228.091 375.147 232.207 376.527 236.507C379.286 236.476 381.91 236.586 384.322 236.825L384.432 236.837L384.547 236.85C394.785 238.037 405.984 243.545 412.829 247.615C415.103 249.027 417.294 250.568 419.394 252.229C420.375 253.013 422.719 254.904 424.327 257.26C424.796 257.951 425.606 259.255 426.142 261.024C426.678 262.786 427.287 266.195 425.606 269.953C424.916 271.49 423.928 272.874 422.699 274.023C421.471 275.171 420.026 276.062 418.45 276.642C416.92 277.201 415.304 277.483 413.676 277.474C411.296 277.475 408.969 276.775 406.98 275.461C404.992 274.147 403.431 272.277 402.488 270.081C401.887 269.652 401.278 269.234 400.661 268.827L400.54 268.753L400.436 268.692C394.407 265.112 386.88 261.795 381.855 261.177C381.357 261.131 380.857 261.094 380.357 261.066C380.4 273.661 377.568 287.811 369.56 298.129L369.548 298.154C362.672 306.966 350.754 311.924 340.121 311.875C334.548 311.844 328.27 310.443 322.923 306.373C317.356 302.138 313.94 295.871 312.959 288.441C311.437 277.829 313.964 268.453 319.329 260.822C324.506 253.459 331.863 248.312 339.286 244.769C343.269 242.872 347.502 241.323 351.795 240.105C351.311 239.061 350.758 238.051 350.139 237.082C349.256 235.613 347.362 233.618 344.189 231.183C341.369 229.016 338.312 227.064 335.212 225.081L334.36 224.536C323.331 217.559 310.919 216.36 299.354 219.628C300.103 220.748 300.816 221.905 301.516 223.104L301.559 223.184C309.196 236.66 313.313 253.784 309.616 268.668C307.71 276.373 303.611 283.723 296.602 289.065C289.616 294.39 280.768 296.942 270.719 296.942C262.747 296.942 255.719 294.463 250.177 289.806C244.782 285.277 241.524 279.31 239.757 273.404C236.323 261.948 237.809 248.557 242.802 238.52L242.821 238.478ZM263.082 266.354C261.523 261.152 262.242 254.194 264.58 249.487C267.934 242.782 272.486 236.754 278.009 231.703C278.861 232.841 279.665 234.053 280.414 235.338C285.962 245.154 287.722 255.748 285.981 262.756C285.177 265.999 283.727 268.147 281.876 269.561C280.006 270.993 276.669 272.462 270.719 272.462C267.979 272.462 266.602 271.697 265.792 271.018C264.848 270.222 263.807 268.784 263.082 266.354ZM293.837 422.341C293.81 422.251 293.792 422.159 293.782 422.065C293.806 422.156 293.822 422.248 293.831 422.341H293.837ZM400.393 268.668L400.43 268.692L400.4 268.661L400.393 268.668ZM349.725 266.887C351.733 265.936 353.8 265.114 355.912 264.426C355.48 272.59 353.33 279.225 350.358 283.062C349.688 283.919 348.312 285.081 346.229 286.018C344.348 286.89 342.307 287.359 340.236 287.395C338.434 287.389 337.715 286.93 337.624 286.856C337.599 286.838 337.563 286.813 337.502 286.697C337.278 286.226 337.142 285.718 337.1 285.198C337.091 285.126 337.08 285.055 337.07 284.983C336.43 280.595 337.417 277.511 339.219 274.947C341.229 272.082 344.706 269.28 349.731 266.887H349.725Z" fill="#292524"/>
</svg>
