<svg width="603" height="612" viewBox="0 0 603 612" fill="none" xmlns="http://www.w3.org/2000/svg">
<path d="M311.401 166.482C295.029 165.118 269.697 198.765 269.336 243.448C269.07 279.256 262.95 314.99 261.28 350.603C259.477 387.941 257.915 426.325 260.538 463.7C262.516 491.73 271.82 532.507 305.268 535.886C331.662 538.566 323.6 484.612 323.6 469.655C323.6 399.667 325.077 329.782 325.077 259.812C325.077 239.231 323.274 218.564 325.077 198.062C326.066 187.027 328.261 167.89 311.401 166.482Z" fill="#2953A7"/>
<path d="M265.682 494.478C262.709 484.049 261.207 473.155 260.538 463.7C257.915 426.325 259.477 387.941 261.28 350.603C262.003 335.26 263.547 319.898 265.091 304.519C267.141 284.188 269.185 263.833 269.336 243.447C269.417 231.022 271.486 218.693 275.462 206.942C266.966 190.809 257.234 176.262 250.697 171.256C245.192 167.033 240.338 162.798 235.646 158.698C225.564 149.885 216.2 141.702 202.572 135.717C145.878 110.87 48.5293 137.547 29.1187 208.466C10.5825 276.153 23.8425 356.374 72.6373 390.064C81.9235 396.472 107.756 394.562 131.55 392.806C149.737 391.46 166.729 390.211 174.237 392.818C174.882 393.045 171.276 396.092 166.343 400.248C159.795 405.768 150.913 413.259 146.583 418.73C126.793 443.675 107.509 473.969 128.59 504.9C129.458 506.173 130.338 507.501 131.225 508.853C135.735 515.683 140.668 523.156 147.156 527.581C176.04 547.134 206.045 542.605 230.334 522.336C231.914 521.02 234.905 518.743 238.716 515.836C246.048 510.255 256.414 502.36 265.682 494.478Z" fill="#FBC604"/>
<path d="M325.017 198.71C323.889 212.162 324.281 225.687 324.673 239.213C324.878 246.085 325.077 252.952 325.077 259.812C325.077 294.794 324.709 329.758 324.335 364.721C323.973 399.685 323.6 434.655 323.6 469.655C323.6 471.981 323.793 475.261 324.022 479.117C324.402 485.396 324.866 493.217 324.733 501.032C332.633 508.486 341.605 515.99 348.238 521.534C352.037 524.717 355.064 527.244 356.68 528.756C379.805 550.421 409.527 556.663 439.448 538.787C446.189 534.772 451.496 527.611 456.356 521.063C457.333 519.747 458.286 518.456 459.238 517.22C482.032 487.55 464.382 456.197 446.051 430.157C442.035 424.489 433.617 416.54 427.388 410.658C422.685 406.215 419.229 402.953 419.893 402.763C427.533 400.591 444.423 402.825 462.495 405.211C486.156 408.333 511.85 411.723 521.486 405.854C572.042 375.101 589.806 295.725 575.105 227.125C559.686 155.16 463.972 122.951 405.981 144.499C392.052 149.671 382.265 157.29 371.719 165.497C366.786 169.334 361.691 173.3 355.932 177.199C354.925 177.878 353.575 178.759 351.953 179.812C345.633 183.912 335.201 190.681 325.017 198.71Z" fill="#FBC604"/>
<path d="M302.284 164.493C289.416 150.889 288.982 116.868 284.013 99.8172C281.281 90.5026 271.549 76.9162 271.549 67.0752" stroke="#292524" stroke-width="0.612512" stroke-linecap="round" stroke-linejoin="round"/>
<path d="M317.787 166.941C330.142 147.645 343.71 113.985 364.658 61.2" stroke="#292524" stroke-width="0.612512" stroke-linecap="round" stroke-linejoin="round"/>
<path d="M522.029 242.303C525.448 220.173 498.765 175.491 446.769 193.747C415.503 204.702 386.529 228.331 376.188 260.069C370.791 276.373 371.888 295.186 384.467 307.946C393.91 317.536 409.274 318.319 421.69 318.687C464.473 319.911 514.992 287.915 522.029 242.303Z" fill="#1E9A64"/>
<path d="M387.608 430.652C336.172 421.515 366.799 493.829 394.036 488.076C400.313 486.766 408.074 482.403 411.547 469.71C415.021 457.017 428.884 430.646 387.608 430.652Z" fill="#1E9A64"/>
<path d="M81.1996 226.734C79.0288 204.439 108.19 161.36 159.047 182.596C189.637 195.381 217.267 220.577 225.817 252.86C230.207 269.458 228.139 288.173 214.861 300.211C204.893 309.231 189.529 309.121 177.077 308.779C134.312 307.555 85.6799 272.671 81.1996 226.734Z" fill="#1E9A64"/>
<path d="M201.215 424.618C233.771 406.729 218.467 488.896 191.585 481.595C185.38 479.894 171.204 466.393 170.094 461.191C167.266 448.247 171.813 440.775 201.209 424.618H201.215Z" fill="#1E9A64"/>
<path d="M311.401 166.482C295.029 165.118 269.697 198.765 269.336 243.448C269.07 279.256 262.95 314.99 261.28 350.603C259.477 387.941 257.915 426.325 260.538 463.7C262.516 491.73 271.82 532.507 305.268 535.886C331.662 538.566 323.6 484.612 323.6 469.655C323.6 399.667 325.077 329.782 325.077 259.812C325.077 239.231 323.274 218.564 325.077 198.062C326.066 187.027 328.261 167.89 311.401 166.482Z" stroke="#292524" stroke-width="0.612512" stroke-linecap="round" stroke-linejoin="round"/>
<path d="M265.682 494.478C262.709 484.049 261.207 473.155 260.538 463.7C257.915 426.325 259.477 387.941 261.28 350.603C262.003 335.26 263.547 319.898 265.091 304.519C267.141 284.188 269.185 263.833 269.336 243.447C269.417 231.022 271.486 218.693 275.462 206.942C266.966 190.809 257.234 176.262 250.697 171.256C245.192 167.033 240.338 162.798 235.646 158.698C225.564 149.885 216.2 141.702 202.572 135.717C145.878 110.87 48.5293 137.547 29.1187 208.466C10.5825 276.153 23.8425 356.374 72.6373 390.064C81.9235 396.472 107.756 394.562 131.55 392.806C149.737 391.46 166.729 390.211 174.237 392.818C174.882 393.045 171.276 396.092 166.343 400.248C159.795 405.768 150.913 413.259 146.583 418.73C126.793 443.675 107.509 473.969 128.59 504.9C129.458 506.173 130.338 507.501 131.225 508.853C135.735 515.683 140.668 523.156 147.156 527.581C176.04 547.134 206.045 542.605 230.334 522.336C231.914 521.02 234.905 518.743 238.716 515.836C246.048 510.255 256.414 502.36 265.682 494.478Z" stroke="#292524" stroke-width="0.612512" stroke-linecap="round" stroke-linejoin="round"/>
<path d="M325.017 198.71C323.889 212.162 324.281 225.687 324.673 239.213C324.878 246.085 325.077 252.952 325.077 259.812C325.077 294.794 324.709 329.758 324.335 364.721C323.973 399.685 323.6 434.655 323.6 469.655C323.6 471.981 323.793 475.261 324.022 479.117C324.402 485.396 324.866 493.217 324.733 501.032C332.633 508.486 341.605 515.99 348.238 521.534C352.037 524.717 355.064 527.244 356.68 528.756C379.805 550.421 409.527 556.663 439.448 538.787C446.189 534.772 451.496 527.611 456.356 521.063C457.333 519.747 458.286 518.456 459.238 517.22C482.032 487.55 464.382 456.197 446.051 430.157C442.035 424.489 433.617 416.54 427.388 410.658C422.685 406.215 419.229 402.953 419.893 402.763C427.533 400.591 444.423 402.825 462.495 405.211C486.156 408.333 511.85 411.723 521.486 405.854C572.042 375.101 589.806 295.725 575.105 227.125C559.686 155.16 463.972 122.951 405.981 144.499C392.052 149.671 382.265 157.29 371.719 165.497C366.786 169.334 361.691 173.3 355.932 177.199C354.925 177.878 353.575 178.759 351.953 179.812C345.633 183.912 335.201 190.681 325.017 198.71Z" stroke="#292524" stroke-width="0.612512" stroke-linecap="round" stroke-linejoin="round"/>
<path d="M522.029 242.303C525.448 220.173 498.765 175.491 446.769 193.747C415.503 204.702 386.529 228.331 376.188 260.069C370.791 276.373 371.888 295.186 384.467 307.946C393.91 317.536 409.274 318.319 421.69 318.687C464.473 319.911 514.992 287.915 522.029 242.303Z" stroke="#292524" stroke-width="0.612512" stroke-linecap="round" stroke-linejoin="round"/>
<path d="M387.608 430.652C336.172 421.515 366.799 493.829 394.036 488.076C400.313 486.766 408.074 482.403 411.547 469.71C415.021 457.017 428.884 430.646 387.608 430.652Z" stroke="#292524" stroke-width="0.612512" stroke-linecap="round" stroke-linejoin="round"/>
<path d="M81.1996 226.734C79.0288 204.439 108.19 161.36 159.047 182.596C189.637 195.381 217.267 220.577 225.817 252.86C230.207 269.458 228.139 288.173 214.861 300.211C204.893 309.231 189.529 309.121 177.077 308.779C134.312 307.555 85.6799 272.671 81.1996 226.734Z" stroke="#292524" stroke-width="0.612512" stroke-linecap="round" stroke-linejoin="round"/>
<path d="M201.215 424.618C233.771 406.729 218.467 488.896 191.585 481.595C185.38 479.894 171.204 466.393 170.094 461.191C167.266 448.247 171.813 440.775 201.209 424.618H201.215Z" stroke="#292524" stroke-width="0.612512" stroke-linecap="round" stroke-linejoin="round"/>
</svg>
