<svg width="609" height="613" viewBox="0 0 609 613" fill="none" xmlns="http://www.w3.org/2000/svg">
<path d="M174.235 32.1694C151.794 35.2344 83.9207 38.2994 106.569 38.2994C106.569 38.2994 88.4152 67.3433 85.0839 77.1268C73.7748 110.315 64.2196 147.438 61.5704 182.354C55.9737 256.086 57.8494 217.062 57.8494 338.669C76.4361 338.669 94.6452 338.173 112.824 333.9C176.403 318.974 241.603 307.13 304.494 288.949C341.698 278.191 379.846 271.944 415.296 256.086C444.412 243.06 470.624 226.349 497.852 210.111C511.146 202.179 523.734 199.543 523.734 182.354C523.734 172.583 503.108 169.04 495.312 164.645C472.268 151.649 442.104 139.45 415.466 139.45C411.526 139.45 370.431 144.71 368.945 140.983C366.399 134.571 476.829 76.0969 483.473 57.3698C485.483 51.7118 486.281 37.4166 479.241 35.2405C467.999 31.7525 456.148 32.531 444.564 31.9977C425.046 31.1089 405.802 26.5788 386.368 24.6785C316.212 17.8129 243.838 22.6617 174.235 32.1694Z" fill="#D55816"/>
<path d="M51.7656 547.09C51.7656 425.483 52.3746 303.692 61.5766 182.355C64.2258 147.432 73.7871 110.315 85.0901 77.1212C88.4213 67.3438 94.4443 45.9378 103.531 41.3649" stroke="#292524" stroke-width="0.612512" stroke-linecap="round" stroke-linejoin="round"/>
</svg>
