<svg width="610" height="613" viewBox="0 0 610 613" fill="none" xmlns="http://www.w3.org/2000/svg">
<path d="M359.701 114.551C353.855 121.38 338.908 158.283 344.217 160.021C346.175 160.675 363.82 163.225 365.917 163.225C369.272 163.225 370.662 155.444 371.451 153.172C374.717 143.761 380.809 130.802 380.925 121.065C380.984 117.169 361.921 111.815 359.701 114.551Z" fill="#1E9A64"/>
<path d="M436.477 147.733C408.137 138.444 384.568 139.58 380.115 173.322C378.81 183.314 390.444 189.724 397.089 195.419C409.279 205.823 414.064 218.676 408.934 233.47C406.609 240.209 397.618 244.007 391.109 243.494C377.994 242.479 380.213 223.852 371.453 220.919C368.887 220.059 363.468 226.792 362.018 228.018C353.531 235.196 351.136 239.624 358.806 250.325C375.924 274.199 414.568 276.232 431.365 250.423C439.852 237.36 436.294 217.797 430.178 205.304C426.685 198.167 416.532 187.73 422.604 179.791C431.176 168.577 441.695 194.033 449.246 194.048C454.517 194.048 457.866 188.412 461.424 183.766C463.344 181.26 466.182 179.495 466.908 177.396C467.449 175.848 463.128 170.23 462.337 169.299C456.331 162.208 445.383 150.651 436.477 147.733Z" fill="#1E9A64"/>
<path d="M458.958 227.433C460.182 243.555 459.527 265.97 458.192 281.853C456.154 306.001 453.171 327.646 454.462 352.097C454.666 355.981 452.462 372.945 454.885 375.607C458.267 379.316 469.479 380.44 473.637 380.918C477.923 381.431 484.507 382.502 488.671 380.536C498.75 375.785 497.146 355.875 496.711 343.919C496.264 331.318 498.407 318.823 498.145 306.214C497.862 292.64 496.534 279.244 496.369 265.633C496.258 255.652 495.088 246.334 493.649 236.671C493.454 235.396 493.258 228.706 492.081 228.132C489.446 226.863 458.434 220.328 458.958 227.433Z" fill="#FB8CAC"/>
<path d="M495.18 422.387C492.205 408.509 483.104 403.174 481.042 401.968C475.312 398.627 463.836 400.489 458.464 404.111C442.892 414.557 450.017 444.473 467.479 449.167C482.792 453.282 498.488 437.871 495.18 422.387Z" fill="#FB8CAC"/>
<path d="M267.894 324.904C264.6 324.011 250.808 321.841 250.438 318.972C249.012 308.663 248.004 286.403 233.903 287.223C208.978 288.626 200.184 322.852 200.67 342.419C200.814 348.222 203.094 384.193 212.187 391.778C218.238 396.815 236.851 401.222 240.72 390.797C241.534 388.605 241.66 385.944 241.896 383.635C242.105 381.584 244.588 370.685 240.812 369.651C238.333 368.968 225.489 367.683 225.023 365.331C223.848 359.438 227.731 350.862 229.016 346.128C229.315 345.033 241.373 345.635 242.465 345.578C251.991 345.041 263.431 346.408 272.648 348.927C275.017 349.569 280.441 350.031 281.058 353.026C281.895 357.123 280.913 361.506 280.968 365.654C281.094 376.33 280.291 388.384 276.184 398.419C267.41 419.817 245.452 433.078 222.766 432.35C217.652 432.185 213.207 432.475 208.376 430.477C182.941 419.974 165.782 389.234 164.241 342.254C163.311 313.829 177.844 287.233 200.631 271.475C211.627 263.882 237.134 259.368 250.218 264.057C272.8 272.145 282.993 307.049 277.459 327.519C277.141 328.692 268.427 325.053 267.894 324.904Z" fill="#FBC604"/>
<path fill-rule="evenodd" clip-rule="evenodd" d="M391.344 294.237C370.906 272.406 344.658 281.232 326.82 294.648C318.263 301.074 313.032 310.063 308.233 319.276C295.433 343.868 295.46 375.002 300.742 402.996C303.489 417.548 310.065 433.18 323.943 438.462C339.319 444.314 358.818 450.068 375.02 444.302C385.666 440.522 390.583 433.619 396.059 424.347C406.333 407.019 412.138 389.514 413.686 369.26C414.399 359.865 413.434 348.402 412.086 339.089C411.746 336.739 407.323 320.929 407.323 320.929C407.323 320.929 430.701 311.346 431.006 310.047C432.124 305.304 429.554 299.662 427.1 294.28L426.288 292.492C425.894 291.612 422.376 284.002 421.238 283.957C415.217 283.735 392.297 292.715 391.344 294.237ZM382.238 315.216C380.329 313.396 369.032 306.608 362.584 306.855C351.986 307.253 334.967 311.43 336.252 324.663C336.718 329.475 342.844 332.064 346.826 332.703C355.059 334.031 376.256 336.393 382.053 328.108C384.845 324.14 386.211 319.029 382.238 315.216ZM345.008 354.503C342.934 353.034 340.591 351.377 337.434 350.2C334.404 358.167 333.135 368.157 332.424 373.748C332.29 374.899 332.132 376.048 331.948 377.193C330.919 382.818 330.71 389.493 332.174 394.052C335.52 404.467 355.146 411.968 365.624 405.311C373.7 400.166 375.179 387.822 376.419 377.479C376.832 374.025 377.218 370.793 377.816 368.128C378.153 366.59 379.78 355.823 377.252 354.865C376.642 354.632 374.404 355.981 372.478 357.139C371.285 357.859 370.211 358.504 369.723 358.653C364.02 360.423 355.327 359.448 349.68 357.295C348.109 356.698 346.641 355.66 345.008 354.503Z" fill="#FBC604"/>
<path d="M41.2461 139.021C45.7499 160.166 48.5315 176.989 51.3843 187.393C58.8263 214.561 59.782 252.713 77.5004 275.931C83.4866 283.765 146.315 257.091 149.428 252.945C153.815 247.149 145.788 218.953 139.283 218.912C132.781 218.869 107.232 236.168 104.294 235.156C103.086 234.75 101.982 229.651 101.748 228.865C99.5723 221.562 98.4112 213.828 97.177 206.308C93.6675 185.199 86.9249 134.113 82.1547 123.991C68.6249 123.991 45.7499 132.581 41.2461 139.021Z" fill="#1E9A64"/>
<path fill-rule="evenodd" clip-rule="evenodd" d="M192.248 188.754C186.81 194.66 188.742 205.332 196.048 207.78C211.28 212.884 235.533 198.299 242.361 185.242C243.915 182.238 245.832 178.75 247.776 175.209C253.107 165.507 258.66 155.401 257.593 153.66C255.358 150.001 247.995 149.361 241.761 148.817C236.997 148.403 232.892 148.045 232.229 146.443C231.066 143.621 231.525 136.664 231.869 131.453C232.013 129.263 232.138 127.381 232.111 126.243C232.074 124.532 238.205 125.258 244.956 126.055C253.378 127.05 262.766 128.159 262.353 124.8C261.314 116.525 261.373 98.5106 264.311 92.6523C265.909 89.4668 278.258 92.213 284.801 93.6679C286.143 93.9662 287.241 94.2114 287.95 94.3381C290.836 94.8448 284.9 118.174 283.19 124.892C283.016 125.577 282.885 126.089 282.812 126.388C282.233 128.764 296.932 130.521 305.927 131.596C309.097 131.974 311.56 132.271 312.395 132.475C315.272 133.184 317.153 143.407 312.074 158.064C311.885 158.607 306.017 158.889 304.841 158.889C300.862 158.883 296.924 158.452 293.038 158.025C289.227 157.608 285.47 157.197 281.775 157.197C280.041 157.191 278.992 160.191 278.158 162.573C277.814 163.554 277.507 164.433 277.204 164.952C272.282 173.356 269.775 186.805 271.832 196.554C275.169 212.371 302.497 214.635 313.231 204.067C314.124 203.188 330.093 221.807 328.526 222.968C284.74 255.359 259.663 236.233 254.217 231.241C249.5 226.916 247.705 220.383 246.601 216.37C246.05 214.368 245.671 212.992 245.189 212.831C245.045 212.788 244.291 213.675 243.071 215.111C238.976 219.932 229.63 230.931 220.491 233.636C200.422 239.593 175.94 240.156 163.862 224.411C147.541 203.16 151.823 177.436 161.902 155.09C166.715 144.404 174.098 137.375 186.202 134.095C194.749 131.792 207.302 135.644 214.655 139.347C226.68 145.387 231.151 163.272 223.142 173.73C219.643 178.303 214.897 181.997 209.124 183.419C207.418 183.84 205.651 184.065 203.895 184.29C199.59 184.841 195.348 185.381 192.248 188.754ZM193.553 169.175C214.242 164.721 209.561 146.713 185.668 154.467C176.971 157.295 184.602 171.1 193.553 169.175Z" fill="#1E9A64"/>
</svg>
