<svg width="608" height="613" viewBox="0 0 608 613" fill="none" xmlns="http://www.w3.org/2000/svg">
<path d="M515.639 175.888C544.883 205.974 517.159 305.739 519.396 338.933C522.837 389.843 534.76 426.905 529.27 463.936C518.423 536.926 436.55 599.244 341.228 566.197C307.417 554.409 262.133 514.006 231.465 494.402C199.795 474.137 173.037 445.755 144.096 421.903C123.661 405.045 85.2597 380.194 83.7336 349.514C83.0952 336.604 100.131 327.918 109.878 327.636C140.302 326.71 238.457 388.096 237.971 387.943C221.196 382.806 108.801 283.978 84.2991 239.155C75.2763 222.66 65.4024 208.101 79.5992 190.318C92.2152 174.484 124.992 186.824 137.007 196C172.027 222.85 255.871 311.183 257.172 310.46C257.658 310.178 148.236 187.492 153.258 139.187C155.684 115.789 170.817 104.584 193.952 120.221C222.85 139.715 313.321 276.634 317.911 261.824C322.082 248.442 217.713 92.5074 244.969 61.6797C263.507 40.8193 292.375 55.3045 306.213 76.4101C337.186 123.625 362.871 174.157 382.797 227.079C392.196 252.427 410.607 275.463 419.094 272.919C454.085 262.357 472.756 145.023 515.633 175.882L515.639 175.888Z" fill="#F5AC5F"/>
<path d="M459.356 88.6767C479.025 76.8826 511.899 94.0772 528.03 106.699" stroke="#292524" stroke-width="0.612512" stroke-linecap="round" stroke-linejoin="round"/>
<path d="M429.759 44.2152C487.543 11.8672 536.621 34.2417 573.988 85.2249" stroke="#292524" stroke-width="0.612512" stroke-linecap="round" stroke-linejoin="round"/>
<path d="M93.3279 473.849C90.0143 490.725 96.8421 511.462 109.16 523.882" stroke="#292524" stroke-width="0.612512" stroke-linecap="round" stroke-linejoin="round"/>
<path d="M44.1528 452.18C21.6994 489.64 37.4223 540.127 82.5176 570.826" stroke="#292524" stroke-width="0.612512" stroke-linecap="round" stroke-linejoin="round"/>
</svg>
