<svg width="608" height="614" viewBox="0 0 608 614" fill="none" xmlns="http://www.w3.org/2000/svg">
<path d="M168.78 97.2832C170.282 97.2955 171.753 97.2955 173.158 97.2893C177.001 97.2893 180.424 97.2893 183.008 97.5042C212.569 99.9909 242.269 101.096 271.982 102.195C297.713 103.153 323.449 104.111 349.095 105.965C372.442 107.648 395.382 111.16 418.31 114.672C429.4 116.366 440.496 118.067 451.634 119.559C450.266 151.776 445.803 192.68 432.19 214.68C423.496 228.649 413.689 240.8 403.882 252.951C398.349 259.809 392.804 266.674 387.466 273.87C386.341 275.374 384.651 277.142 382.881 278.99C378.169 283.921 372.88 289.447 376.297 292.198C410.083 319.404 423.587 348.262 433.552 388.602C441.985 422.304 445.724 473.745 444.338 513.526C441.683 512.887 439.004 512.354 436.306 511.93C337.379 497.587 165.728 475.974 143.263 473.886C141.054 473.663 138.848 473.403 136.648 473.106C132.613 472.539 128.559 472.117 124.494 471.842C132.373 443.082 147.561 391.444 150.893 380.233C152.899 373.54 156.742 367.376 160.499 361.365C162.001 358.952 163.497 356.563 164.847 354.169C167.905 348.778 170.513 343.522 173.061 338.376C177.967 328.485 182.667 319.011 189.981 309.782C194.116 304.545 204.883 294.23 213.377 286.1C219.767 279.979 224.868 275.091 224.868 274.545C224.868 272.992 206.02 254.037 195.459 243.421L191.374 239.314C175.547 223.264 169.972 198.034 166.944 176.594C164.505 159.078 164.275 141.321 166.257 123.747C166.993 118.601 167.461 113.425 167.656 108.231C167.656 107.205 168.142 102.705 168.774 97.2832H168.78Z" fill="#1E9A64"/>
<path d="M392.914 46.5299C350.287 43.2143 213.396 26.9003 185.78 29.1537C175.268 30.044 158.098 29.1537 148.814 34.8025C132.775 44.516 127.534 72.1767 134.842 86.925C141.408 100.2 171.079 96.4972 183.014 97.5042C238.166 102.146 293.84 101.968 349.095 105.965C388.937 108.832 427.564 117.036 467.029 121.462C472.775 122.107 499.356 129.199 501.916 121.462C505.819 109.594 513.839 82.6147 509.437 66.3375C508.987 64.8394 437.286 49.9867 392.914 46.5299Z" fill="#2953A7"/>
<path d="M386.913 148.772C386.913 185.134 359.249 203.535 336.832 226.155" stroke="#292524" stroke-width="0.612512" stroke-linecap="round" stroke-linejoin="round"/>
<path d="M112.529 473.886C116.864 469.557 133.894 473.014 143.263 473.886C165.729 475.973 337.379 497.586 436.301 511.935C443.293 512.942 467.047 518.382 470.489 525.327C472.379 529.133 470.489 538.761 470.489 542.93C470.489 558.667 473.048 578.038 455.848 583.81C448.862 586.156 438.727 584.504 431.419 584.504C412.607 584.504 394.039 583.165 375.318 581.821L373.494 581.686C322.878 578.02 272.11 570.621 221.373 567.6C196.226 566.102 169.839 563.935 146.011 554.915C136.046 551.145 103.998 545.447 98.5628 534.481C89.6009 516.368 100.904 485.595 112.529 473.886Z" fill="#2953A7"/>
<path d="M168.78 97.2832C170.282 97.2955 171.753 97.2955 173.158 97.2893C177.001 97.2893 180.424 97.2893 183.008 97.5042C212.569 99.9909 242.269 101.096 271.982 102.195C297.713 103.153 323.449 104.111 349.095 105.965C372.442 107.648 395.382 111.16 418.31 114.672C429.4 116.366 433.552 117.048 451.634 119.559C450.266 151.776 445.803 192.68 432.19 214.68C423.496 228.649 413.689 240.8 403.882 252.951C398.349 259.809 392.804 266.674 387.466 273.87C386.341 275.374 384.651 277.142 382.881 278.99C378.169 283.921 372.88 289.447 376.297 292.198C410.083 319.404 423.587 348.262 433.552 388.602C441.985 422.304 445.724 473.745 444.338 513.526C441.683 512.887 439.004 512.354 436.306 511.93C337.379 497.587 165.728 475.974 143.263 473.886C141.054 473.663 138.848 473.403 136.648 473.106C132.613 472.539 128.559 472.117 124.494 471.842C132.373 443.082 147.561 391.444 150.893 380.233C152.899 373.54 156.742 367.376 160.499 361.365C162.001 358.952 163.497 356.563 164.847 354.169C167.905 348.778 170.513 343.522 173.061 338.376C177.967 328.485 182.667 319.011 189.981 309.782C194.116 304.545 204.883 294.23 213.377 286.1C219.767 279.979 224.868 275.091 224.868 274.545C224.868 272.992 206.02 254.037 195.459 243.421L191.374 239.314C175.547 223.264 169.972 198.034 166.944 176.594C164.505 159.078 164.275 141.321 166.257 123.747C166.993 118.601 167.461 113.425 167.656 108.231C167.656 107.205 168.142 102.705 168.774 97.2832H168.78Z" stroke="#292524" stroke-width="0.612512" stroke-linecap="round" stroke-linejoin="round"/>
<path d="M392.914 46.5299C350.287 43.2143 213.396 26.9003 185.78 29.1537C175.268 30.044 158.098 29.1537 148.814 34.8025C132.775 44.516 127.534 72.1767 134.842 86.925C141.408 100.2 171.079 96.4972 183.014 97.5042C238.166 102.146 293.84 101.968 349.095 105.965C388.937 108.832 427.564 117.036 467.029 121.462C472.775 122.107 499.356 129.199 501.916 121.462C505.819 109.594 513.839 82.6147 509.437 66.3375C508.987 64.8394 437.286 49.9867 392.914 46.5299Z" stroke="#292524" stroke-width="0.612512" stroke-linecap="round" stroke-linejoin="round"/>
<path d="M112.529 473.886C116.864 469.557 133.894 473.014 143.263 473.886C165.729 475.973 337.379 497.586 436.301 511.935C443.293 512.942 467.047 518.382 470.489 525.327C472.379 529.133 470.489 538.761 470.489 542.93C470.489 558.667 473.048 578.038 455.848 583.81C448.862 586.156 438.727 584.504 431.419 584.504C412.607 584.504 394.039 583.165 375.318 581.821L373.494 581.686C322.878 578.02 272.11 570.621 221.373 567.6C196.226 566.102 169.839 563.935 146.011 554.915C136.046 551.145 103.998 545.447 98.5628 534.481C89.6009 516.368 100.904 485.595 112.529 473.886Z" stroke="#292524" stroke-width="0.612512" stroke-linecap="round" stroke-linejoin="round"/>
<path d="M162.239 475.998C205.261 481.07 304.954 493.718 385.964 504.85C384.675 475.353 381.404 441.068 373.494 422.439C355.394 379.79 344.797 348.384 297.92 336.546C276.257 328.491 261.719 332.39 239.017 348.065C214.174 365.22 200.774 392.641 183.701 416.796C170.629 435.29 168.629 445.335 163.473 459.776C163.278 460.298 162.78 467.279 162.239 475.998Z" fill="#FB8CAC"/>
<path d="M162.239 475.998C205.261 481.07 304.954 493.718 385.964 504.85C384.675 475.353 381.404 441.068 373.494 422.439C355.394 379.79 344.797 348.384 297.92 336.546C276.257 328.491 261.719 332.39 239.017 348.065C214.174 365.22 200.774 392.641 183.701 416.796C170.629 435.29 168.629 445.335 163.473 459.776C163.278 460.298 162.78 467.279 162.239 475.998Z" stroke="#292524" stroke-width="0.612512" stroke-linecap="round" stroke-linejoin="round"/>
</svg>
