<svg width="608" height="618" viewBox="0 0 608 618" fill="none" xmlns="http://www.w3.org/2000/svg">
<path fill-rule="evenodd" clip-rule="evenodd" d="M213.244 169.938C208.114 165.909 201.754 163.844 195.277 164.104C189.626 164.372 184.186 166.368 179.67 169.833C173.608 174.431 170.258 180.617 168.647 183.954C158.475 205.003 158.827 237.905 164.531 258.917C164.577 259.095 164.626 259.272 164.676 259.449C166.257 264.813 169.261 271.512 173.973 277.037C176.259 279.719 180.515 283.983 186.99 286.394C191.193 287.976 195.711 288.495 200.155 287.905C204.598 287.315 208.834 285.634 212.496 283.007C218.965 278.366 221.749 272.143 222.911 269.015C223.976 266.073 224.72 263.02 225.13 259.912C228.401 236.453 228.17 211.313 223.087 188.329L222.54 185.814L222.43 185.326C221.381 179.206 218.103 173.712 213.25 169.938H213.244Z" fill="#2953A7"/>
<path d="M366.593 160.353C361.322 157.35 355.242 156.144 349.247 156.91C344.053 157.606 339.158 159.775 335.123 163.171C329.408 167.942 326.496 174.066 325.091 177.508C322.051 184.918 320.458 194.034 320.683 201.351L320.695 201.697L320.805 204.292C321.249 215.219 321.972 233.184 328.344 248.245L328.587 248.801C330.897 253.924 334.819 260.024 340.309 264.751C343.045 267.112 347.703 270.449 354.074 271.933C361.407 273.644 369.858 272.532 376.996 267.137L377.416 266.815C383.52 261.977 385.958 255.766 386.979 252.305C387.845 249.261 388.343 246.121 388.463 242.955C388.633 239.265 388.341 235.1 388.244 233.685C388.183 226.123 387.818 218.566 387.15 211.035C386.377 202.988 384.924 193.162 381.69 184.362C380.952 182.236 380.202 180.114 379.44 177.997L379.197 177.366C378.893 176.501 378.625 175.772 378.419 175.203L378.303 174.882C376.374 168.693 372.183 163.493 366.593 160.353Z" fill="#2953A7"/>
<path fill-rule="evenodd" clip-rule="evenodd" d="M456 349.825C462.45 349.825 468.636 352.43 473.197 357.066C477.757 361.701 480.32 367.989 480.32 374.545C480.32 385.082 474.726 392.208 471.504 395.532C468.038 399.105 464.141 401.614 461.168 403.288C455.106 406.724 447.913 409.462 441.797 411.52C432.215 414.752 420.304 417.836 415.58 419.06C414.546 419.325 413.859 419.505 413.61 419.579C406.861 421.556 399.748 423.794 392.36 426.117C368.557 433.607 341.896 441.994 315.236 445.436C294.934 448.186 272.141 447.587 252.356 447.061C245.078 446.876 238.214 446.691 232.025 446.691H229.933C211.353 446.715 186.036 446.74 163.15 432.656C150.905 425.116 135.055 425.839 129.2 409.821C127.297 404.611 125.959 394.513 133.194 385.533C136.054 381.985 139.828 379.314 144.095 377.82C148.362 376.326 152.953 376.067 157.356 377.073C158.44 377.314 159.508 377.623 160.554 378C162.245 378.581 163.825 379.341 165.297 380.237C173.505 382.561 180.983 385.836 188.346 390.366C198.579 396.663 210.733 397.251 232.025 397.251C241.06 397.251 249.614 397.479 257.834 397.702C300.206 398.833 333.919 392.684 374.813 379.841C391.886 374.477 409.53 370.312 426.487 364.595C437.541 360.869 443.493 349.825 456 349.825Z" fill="#2953A7"/>
<path d="M213.244 169.938C208.114 165.909 201.754 163.844 195.277 164.104C189.626 164.372 184.186 166.368 179.67 169.833C173.608 174.431 170.258 180.617 168.647 183.954C158.475 205.003 158.827 237.905 164.531 258.917C164.577 259.095 164.626 259.272 164.676 259.449C166.257 264.813 169.261 271.512 173.973 277.037C176.259 279.719 180.515 283.983 186.99 286.394C191.193 287.976 195.711 288.495 200.155 287.905C204.598 287.315 208.834 285.634 212.496 283.007C218.965 278.366 221.749 272.143 222.911 269.015C223.976 266.073 224.72 263.02 225.13 259.912C228.401 236.453 228.17 211.313 223.087 188.329L222.54 185.814L222.43 185.326C221.381 179.206 218.103 173.712 213.25 169.938H213.244Z" stroke="#292524" stroke-width="0.612512" stroke-miterlimit="1.585" stroke-linecap="round" stroke-linejoin="round"/>
<path d="M366.593 160.353C361.322 157.35 355.242 156.144 349.247 156.91C344.053 157.606 339.158 159.775 335.123 163.171C329.408 167.942 326.496 174.066 325.091 177.508C322.051 184.918 320.458 194.034 320.683 201.351L320.695 201.697L320.805 204.292C321.249 215.219 321.972 233.184 328.344 248.245L328.587 248.801C330.897 253.924 334.819 260.024 340.309 264.751C343.045 267.112 347.703 270.449 354.074 271.933C361.407 273.644 369.858 272.532 376.996 267.137L377.416 266.815C383.52 261.977 385.958 255.766 386.979 252.305C387.845 249.261 388.343 246.121 388.463 242.955C388.633 239.265 388.341 235.1 388.244 233.685C388.183 226.123 387.818 218.566 387.15 211.035C386.377 202.988 384.924 193.162 381.69 184.362C380.952 182.236 380.202 180.114 379.44 177.997L379.197 177.366C378.893 176.501 378.625 175.772 378.419 175.203L378.303 174.882C376.374 168.693 372.183 163.493 366.593 160.353Z" stroke="#292524" stroke-width="0.612512" stroke-miterlimit="1.585" stroke-linecap="round" stroke-linejoin="round"/>
<path d="M163.473 379.471L163.564 379.514M480.32 374.545C480.32 367.989 477.757 361.701 473.196 357.066C468.636 352.43 462.45 349.825 456 349.825C443.493 349.825 437.541 360.869 426.487 364.595C409.536 370.312 391.892 374.477 374.807 379.841C333.919 392.684 300.206 398.833 257.828 397.702C249.229 397.434 240.627 397.284 232.025 397.251C210.732 397.251 198.585 396.663 188.346 390.366C181.162 385.919 173.405 382.51 165.297 380.237C163.799 379.321 162.209 378.571 160.554 378C159.504 377.636 158.437 377.327 157.356 377.073C154.208 376.37 150.956 376.297 147.78 376.857C145.956 377.184 138.788 378.599 133.188 385.539C125.953 394.513 127.297 404.611 129.2 409.827C135.055 425.839 150.905 425.116 163.15 432.656C186.042 446.746 211.353 446.715 229.933 446.691H232.025C238.214 446.691 245.084 446.876 252.356 447.061C272.14 447.587 294.934 448.186 315.235 445.436C341.902 441.994 368.557 433.607 392.366 426.117C399.748 423.794 406.861 421.556 413.61 419.579C413.859 419.505 414.552 419.332 415.58 419.06C420.304 417.836 432.215 414.752 441.797 411.52C447.907 409.462 455.106 406.724 461.174 403.288C464.141 401.614 468.044 399.105 471.504 395.532C474.726 392.208 480.32 385.082 480.32 374.545Z" stroke="#292524" stroke-width="0.612512" stroke-miterlimit="2.854" stroke-linecap="round" stroke-linejoin="round"/>
</svg>
