<svg width="610" height="615" viewBox="0 0 610 615" fill="none" xmlns="http://www.w3.org/2000/svg">
<path fill-rule="evenodd" clip-rule="evenodd" d="M173.227 254.284C182.853 252.661 233.19 220.103 256.261 193.295C262.635 185.872 292.129 145.239 312.722 116.617C313.332 115.78 313.948 114.907 314.595 114.009C332.407 89.163 364.981 43.7391 396.414 38.4562C434.856 31.9987 482.729 45.744 506.599 77.8039C516.017 90.4545 519.781 107.305 523.343 123.259C524.429 128.105 525.49 132.865 526.692 137.404C538.264 181.13 546.828 228.178 549.073 273.38C549.451 281.025 549.994 288.644 550.537 296.264C551.525 310.225 552.519 324.167 552.519 338.195V344.591C552.562 368.502 552.599 391.608 547.926 415.144C547.414 417.727 546.95 420.427 546.474 423.169C544.687 433.551 542.772 444.658 537.587 453.329C518.494 485.444 469.59 494.995 436.022 494.995C373.71 494.995 316.132 463.323 263.257 434.233C254.9 429.645 246.025 425.617 237.131 421.577C218.172 412.973 199.177 404.35 185.202 390.261C184 389.049 177.571 391.097 176.601 391.417C172.892 392.665 168.89 393.588 164.846 394.523C160.692 395.482 156.489 396.448 152.5 397.795C129.289 405.667 95.0498 410.464 76.1643 391.417C70.4913 385.698 69.3506 373.644 68.3502 363.023C67.85 357.734 67.3864 352.801 66.4104 349.185C61.6951 331.78 55.772 309.13 62.3844 291.313C70.9975 268.214 127.429 260.594 159.136 256.308C164.736 255.551 169.567 254.899 173.227 254.284ZM380.847 127.391C404.082 89.2737 459.006 101.598 473.28 134.519C487.042 166.192 489.958 196.173 493.105 228.553C493.892 236.585 494.691 244.764 495.667 253.159C497.022 264.782 499.108 276.406 501.2 288.048C504.744 307.795 508.3 327.58 508.3 347.475C508.3 368.047 505.086 380.015 496.253 397.831C495.436 399.455 494.722 401.036 494.033 402.555C490.495 410.365 487.762 416.411 476.727 417.425C444.433 420.377 414.842 404.264 402.124 373.447C396.878 360.765 394.56 347.684 392.217 334.499C391.237 328.751 390.138 323.024 388.923 317.322C386.827 308.011 384.604 298.73 382.256 289.481C376.339 265.723 370.483 242.181 368.836 217.218C367.634 199.23 367.262 180.06 369.983 162.25C370.727 157.403 378.285 131.598 380.847 127.391Z" fill="#D55816"/>
<path d="M173.227 254.284C182.853 252.661 233.19 220.103 256.261 193.295C262.635 185.872 292.129 145.239 312.722 116.617C313.332 115.78 313.948 114.907 314.595 114.009C332.407 89.163 364.981 43.7391 396.414 38.4562C434.856 31.9987 482.729 45.744 506.599 77.8039C516.017 90.4545 519.781 107.305 523.343 123.259C524.429 128.105 525.49 132.865 526.692 137.404C538.264 181.13 546.828 228.178 549.073 273.38C549.451 281.025 549.994 288.644 550.537 296.264C551.525 310.225 552.519 324.167 552.519 338.195V344.523V344.591C552.562 368.502 552.599 391.608 547.926 415.144C547.414 417.727 546.95 420.427 546.474 423.169C544.687 433.551 542.772 444.658 537.587 453.329C518.494 485.444 469.59 494.995 436.022 494.995C373.71 494.995 316.132 463.323 263.257 434.233C254.9 429.645 246.025 425.617 237.131 421.577C218.172 412.973 199.177 404.35 185.202 390.261C184 389.049 177.571 391.097 176.601 391.417C172.892 392.665 168.89 393.588 164.846 394.523C160.692 395.482 156.489 396.448 152.5 397.795C129.289 405.667 95.0498 410.464 76.1643 391.417C70.4913 385.698 69.3506 373.644 68.3502 363.023C67.85 357.734 67.3864 352.801 66.4104 349.185C61.6951 331.78 55.772 309.13 62.3844 291.313C70.9975 268.214 127.429 260.594 159.136 256.308C164.736 255.551 169.567 254.899 173.227 254.284Z" stroke="#292524" stroke-width="0.612512" stroke-linecap="round" stroke-linejoin="round"/>
<path d="M106.597 404.375C122.201 405.82 139.171 402.315 152.5 397.795C156.483 396.448 160.692 395.476 164.846 394.523C168.89 393.588 172.898 392.666 176.601 391.417C177.571 391.097 184 389.049 185.202 390.261C193.376 398.502 203.264 404.867 213.86 410.458C215.507 450.783 218.727 502.701 221.899 525.094C222.284 527.8 223.04 531.25 223.876 535.057C226.255 545.881 229.238 559.497 225.925 566.176C224.089 569.859 216.58 572.141 212.731 573.119C210.072 573.796 207.421 574.501 204.777 575.234C195.56 577.756 187.117 580.062 176.564 580.062C174.508 580.062 172.319 580.154 170.074 580.247C163.504 580.523 156.434 580.819 150.737 578.906C144.606 576.846 142.532 563.07 141.373 555.401C141.251 554.555 141.121 553.71 140.983 552.867C137.366 531.022 117.498 448.907 106.597 404.375Z" fill="#FBC604"/>
<path d="M106.597 404.375C122.201 405.82 139.171 402.315 152.5 397.795C156.483 396.448 160.692 395.476 164.846 394.523C168.89 393.588 172.898 392.666 176.601 391.417C177.571 391.097 184 389.049 185.202 390.261C193.376 398.502 203.264 404.867 213.86 410.458C215.507 450.783 218.727 502.701 221.899 525.094C222.284 527.8 223.04 531.25 223.876 535.057C226.255 545.881 229.238 559.497 225.925 566.176C224.089 569.859 216.58 572.141 212.731 573.119C210.072 573.796 207.421 574.501 204.777 575.234C195.56 577.756 187.117 580.062 176.564 580.062C174.508 580.062 172.319 580.154 170.074 580.247C163.504 580.523 156.434 580.819 150.737 578.906C144.606 576.846 142.532 563.07 141.373 555.401C141.251 554.555 141.121 553.71 140.983 552.867C137.366 531.022 117.498 448.907 106.597 404.375Z" stroke="#292524" stroke-width="0.612512" stroke-linecap="round" stroke-linejoin="round"/>
<path d="M219.685 500.119C229.732 500.119 241.157 499.774 246.013 497.314C259.616 490.457 282.57 461.798 282.57 445.076" stroke="#292524" stroke-width="0.612512" stroke-linecap="round" stroke-linejoin="round"/>
<path d="M473.286 134.519C459.012 101.598 404.082 89.2737 380.847 127.391C378.285 131.598 370.721 157.403 369.989 162.25C367.262 180.06 367.634 199.23 368.836 217.218C371.117 251.861 381.524 283.761 388.923 317.322C393.096 336.27 394.614 355.28 402.117 373.447C414.842 404.258 444.433 420.377 476.727 417.419C489.903 416.208 491.245 407.825 496.247 397.832C505.085 380.015 508.3 368.047 508.3 347.475C508.3 315.864 499.321 284.512 495.667 253.159C490.738 210.945 490.458 174.058 473.28 134.519H473.286Z" fill="#1E9A64"/>
<path d="M473.286 134.519C459.012 101.598 404.082 89.2737 380.847 127.391C378.285 131.598 370.721 157.403 369.989 162.25C367.262 180.06 367.634 199.23 368.836 217.218C371.117 251.861 381.524 283.761 388.923 317.322C393.096 336.27 394.614 355.28 402.117 373.447C414.842 404.258 444.433 420.377 476.727 417.419C489.903 416.208 491.245 407.825 496.247 397.832C505.085 380.015 508.3 368.047 508.3 347.475C508.3 315.864 499.321 284.512 495.667 253.159C490.738 210.945 490.458 174.058 473.28 134.519H473.286Z" stroke="#292524" stroke-width="0.612512" stroke-linecap="round" stroke-linejoin="round"/>
<path d="M393.998 344.265L403.063 341.294C407.15 339.948 410.188 338.951 410.81 338.773C418.514 336.559 431.66 332.518 434.923 324.308C442.487 305.249 439.84 280.883 437.51 259.339C436.973 254.575 436.495 249.805 436.076 245.028C434.551 226.788 431.001 198.805 413.689 188.332C407.205 184.463 399.214 185.798 392.059 186.991C390.381 187.274 388.746 187.544 387.191 187.741C385.709 187.926 376.992 189.211 367.933 190.546C367.872 199.525 368.256 208.504 368.836 217.218C370.483 242.187 376.339 265.723 382.256 289.481C384.55 298.699 386.855 307.943 388.923 317.322C390.186 323.047 391.199 328.785 392.217 334.499C392.797 337.758 393.376 341.018 393.998 344.265Z" fill="#F7F2EC"/>
<path d="M393.998 344.265L403.063 341.294C407.15 339.948 410.188 338.951 410.81 338.773C418.514 336.559 431.66 332.518 434.923 324.308C442.487 305.249 439.84 280.883 437.51 259.339C436.973 254.575 436.495 249.805 436.076 245.028C434.551 226.788 431.001 198.805 413.689 188.332C407.205 184.463 399.214 185.798 392.059 186.991C390.381 187.274 388.746 187.544 387.191 187.741C385.709 187.926 376.992 189.211 367.933 190.546C367.872 199.525 368.256 208.504 368.836 217.218C370.483 242.187 376.339 265.723 382.256 289.481C384.55 298.699 386.855 307.943 388.923 317.322C390.186 323.047 391.199 328.785 392.217 334.499C392.797 337.758 393.376 341.018 393.998 344.265Z" stroke="#292524" stroke-width="0.612512" stroke-linecap="round" stroke-linejoin="round"/>
</svg>
