<svg width="606" height="613" viewBox="0 0 606 613" fill="none" xmlns="http://www.w3.org/2000/svg">
<path d="M73.9325 381.396C85.9313 369.872 95.6697 351.31 99.3845 348.919C112.317 340.638 126.957 340.791 142.98 344.426C167.493 350.023 168.505 388.55 165.711 400.761C162.639 414.296 152.822 429.48 147.531 432.226C113.347 450.064 100.36 430.92 74.7021 406.235C62.067 394.085 30.052 396.225 26.2282 414.615C-1.30239 547.121 186.255 601.874 293.953 573.627C394.9 547.084 423.504 457.237 454.125 373.721C471.553 326.214 485.879 255.339 455.719 208.886C442.599 188.565 408.281 173.491 385.586 188.62C361.801 204.497 340.3 291.304 341.518 291.304C345.269 291.304 356.122 178.444 311.381 167.711C251.872 153.415 248.109 234.068 236.862 276.046C235.225 282.053 249.866 146.519 173.395 153.967C136.417 157.565 135.351 220.324 135.351 237.899V277.579C135.351 230.733 74.6779 226.258 44.9354 250.11C18.3199 271.455 8.61177 336.635 13.2234 367.653C18.4168 402.594 50.65 403.807 73.9325 381.396Z" fill="#F5AC5F"/>
<path d="M507.671 183.33C469.644 188.221 432.478 130.924 422.164 96.7741C414.668 71.9782 413.844 39.2011 441.623 30.0981C453.731 26.1136 479.631 28.6392 488.309 40.0348C495.375 49.2911 502.574 72.6648 502.574 72.6648C502.574 72.6648 508.198 53.1346 514.252 45.7051C528.214 28.5288 568.344 -0.895186 587.348 36.4733C610.061 81.1732 575.294 117.426 553.145 147.745C540.34 165.068 524.524 181.184 507.671 183.33Z" fill="#D55816"/>
</svg>
