<svg width="603" height="609" viewBox="0 0 603 609" fill="none" xmlns="http://www.w3.org/2000/svg">
<path d="M78.7966 126.845C74.8731 137.803 73.6832 145.121 72.7385 148.235C69.896 157.277 67.5507 166.472 65.7135 175.776C60.4413 203.721 52.7872 232.579 54.9741 261.312C56.3268 279.125 66.0351 278.648 81.4156 281.756C95.0515 284.513 109.7 283.544 123.555 285.093C133.043 286.157 145.434 290.25 154.545 287.182C157.472 286.198 156.606 279.627 156.606 277.584C156.556 269.594 155.726 261.628 154.127 253.803C153.741 251.824 153.569 246.556 152.475 245.46C150.65 243.608 145.143 243.472 142.562 242.949C132.353 240.94 121.972 239.963 111.572 240.033C109.047 240.033 98.3941 240.955 97.1117 238.365C94.3741 232.803 97.7811 219.945 98.3559 214.161C100.251 194.98 101.21 175.672 103.313 156.578C103.972 150.549 103.926 143.657 105.381 137.801C105.578 137.009 106.547 133.552 106.169 133.209C101.479 128.434 85.2326 126.845 78.7966 126.845Z" fill="#1E9A64"/>
<path d="M222.073 281.216C211.901 280.207 144.628 213.264 144.885 182.396C145.052 163.563 140.544 155.125 163.699 135.371C178.591 122.657 204.05 136.167 214.269 145.866C217.543 148.966 220.248 153.456 222.522 157.453C223.884 159.836 225.521 165.319 225.521 165.319C225.955 162.792 226.58 160.303 227.392 157.873C229.055 153.639 230.933 149.493 233.018 145.454C239.862 132.884 252.442 123.881 266.06 127.243C288.978 132.925 305.5 151.128 302.425 175.187C296.894 218.142 241.641 283.147 222.073 281.216Z" fill="#FB8CAC"/>
<path d="M526.618 137.088C508.406 135.499 477.737 132.32 455.921 142.975C450.116 145.821 448.842 162.492 448.054 168.657C446.072 183.683 445.567 198.526 445.567 213.725C445.567 228.925 443.915 243.968 443.915 259.207C443.915 263.425 442.341 272.278 444.333 276.314C447.479 282.631 461.949 282.394 467.88 282.988C480.569 284.275 493.646 284.69 506.305 283.411C516.635 282.369 524.936 284.436 534.399 279.651C541.008 276.314 541.418 248.353 535.643 245.438C532.196 243.698 526.478 244.404 522.834 245.023C513.684 246.558 503.166 247.941 493.914 247.941C492.113 247.941 483.042 250.324 481.514 248.775C479.989 247.224 481.106 239.739 481.106 237.506C481.106 235.919 479.816 225.874 480.688 224.993C486.195 219.431 502.842 223.769 510.436 222.49C513.204 222.021 517.115 223.189 518.703 219.987C520.066 217.229 518.168 210.952 517.917 208.299C517.69 206.24 518.287 197.85 515.849 196.618C508.846 193.082 497.815 194.527 489.823 194.527C483.426 194.527 476.007 197.921 477.84 188.689C478.628 184.659 478.107 177.564 480.728 174.917C487.643 167.942 507.942 170.039 517.501 168.657C522.299 167.967 531.065 170.405 534.021 167.41C535.312 166.099 534.431 156.818 534.431 154.885C534.407 150.429 530.757 137.448 526.618 137.088Z" fill="#1E9A64"/>
<path d="M226.964 326.347C220.67 325.551 166.252 328.539 165.315 330.399C164.111 332.782 164.529 338.281 164.173 341.355C163.868 344.089 161.695 355.896 163.387 357.605C168.241 362.428 184.173 358.742 191.159 358.742C192.993 358.742 199.869 359.107 201.175 360.402C203.165 362.38 202.19 366.616 202.19 369.706C202.19 378.447 203.165 387.846 202.19 396.538C200.884 408.235 201.402 420.265 201.402 432.065C201.402 433.655 202.544 442.648 201.402 443.776C200.09 445.088 194.402 444.158 192.655 444.158C185.33 444.158 170.296 441.775 164.883 447.177C161.311 450.729 161.46 457.006 161.46 462.274C161.46 466.86 159.705 473.526 161.838 477.769C163.882 481.845 174.497 482.306 178.193 482.306C195.417 482.306 212.733 483.244 229.93 481.924C240.157 481.13 250.559 482.306 260.748 482.306C263.95 482.306 270.361 483.004 273.336 481.551C278.96 478.753 275.067 460.891 274.476 456.228C274.249 454.432 274.263 448.839 272.95 447.536C271.762 446.35 266.569 446.74 264.579 446.74C257.286 446.74 250.157 447.114 242.897 447.114C241.59 447.114 234.784 448.123 233.769 447.114C233.116 446.47 233.769 441.696 233.769 440.693C233.769 432.812 234.557 425.072 234.557 417.263C234.557 404.088 235.343 390.706 235.343 377.572C235.343 376.246 234.557 366.265 235.343 365.861C240.065 363.476 255.421 364.135 260.858 364.135C262.518 364.135 266.412 364.661 267.324 363.762C269.292 361.801 268.112 352.528 268.112 349.398C268.112 346.265 269.976 334.244 267.734 332.011C263.431 327.863 232.425 326.997 226.964 326.347Z" fill="#FBC604"/>
<path d="M308.787 323.064C305.782 325.377 302.932 356.523 305.701 356.316C307.691 356.141 345.377 357.597 346.91 360.656C348.068 362.938 346.33 367.729 346.125 370.104C345.678 376.293 345.043 382.467 344.221 388.617C341.678 407.973 342.183 427.147 340.412 446.448C339.735 453.916 339.17 454.481 338.641 461.941C338.185 468.449 337.178 474.533 340.034 478.008C344.219 480.623 366.068 482.188 370.088 478.191C377.342 470.993 375.115 456.649 375.8 447.203C377.034 429.936 379.167 412.979 380.741 395.801C381.702 385.32 382.817 373.553 387.207 364.811C387.207 360.656 411.046 367.808 424.225 367.808C425.65 366.401 425.083 362.889 425.367 360.656C426.287 353.338 427.272 345.75 427.272 338.352C427.272 337.161 428.609 331.743 427.648 330.797C419.564 322.831 355.2 323.905 343.252 323.064C328.666 321.96 313.309 320.803 308.787 323.064Z" fill="#FBC604"/>
<path d="M308.787 323.064C305.782 325.377 302.932 356.523 305.701 356.316C307.691 356.141 345.377 357.597 346.91 360.656C348.068 362.938 346.33 367.729 346.125 370.104C345.678 376.293 345.043 382.467 344.221 388.617C341.678 407.973 342.183 427.147 340.412 446.448C339.735 453.916 339.17 454.481 338.641 461.941C338.185 468.449 337.178 474.533 340.034 478.008C344.219 480.623 366.068 482.188 370.088 478.191C377.342 470.993 375.115 456.649 375.8 447.203C377.034 429.936 379.167 412.979 380.741 395.801C381.702 385.32 382.817 373.553 387.207 364.811C387.207 360.656 411.046 367.808 424.225 367.808C425.65 366.401 425.083 362.889 425.367 360.656C426.287 353.338 427.272 345.75 427.272 338.352C427.272 337.161 428.609 331.743 427.648 330.797C419.564 322.831 355.2 323.905 343.252 323.064C328.666 321.96 313.309 320.803 308.787 323.064Z" stroke="#292524" stroke-width="0.612512" stroke-linecap="round" stroke-linejoin="round"/>
<path d="M318.344 138.629C317.383 141.282 319.84 152.549 320.507 155.259C323.325 166.621 325.644 178.056 328.163 189.489C330.074 198.173 331.664 206.89 334.173 215.432C339.461 233.389 343.063 251.617 348.382 269.527C349.585 273.563 350.97 282.899 353.575 285.538C353.897 285.863 357.509 285.983 357.949 286.094C363.131 287.446 368.451 288.187 373.802 288.303C378.735 288.303 389.379 287.793 394.258 286.293C398.71 284.925 407.246 259.022 410.189 245.825C416.774 216.266 434.303 140.876 434.743 139.311C436.182 134.139 404.258 133.176 402.187 137.874C395.311 153.525 385.665 222.003 378.146 237.196C377.744 237.989 356.902 137.078 354.637 134.798C353.133 133.304 320.396 133.014 318.344 138.629Z" fill="#1E9A64"/>
<path d="M78.7966 126.845C74.8731 137.803 73.6832 145.121 72.7385 148.235C69.896 157.277 67.5507 166.472 65.7135 175.776C60.4413 203.721 52.7872 232.579 54.9741 261.312C56.3268 279.125 66.0351 278.648 81.4156 281.756C95.0515 284.513 109.7 283.544 123.555 285.093C133.043 286.157 145.434 290.25 154.545 287.182C157.472 286.198 156.606 279.627 156.606 277.584C156.556 269.594 155.726 261.628 154.127 253.803C153.741 251.824 153.569 246.556 152.475 245.46C150.65 243.608 145.143 243.472 142.562 242.949C132.353 240.94 121.972 239.963 111.572 240.033C109.047 240.033 98.3941 240.955 97.1117 238.365C94.3741 232.803 97.7811 219.945 98.3559 214.161C100.251 194.98 101.21 175.672 103.313 156.578C103.972 150.549 103.926 143.657 105.381 137.801C105.578 137.009 106.547 133.552 106.169 133.209C101.479 128.434 85.2326 126.845 78.7966 126.845Z" stroke="#292524" stroke-width="0.612512" stroke-linecap="round" stroke-linejoin="round"/>
<path d="M222.073 281.216C211.901 280.207 144.628 213.264 144.885 182.396C145.052 163.563 140.544 155.125 163.699 135.371C178.591 122.657 204.05 136.167 214.269 145.866C217.543 148.966 220.248 153.456 222.522 157.453C223.884 159.836 225.521 165.319 225.521 165.319C225.955 162.792 226.58 160.303 227.392 157.873C229.055 153.639 230.933 149.493 233.018 145.454C239.862 132.884 252.442 123.881 266.06 127.243C288.978 132.925 305.5 151.128 302.425 175.187C296.894 218.142 241.641 283.147 222.073 281.216Z" stroke="#292524" stroke-width="0.612512" stroke-linecap="round" stroke-linejoin="round"/>
<path d="M526.618 137.088C508.406 135.499 477.737 132.32 455.921 142.975C450.116 145.821 448.842 162.492 448.054 168.657C446.072 183.683 445.567 198.526 445.567 213.725C445.567 228.925 443.915 243.968 443.915 259.207C443.915 263.425 442.341 272.278 444.333 276.314C447.479 282.631 461.949 282.394 467.88 282.988C480.569 284.275 493.646 284.69 506.305 283.411C516.635 282.369 524.936 284.436 534.399 279.651C541.008 276.314 541.418 248.353 535.643 245.438C532.196 243.698 526.478 244.404 522.834 245.023C513.684 246.558 503.166 247.941 493.914 247.941C492.113 247.941 483.042 250.324 481.514 248.775C479.989 247.224 481.106 239.739 481.106 237.506C481.106 235.919 479.816 225.874 480.688 224.993C486.195 219.431 502.842 223.769 510.436 222.49C513.204 222.021 517.115 223.189 518.703 219.987C520.066 217.229 518.168 210.952 517.917 208.299C517.69 206.24 518.287 197.85 515.849 196.618C508.846 193.082 497.815 194.527 489.823 194.527C483.426 194.527 476.007 197.921 477.84 188.689C478.628 184.659 478.107 177.564 480.728 174.917C487.643 167.942 507.942 170.039 517.501 168.657C522.299 167.967 531.065 170.405 534.021 167.41C535.312 166.099 534.431 156.818 534.431 154.885C534.407 150.429 530.757 137.448 526.618 137.088Z" stroke="#292524" stroke-width="0.612512" stroke-linecap="round" stroke-linejoin="round"/>
<path d="M226.964 326.347C220.67 325.551 166.252 328.539 165.315 330.399C164.111 332.782 164.529 338.281 164.173 341.355C163.868 344.089 161.695 355.896 163.387 357.605C168.241 362.428 184.173 358.742 191.159 358.742C192.993 358.742 199.869 359.107 201.175 360.402C203.165 362.38 202.19 366.616 202.19 369.706C202.19 378.447 203.165 387.846 202.19 396.538C200.884 408.235 201.402 420.265 201.402 432.065C201.402 433.655 202.544 442.648 201.402 443.776C200.09 445.088 194.402 444.158 192.655 444.158C185.33 444.158 170.296 441.775 164.883 447.177C161.311 450.729 161.46 457.006 161.46 462.274C161.46 466.86 159.705 473.526 161.838 477.769C163.882 481.845 174.497 482.306 178.193 482.306C195.417 482.306 212.733 483.244 229.93 481.924C240.157 481.13 250.559 482.306 260.748 482.306C263.95 482.306 270.361 483.004 273.336 481.551C278.96 478.753 275.067 460.891 274.476 456.228C274.249 454.432 274.263 448.839 272.95 447.536C271.762 446.35 266.569 446.74 264.579 446.74C257.286 446.74 250.157 447.114 242.897 447.114C241.59 447.114 234.784 448.123 233.769 447.114C233.116 446.47 233.769 441.696 233.769 440.693C233.769 432.812 234.557 425.072 234.557 417.263C234.557 404.088 235.343 390.706 235.343 377.572C235.343 376.246 234.557 366.265 235.343 365.861C240.065 363.476 255.421 364.135 260.858 364.135C262.518 364.135 266.412 364.661 267.324 363.762C269.292 361.801 268.112 352.528 268.112 349.398C268.112 346.265 269.976 334.244 267.734 332.011C263.431 327.863 232.425 326.997 226.964 326.347Z" stroke="#292524" stroke-width="0.612512" stroke-linecap="round" stroke-linejoin="round"/>
<path d="M318.344 138.629C317.383 141.282 319.84 152.549 320.507 155.259C323.325 166.621 325.644 178.056 328.163 189.489C330.074 198.173 331.664 206.89 334.173 215.432C339.461 233.389 343.063 251.617 348.382 269.527C349.585 273.563 350.97 282.899 353.575 285.538C353.897 285.863 357.509 285.983 357.949 286.094C363.131 287.446 368.451 288.187 373.802 288.303C378.735 288.303 389.379 287.793 394.258 286.293C398.71 284.925 407.246 259.022 410.189 245.825C416.774 216.266 434.303 140.876 434.743 139.311C436.182 134.139 404.258 133.176 402.187 137.874C395.311 153.525 385.665 222.003 378.146 237.196C377.744 237.989 356.902 137.078 354.637 134.798C353.133 133.304 320.396 133.014 318.344 138.629Z" stroke="#292524" stroke-width="0.612512" stroke-linecap="round" stroke-linejoin="round"/>
</svg>
