<svg width="602" height="615" viewBox="0 0 602 615" fill="none" xmlns="http://www.w3.org/2000/svg">
<path d="M305.055 164.453C276.92 165.75 262.048 153.696 242.768 142.171C206.484 120.503 151.577 123.869 120.544 154.397C103.439 171.203 97.9633 190.867 99.3017 213.206C100.546 233.8 108.643 253.97 100.343 274.271C90.8557 297.45 63.0352 312.821 59.4152 338.049C56.9029 355.642 58.3557 376.525 70.2914 391.428C78.4184 401.564 88.7186 408.173 103.421 409.526C124.766 411.484 147.709 400.684 165.062 417.211C169.585 421.518 170.701 427.273 172.832 432.595C181.108 453.234 184.661 495.273 217.404 498.631C270.372 504.078 277.817 435.05 328.774 438.472C369.658 441.221 383.032 488.225 417.352 473.754C437.102 465.425 442.365 441.881 455.449 433.634C466.965 426.369 504.087 445.473 526.649 420.381C542.111 403.15 548.598 372.335 539.598 350.72C532.226 333.01 507.863 316.796 514.21 295.954C518.994 280.3 536.099 269.669 540.634 254.796C542.021 250.259 541.768 245.356 541.154 240.772C540.201 233.677 537.275 229.222 531.829 224.036C521.227 213.931 509.729 207.913 494.009 205.489C477.035 202.874 473.184 198.179 463.54 183.751C452.788 167.659 465.063 142.171 440.144 125.423C425.572 115.628 402.337 100.726 360.698 142.171C350.729 153.229 330.857 163.259 305.055 164.453Z" fill="#FB8CAC"/>
<path d="M204.812 347.274C202.93 346.556 202.922 333.852 202.922 332.452C202.922 323.945 202.326 315.466 201.989 306.979C201.68 298.773 201.287 290.651 201.062 282.436C200.893 276.762 200.528 270.958 200.135 265.306C199.764 259.882 199.075 254.466 198.281 249.093C196.174 234.817 191.743 192.472 167.651 198.626C148.507 203.511 142.927 227.457 139.816 243.542C132.618 280.63 126.073 319.955 134.24 357.454C136.662 368.565 139.604 383.479 150.482 389.405C161.358 395.33 175.515 396.099 187.607 396.808C214.356 398.38 262.366 407.605 272.997 373.659C277.006 360.847 273.545 338.571 257.682 335.687C245.211 333.428 233.377 338.37 221.945 342.145C219.152 343.098 213.208 347.274 204.812 347.274Z" fill="#FBC604"/>
<path fill-rule="evenodd" clip-rule="evenodd" d="M251.042 335.119C248.231 327.852 246.35 320.353 245.612 312.997C244.574 302.665 244.621 292.288 244.665 281.897C244.675 279.763 244.685 277.629 244.685 275.493C244.685 238.763 257.648 185.656 302.694 185.656C308.72 185.656 313.558 187.22 318.936 189.358C325.319 191.91 333.472 195.506 338.886 200.01C351.981 210.899 358.639 231.166 362.556 246.782C372.291 285.65 376.174 342.509 347.236 371.349C322.325 396.174 294.29 389.233 273.93 369.793C276.24 356.806 272.044 338.299 257.682 335.687C255.49 335.294 253.268 335.104 251.042 335.119ZM323.039 268.9C322.985 266.317 322.945 263.734 322.919 261.151C322.84 252.145 316.12 228.378 302.694 233.863C297.996 235.743 293.039 238.367 290.168 242.666C279.689 258.283 280.672 284.437 285.055 301.942C286.817 308.936 291.753 321.405 300.833 322.309C309.759 323.198 317.687 314.711 319.865 306.526C323.493 292.75 323.288 281.997 323.039 268.9Z" fill="#F7F2EC"/>
<path d="M363.128 345.4C363.879 355.06 365.839 365.455 373.358 371.369C382.984 378.942 396.593 382.056 408.312 384.74L408.728 384.834C412.049 385.596 415.687 386.539 419.544 387.536C446.01 394.385 482.689 403.878 496.786 376.226C502.88 364.26 503.183 341.72 488.023 336.241C477.51 332.45 466.58 334.256 455.991 336.005C454.554 336.243 453.125 336.478 451.704 336.7C451.03 336.796 450.203 336.964 449.216 337.165C445.945 337.829 440.923 338.85 433.951 338.85C431.074 337.149 436.673 308.658 436.947 306.37C437.256 303.795 437.565 301.22 437.899 298.65C438.232 296.083 438.561 293.525 438.888 290.97C439.6 285.417 440.311 279.876 441.079 274.294C441.86 268.677 442.484 262.924 443.026 257.25C443.565 251.84 443.79 246.389 443.894 240.959C443.913 240.104 443.939 239.153 443.967 238.115C444.414 221.652 445.436 184.157 422.126 186.101C402.465 187.743 392.935 210.426 387.184 225.764C380.287 244.112 373.465 263.09 368.747 282.461C370.818 303.908 369.899 326.511 363.128 345.4Z" fill="#FBC604"/>
</svg>
