<svg width="608" height="611" viewBox="0 0 608 611" fill="none" xmlns="http://www.w3.org/2000/svg">
<path d="M569.897 431.561C568.784 418.107 567.641 220.063 557.311 209.707C538.962 191.243 497.143 189.904 473.334 188.047C447.141 186.031 306.444 189.147 291.36 193.473C272.293 198.935 255.366 204.532 245.067 222.691C231.326 246.856 227.501 282.856 225.677 310.333C224.024 335.335 225.677 359.151 227.842 383.921C229.605 403.498 223.799 444.881 236.451 461.818C248.824 478.425 273.46 484.816 292.436 486.704C339.221 491.408 388.901 489.252 435.65 484.547C446.685 483.435 478.131 472.889 488.412 478.046C511.808 489.802 523.22 529.26 541.181 547.309C543.625 549.783 559.305 566.335 562.71 564.618C568.899 561.515 567.185 546.325 568.091 540.826C572.699 513.062 569.897 459.588 569.897 431.561Z" fill="#FB8CAC"/>
<path d="M468.938 187.802C469.467 137.768 468.647 95.5903 464.378 84.8734C451.082 51.4517 411.391 54.0423 381.326 56.0097C378.419 56.193 375.598 56.3825 372.899 56.5291C368.521 56.7735 364.144 56.9873 359.784 57.2012C350.358 57.617 340.939 58.1792 331.53 58.8876C321.705 59.6696 312.074 59.6696 302.164 59.6635H300.261C281.869 59.6635 263.836 59.8346 245.517 61.2521L240.002 61.6798C215.105 63.6045 189.897 65.5536 164.975 66.7511C157.752 67.1055 150.821 67.1788 144.133 67.2583C115.076 67.5943 90.4949 67.8754 65.6885 90.3174C46.0745 108.036 46.7372 130.772 47.4364 154.637C47.558 159.098 47.6917 163.601 47.6917 168.116C47.6917 183.501 47.1081 198.917 46.5244 214.356C45.9346 229.833 45.3449 245.334 45.3449 260.829C45.3449 282.141 46.3541 303.336 47.3634 324.587C47.4729 326.909 47.5884 329.218 47.6917 331.54C48.0687 339.269 46.6581 398.61 46.1353 403.046C45.205 410.97 43.4297 418.822 41.6543 426.648C40.7666 430.571 39.8789 434.488 39.1007 438.404C39.0399 438.697 38.8271 439.4 38.5413 440.329C37.5685 443.488 35.8053 449.249 36.7477 450.196C40.4748 453.942 51.9781 445.913 57.2373 442.241C58.2101 441.557 58.9701 441.025 59.4261 440.75C68.3881 435.343 76.1157 427.663 83.8677 419.958C92.7749 411.099 101.713 402.208 112.59 396.74C114.444 395.811 149.866 395.494 197.649 395.066L228.213 394.785C228.213 390.734 228.122 387.05 227.842 383.921C225.678 359.145 224.024 335.335 225.678 310.332C227.502 282.856 231.32 246.856 245.067 222.691C255.372 204.526 272.293 198.935 291.36 193.473C305.739 189.348 434.264 186.324 468.938 187.802Z" fill="#1E9A64"/>
<path d="M325.809 330.941C302.553 328.161 295.366 374.109 315.807 379.98C344.317 388.162 352.348 330.941 325.809 330.941Z" fill="#292524"/>
<path d="M387.862 330.954C367.84 330.954 372.199 368.298 383.97 376.852C401.773 389.622 413.829 368.537 409.525 352.748C403.578 330.954 400.52 330.954 387.862 330.954Z" fill="#292524"/>
<path d="M474.35 331.345C458.207 313.95 431.303 362.903 447.288 379.156C457.514 389.543 468.568 381.154 474.35 371.732C482.339 358.681 486.157 343.204 474.35 331.345Z" fill="#292524"/>
</svg>
