<svg width="608" height="615" viewBox="0 0 608 615" fill="none" xmlns="http://www.w3.org/2000/svg">
<path d="M117.37 249.887C112.599 271.279 101.138 332.324 99.509 354.232C99.4016 355.688 99.0874 357.613 98.7388 359.747C97.8147 365.425 96.6473 372.59 98.4652 376.354C100.999 381.587 111.199 383.748 118.023 385.191C119.526 385.511 120.868 385.794 121.924 386.069C141.116 391.052 161.574 388.596 180.837 385.523C189.673 384.119 200.956 382.145 207.944 375.815C217.656 367.018 228.2 356.891 226.194 342.361C225.132 334.657 218.922 326.867 213.158 322.392C210.39 320.247 203.258 319.155 203.258 319.155C203.258 319.155 209.529 318.611 212.115 316.998C213.349 316.231 214.611 315.501 215.876 314.772C220.981 311.822 226.084 308.874 229.321 303.505C238.105 288.958 243.753 265.559 230.884 252.247C211.62 232.31 167.72 235.408 143.822 240.918C141.39 241.476 138.993 241.917 136.668 242.345C128.965 243.762 122.058 245.031 117.37 249.887Z" fill="#2953A7"/>
<path d="M225.487 247.663C226.855 243.165 228.519 238.791 230.807 234.73C238.332 234.73 266.197 235.908 272.052 241.999C274.285 244.311 269.452 254.981 267.257 259.822C266.799 260.832 266.456 261.591 266.318 261.964C264.91 265.707 263.461 269.435 261.973 273.147C255.711 288.938 249.112 305.578 249.112 322.396C249.112 330.879 252.884 343.236 263.71 340.743C272.583 338.706 276.425 332.461 280.921 325.157L281.956 323.48C288.533 312.894 294.518 303.13 297.075 290.563C298.848 281.851 299.011 272.691 299.175 263.555C299.351 253.624 299.527 243.721 301.769 234.445C302.539 231.259 309.955 232.071 312.194 232.288C314.211 232.477 316.564 232.581 319.091 232.694C328.002 233.09 339.06 233.579 345.038 238.219C351.049 242.897 348.85 258.891 347.616 267.868C347.409 269.36 347.231 270.658 347.122 271.679C346.819 274.519 346.524 277.361 346.234 280.203C343.577 306.158 341.214 329.237 327.832 353.154C327.218 354.253 326.602 355.403 325.971 356.577C322.666 362.75 318.996 369.605 313.238 373.119C288.48 388.24 240.772 387.815 220.153 363.109C224.525 357.207 227.315 350.47 226.195 342.361C225.133 334.657 218.923 326.867 213.159 322.392C212.356 321.77 211.189 321.237 209.935 320.795C209.993 319.819 210.064 318.839 210.143 317.861C210.899 317.615 211.584 317.33 212.115 316.998C213.35 316.231 214.614 315.502 215.877 314.772C220.982 311.822 226.085 308.874 229.322 303.505C238.105 288.958 243.756 265.559 230.884 252.247C229.234 250.548 227.427 249.013 225.487 247.663Z" fill="#1E9A64"/>
<path d="M438.165 225.951C441.833 226.968 447.514 228.545 447.514 230.681C447.514 238.946 444.845 261.814 435.24 264.62C426.027 267.345 417.161 263.696 408.413 260.094C402.729 257.755 397.095 255.436 391.448 254.899C386.086 254.397 375.835 257.441 374.769 264.075C373.089 274.516 387.553 278.388 398.258 281.254C401.896 282.228 405.102 283.085 407.09 284.046C414.167 287.462 421.273 292.601 427.12 298.04C439.707 309.761 435.769 330.075 432.693 339.191C421.054 373.683 370.071 370.892 344.537 366.715C343.021 366.467 341.436 366.231 339.807 365.989C334.296 365.173 328.273 364.279 322.647 362.551C323.803 360.587 324.911 358.596 325.971 356.577L325.973 356.573C326.601 355.401 327.217 354.251 327.831 353.154C334.231 341.715 338.11 330.466 340.707 319.005L341.874 319.372C342.818 319.669 343.714 319.952 344.537 320.196C353.706 322.91 363.199 324.351 372.687 325.052C378.536 325.487 390.413 325.573 391.975 317.5C392.843 313.021 386.211 310.625 378.301 307.767C373.279 305.953 367.742 303.952 363.28 301.115C360.136 299.114 356.703 297.449 353.296 295.795C350.465 294.421 347.652 293.056 345.04 291.516C345.455 287.8 345.842 284.032 346.233 280.203C346.521 277.396 346.813 274.557 347.121 271.679C347.23 270.658 347.409 269.36 347.613 267.868C348.85 258.891 351.049 242.897 345.038 238.219C344.472 237.783 343.876 237.387 343.256 237.036C353.231 225.537 371.216 221.464 408.659 221.464C417.209 221.464 427.572 222.415 435.769 225.244C436.313 225.439 437.164 225.675 438.165 225.951Z" fill="#D55816"/>
<path d="M437.306 263.651C455.104 285.18 481.799 314.759 483.244 316.262C483.974 317.018 484.521 329.644 485.137 343.904C485.94 362.416 486.86 383.684 488.455 385.332C491.59 388.557 516.461 387.104 517.124 386.411C517.738 385.769 518.358 378.391 519.185 368.537C520.695 350.542 522.896 324.29 527.032 315.723C527.756 314.226 531.071 309.601 535.469 303.462C545.061 290.077 559.803 269.503 564.047 258.526C564.254 257.984 565.03 256.42 566.046 254.372C568.976 248.464 573.907 238.528 572.91 237.478C564.424 228.715 535.546 225.877 532.808 228.719C527.75 233.952 520.178 249.83 514.051 262.677C509.056 273.15 505.023 281.609 504.092 280.647C502.872 279.382 498.639 273.784 493.282 266.699C481.763 251.47 465.053 229.375 461.934 228.719C458.859 228.073 452.5 227.905 445.72 228.622C446.803 229.239 447.514 229.924 447.514 230.681C447.514 238.319 445.234 258.433 437.306 263.651Z" fill="#FB8CAC"/>
<path d="M149.945 182.229C153.191 183.316 160.702 185.821 161.908 184.749C166.217 180.913 170.086 173.97 174.032 166.893C179.246 157.537 184.591 147.951 191.246 144.999C195.952 144.999 206.703 158.115 216.652 170.249C224.419 179.724 231.696 188.6 235.223 190.169C241.801 193.067 252.703 185.413 263.458 177.861C274.901 169.827 286.175 161.912 291.892 166.95C295.338 170.021 291.542 187.233 289.86 194.851V194.857C289.572 196.163 289.345 197.186 289.229 197.809C289.207 197.924 289.146 198.166 289.065 198.492C288.642 200.175 287.649 204.113 288.565 204.929C289.884 206.099 294.967 204.156 297.713 203.104C298.39 202.846 298.925 202.641 299.227 202.551C299.931 202.339 300.633 202.123 301.335 201.903L301.343 201.901C309.072 199.498 328.877 193.344 333.228 197.215C334.884 198.711 333.103 208.674 332.563 210.269C329.517 219.301 326.242 226.011 321.522 232.805L319.094 232.694H319.09C316.563 232.581 314.21 232.477 312.193 232.288L312.015 232.272C309.585 232.032 302.52 231.339 301.768 234.445C299.527 243.721 299.35 253.624 299.174 263.555C299.01 272.691 298.848 281.851 297.075 290.563C294.517 303.13 288.532 312.894 281.956 323.48C281.605 324.044 281.26 324.604 280.92 325.157C276.425 332.461 272.582 338.706 263.71 340.743C252.883 343.236 249.111 330.879 249.111 322.396C249.111 305.578 255.71 288.938 261.973 273.147C263.472 269.366 264.952 265.635 266.318 261.964C266.456 261.591 266.798 260.832 267.256 259.822C269.451 254.982 274.285 244.311 272.051 241.999C266.196 235.908 238.332 234.73 230.807 234.73C228.519 238.791 226.855 243.165 225.487 247.663C226.269 248.212 227.027 248.784 227.761 249.383C228.857 250.274 229.9 251.23 230.884 252.247C243.753 265.56 238.105 288.958 229.321 303.505C226.084 308.874 220.981 311.822 215.876 314.772C214.612 315.502 213.349 316.231 212.115 316.998C211.59 317.326 210.911 317.609 210.165 317.853L210.143 317.861C210.063 318.838 209.994 319.816 209.934 320.795C206.857 319.706 203.258 319.155 203.258 319.155C203.258 319.155 207.241 318.81 210.165 317.853C210.911 317.609 211.59 317.326 212.115 316.998C213.349 316.231 214.612 315.502 215.876 314.772C220.981 311.822 226.084 308.874 229.321 303.505C238.105 288.958 243.753 265.56 230.884 252.247C229.9 251.23 228.857 250.274 227.761 249.383C207.21 232.63 166.505 235.689 143.822 240.919C141.39 241.476 138.993 241.917 136.668 242.345C128.965 243.762 122.056 245.031 117.368 249.887C112.599 271.279 101.138 332.324 99.509 354.232C99.4016 355.686 99.0875 357.613 98.7389 359.747C97.8147 365.425 96.6474 372.59 98.4653 376.354C100.999 381.587 111.201 383.748 118.023 385.191C119.526 385.511 120.868 385.794 121.926 386.069C141.116 391.052 161.574 388.596 180.837 385.523C189.673 384.119 200.956 382.145 207.944 375.815C212.834 371.385 217.935 366.618 221.539 361.122C221.099 361.795 220.635 362.457 220.152 363.109C238.751 385.392 279.386 387.922 305.339 377.11C311.138 388.931 315.91 401.932 319.897 413.762L320.053 414.203C320.898 416.583 324.538 426.823 323.231 428.002C321.948 429.141 316.247 426.929 313.069 425.697C312.244 425.378 311.592 425.123 311.229 425.013C302.873 422.534 294.63 418.602 286.451 414.701C281.358 412.272 276.283 409.853 271.222 407.803C269.824 407.239 255.062 401.569 253.892 403.652C251.856 407.274 250.569 413.941 249.152 421.278C246.613 434.432 243.656 449.738 235.223 453.491C232.882 454.537 227.647 449.766 225.675 447.971L225.673 447.969L225.669 447.964L225.219 447.556C222.847 445.428 220.509 443.261 218.205 441.058C211.476 434.689 205.329 428.869 195.885 423.826C195.455 423.596 194.481 422.891 193.263 422.005C190.065 419.685 185.17 416.136 183.883 416.706C177.337 419.619 171.069 423.416 164.743 427.243C156.564 432.196 148.293 437.204 139.197 440.437C138.723 440.607 136.644 441.786 134.193 443.174C130.012 445.543 124.749 448.526 124.532 448.155C121.683 443.087 120.864 436.985 120.045 430.884C119.326 425.523 118.606 420.166 116.511 415.521C116.292 415.035 116.043 414.279 115.757 413.414C114.968 411.03 113.909 407.825 112.5 407.215C110.295 406.231 105.437 406.645 101.659 406.966C100.121 407.098 98.7612 407.215 97.833 407.215C86.587 407.215 75.2519 407.948 64.0262 408.676L59.1622 408.988C58.6433 409.023 57.5874 409.154 56.2073 409.326L56.1911 409.328C50.6258 410.025 39.8359 411.374 37.8295 409.586C37.0756 408.916 40.4844 402.739 42.7137 398.699C43.6217 397.055 44.3351 395.763 44.4911 395.341C48.7816 383.881 56.2924 374.222 64.4963 364.49C64.7314 364.212 65.2016 363.728 65.8035 363.109C68.4321 360.401 73.5657 355.114 72.5179 353.22C71.1013 350.696 66.9446 349.614 63.4526 348.703C62.4667 348.46 61.4887 348.185 60.52 347.879C54.6386 345.915 48.8991 343.63 43.1596 341.344C37.4383 339.064 31.717 336.787 25.8498 334.825C23.5577 334.066 12.5002 325.292 11.1991 322.976C11.1991 317.98 25.2641 311.838 39.39 305.668C56.645 298.132 73.9852 290.557 65.8725 284.989C60.9233 281.562 52.7802 278.682 44.785 275.855C37.87 273.409 31.0645 271.002 26.5369 268.315C24.5508 267.13 22.366 266.154 20.2745 265.221C14.4559 262.626 9.35075 260.348 11.1991 254.727C12.9339 249.451 21.4885 248.684 25.1162 248.358C25.7769 248.299 26.2714 248.253 26.5349 248.2C35.0225 246.458 45.2653 246.681 54.6812 246.888C57.63 246.952 60.4957 247.013 63.2013 247.013C56.6592 233.073 49.0673 223.196 43.3866 215.808C36.8648 207.323 32.8641 202.118 35.8677 197.809C38.8185 193.576 48.6579 197.051 58.7811 200.624C67.9518 203.863 77.3555 207.182 82.0797 204.929C81.4393 199.215 85.6264 154.495 93.5344 154.495C96.5258 154.495 113.408 163.521 127.775 171.202C137.752 176.536 146.516 181.22 148.569 181.784C148.783 181.842 149.272 182.006 149.945 182.229Z" fill="#FBC604"/>
<path d="M152.168 326.5C154.579 326.452 156.89 326.409 158.764 326.147C162.623 325.606 166.535 325.056 170.412 325.632C183.417 327.553 185.012 343.838 178.229 352.612C171.447 361.384 157.846 362.86 147.991 362.86C147.371 362.86 146.538 362.924 145.595 362.994C142.332 363.24 137.742 363.582 136.005 361.782C134.392 358.002 142.121 327.141 142.286 327.328C145.153 326.637 148.763 326.565 152.168 326.5Z" fill="#FBC604"/>
<path d="M147.186 261.908C149.973 260.328 155.962 260.328 159.968 260.328C168.109 260.328 203.467 261.498 194.91 279.214C187.685 294.177 158.657 294.761 144.864 290.003C141.451 288.847 143.903 275.516 144.985 269.639C145.174 268.614 145.322 267.814 145.389 267.347C145.628 265.604 146.55 263.403 147.186 261.908Z" fill="#FBC604"/>
<path d="M117.37 249.887C112.599 271.279 101.138 332.324 99.509 354.232C99.4016 355.688 99.0874 357.613 98.7388 359.747C97.8147 365.425 96.6473 372.59 98.4652 376.354C100.999 381.587 111.199 383.748 118.023 385.191C119.526 385.511 120.868 385.794 121.924 386.069C141.116 391.052 161.574 388.596 180.837 385.523C189.673 384.119 200.956 382.145 207.944 375.815C217.656 367.018 228.2 356.891 226.194 342.361C225.132 334.657 218.922 326.867 213.158 322.392C210.39 320.247 203.258 319.155 203.258 319.155C203.258 319.155 209.529 318.611 212.115 316.998C213.349 316.231 214.611 315.501 215.876 314.772C220.981 311.822 226.084 308.874 229.321 303.505C238.105 288.958 243.753 265.559 230.884 252.247C211.62 232.31 167.72 235.408 143.822 240.918C141.39 241.476 138.993 241.917 136.668 242.345C128.965 243.762 122.058 245.031 117.37 249.887Z" stroke="#292524" stroke-width="0.612512" stroke-linecap="round" stroke-linejoin="round"/>
<path d="M225.487 247.663C226.855 243.165 228.519 238.791 230.807 234.73C238.332 234.73 266.197 235.908 272.052 241.999C274.285 244.311 269.452 254.981 267.257 259.822C266.799 260.832 266.456 261.591 266.318 261.964C264.91 265.707 263.461 269.435 261.973 273.147C255.711 288.938 249.112 305.578 249.112 322.396C249.112 330.879 252.884 343.236 263.71 340.743C272.583 338.706 276.425 332.461 280.921 325.157L281.956 323.48C288.533 312.894 294.518 303.13 297.075 290.563C298.848 281.851 299.011 272.691 299.175 263.555C299.351 253.624 299.527 243.721 301.769 234.445C302.539 231.259 309.955 232.071 312.194 232.288C314.211 232.477 316.564 232.581 319.091 232.694C328.002 233.09 339.06 233.579 345.038 238.219C351.049 242.897 348.85 258.891 347.616 267.868C347.409 269.36 347.231 270.658 347.122 271.679C346.819 274.519 346.524 277.361 346.234 280.203C343.577 306.158 341.214 329.237 327.832 353.154C327.218 354.253 326.602 355.403 325.971 356.577C322.666 362.75 318.996 369.605 313.238 373.119C288.48 388.24 240.772 387.815 220.153 363.109C224.525 357.207 227.315 350.47 226.195 342.361C225.133 334.657 218.923 326.867 213.159 322.392C212.356 321.77 211.189 321.237 209.935 320.795C209.993 319.819 210.064 318.839 210.143 317.861C210.899 317.615 211.584 317.33 212.115 316.998C213.35 316.231 214.614 315.502 215.877 314.772C220.982 311.822 226.085 308.874 229.322 303.505C238.105 288.958 243.756 265.559 230.884 252.247C229.234 250.548 227.427 249.013 225.487 247.663Z" stroke="#292524" stroke-width="0.612512" stroke-linecap="round" stroke-linejoin="round"/>
<path d="M438.165 225.951C441.833 226.968 447.514 228.545 447.514 230.681C447.514 238.946 444.845 261.814 435.24 264.62C426.027 267.345 417.161 263.696 408.413 260.094C402.729 257.755 397.095 255.436 391.448 254.899C386.086 254.397 375.835 257.441 374.769 264.075C373.089 274.516 387.553 278.388 398.258 281.254C401.896 282.228 405.102 283.085 407.09 284.046C414.167 287.462 421.273 292.601 427.12 298.04C439.707 309.761 435.769 330.075 432.693 339.191C421.054 373.683 370.071 370.892 344.537 366.715C343.021 366.467 341.436 366.231 339.807 365.989C334.296 365.173 328.273 364.279 322.647 362.551C323.803 360.587 324.911 358.596 325.971 356.577L325.973 356.573C326.601 355.401 327.217 354.251 327.831 353.154C334.231 341.715 338.11 330.466 340.707 319.005L341.874 319.372C342.818 319.669 343.714 319.952 344.537 320.196C353.706 322.91 363.199 324.351 372.687 325.052C378.536 325.487 390.413 325.573 391.975 317.5C392.843 313.021 386.211 310.625 378.301 307.767C373.279 305.953 367.742 303.952 363.28 301.115C360.136 299.114 356.703 297.449 353.296 295.795C350.465 294.421 347.652 293.056 345.04 291.516C345.455 287.8 345.842 284.032 346.233 280.203C346.521 277.396 346.813 274.557 347.121 271.679C347.23 270.658 347.409 269.36 347.613 267.868C348.85 258.891 351.049 242.897 345.038 238.219C344.472 237.783 343.876 237.387 343.256 237.036C353.231 225.537 371.216 221.464 408.659 221.464C417.209 221.464 427.572 222.415 435.769 225.244C436.313 225.439 437.164 225.675 438.165 225.951Z" stroke="#292524" stroke-width="0.612512" stroke-linecap="round" stroke-linejoin="round"/>
<path d="M437.306 263.651C455.104 285.18 481.799 314.759 483.244 316.262C483.974 317.018 484.521 329.644 485.137 343.904C485.94 362.416 486.86 383.684 488.455 385.332C491.59 388.557 516.461 387.104 517.124 386.411C517.738 385.769 518.358 378.391 519.185 368.537C520.695 350.542 522.896 324.29 527.032 315.723C527.756 314.226 531.071 309.601 535.469 303.462C545.061 290.077 559.803 269.503 564.047 258.526C564.254 257.984 565.03 256.42 566.046 254.372C568.976 248.464 573.907 238.528 572.91 237.478C564.424 228.715 535.546 225.877 532.808 228.719C527.75 233.952 520.178 249.83 514.051 262.677C509.056 273.15 505.023 281.609 504.092 280.647C502.872 279.382 498.639 273.784 493.282 266.699C481.763 251.47 465.053 229.375 461.934 228.719C458.859 228.073 452.5 227.905 445.72 228.622C446.803 229.239 447.514 229.924 447.514 230.681C447.514 238.319 445.234 258.433 437.306 263.651Z" stroke="#292524" stroke-width="0.612512" stroke-linecap="round" stroke-linejoin="round"/>
<path d="M226.194 342.361C227.315 350.471 224.524 357.207 220.152 363.109C238.751 385.392 279.386 387.922 305.339 377.11C311.138 388.931 315.91 401.932 319.897 413.762L320.053 414.203C320.898 416.583 324.538 426.823 323.231 428.002C321.948 429.141 316.245 426.929 313.069 425.697C312.244 425.378 311.592 425.123 311.229 425.013C302.873 422.534 294.63 418.602 286.451 414.701C281.356 412.272 276.285 409.853 271.222 407.803C269.824 407.239 255.062 401.569 253.892 403.652C251.856 407.274 250.569 413.941 249.152 421.278C246.613 434.432 243.656 449.738 235.223 453.491C232.882 454.537 227.647 449.766 225.675 447.971L225.673 447.969L225.219 447.556C222.847 445.428 220.509 443.261 218.205 441.058C211.476 434.689 205.329 428.869 195.885 423.826C195.453 423.596 194.481 422.889 193.261 422.005C190.063 419.685 185.17 416.136 183.883 416.706C177.337 419.619 171.069 423.416 164.743 427.243C156.564 432.196 148.293 437.204 139.197 440.437C138.723 440.607 136.644 441.786 134.193 443.174C130.012 445.543 124.749 448.526 124.532 448.155C121.683 443.087 120.864 436.985 120.045 430.884C119.326 425.523 118.606 420.166 116.511 415.521C116.292 415.035 116.043 414.279 115.757 413.414C114.968 411.03 113.909 407.825 112.5 407.215C110.295 406.231 105.437 406.645 101.659 406.966C100.121 407.098 98.7612 407.215 97.833 407.215C86.587 407.215 75.2519 407.948 64.0262 408.676L59.1622 408.988C58.6413 409.023 57.5773 409.156 56.1911 409.328C50.6258 410.025 39.8359 411.374 37.8295 409.586C37.0756 408.916 40.4844 402.739 42.7137 398.699C43.6217 397.055 44.3351 395.763 44.4911 395.341C48.7816 383.881 56.2924 374.222 64.4963 364.49C64.7314 364.212 65.2016 363.728 65.8035 363.109C68.4321 360.401 73.5657 355.114 72.5179 353.22C71.1013 350.696 66.9446 349.614 63.4526 348.703C62.4667 348.46 61.4887 348.185 60.52 347.879C54.6386 345.915 48.8991 343.63 43.1576 341.344C37.4383 339.064 31.717 336.787 25.8498 334.825C23.5577 334.066 12.5002 325.292 11.1991 322.976C11.1991 317.98 25.2641 311.838 39.39 305.668C56.645 298.132 73.9852 290.557 65.8725 284.989C60.9233 281.562 52.7802 278.682 44.785 275.855C37.87 273.409 31.0645 271.002 26.5369 268.315C24.5508 267.13 22.366 266.154 20.2745 265.221C14.4559 262.626 9.35075 260.348 11.1991 254.727C12.9339 249.451 21.4885 248.684 25.1162 248.358C25.7769 248.299 26.2714 248.253 26.5349 248.2C35.0225 246.458 45.2653 246.681 54.6812 246.888C57.628 246.952 60.4957 247.013 63.2013 247.013C56.6592 233.073 49.0673 223.196 43.3866 215.808C36.8648 207.323 32.8641 202.118 35.8677 197.809C38.8185 193.576 48.6579 197.051 58.7811 200.624C67.9518 203.863 77.3555 207.182 82.0797 204.929C81.4393 199.215 85.6264 154.495 93.5344 154.495C96.5258 154.495 113.408 163.521 127.775 171.202C137.752 176.536 146.516 181.22 148.569 181.784C148.783 181.842 149.274 182.006 149.947 182.229C153.191 183.316 160.702 185.821 161.908 184.749C166.217 180.913 170.086 173.97 174.032 166.893C179.246 157.537 184.591 147.951 191.246 144.999C195.952 144.999 206.703 158.115 216.652 170.249C224.419 179.724 231.696 188.6 235.223 190.169C241.801 193.067 252.703 185.413 263.458 177.861C274.901 169.827 286.175 161.912 291.892 166.95C295.338 170.021 291.542 187.233 289.86 194.851C289.572 196.161 289.345 197.186 289.229 197.807C289.207 197.924 289.146 198.168 289.065 198.494C288.642 200.175 287.649 204.113 288.565 204.927C289.884 206.099 294.967 204.156 297.713 203.104C298.39 202.846 298.925 202.641 299.227 202.551C299.752 202.395 300.471 202.171 301.343 201.901C309.072 199.498 328.877 193.344 333.228 197.215C334.884 198.711 333.103 208.674 332.563 210.269C329.517 219.301 326.242 226.011 321.522 232.805L319.09 232.694C316.563 232.581 314.21 232.477 312.193 232.288L312.015 232.272C309.585 232.032 302.52 231.339 301.768 234.445C299.527 243.721 299.35 253.624 299.174 263.555C299.01 272.691 298.848 281.851 297.075 290.563C294.517 303.13 288.532 312.894 281.956 323.48C281.605 324.044 281.26 324.604 280.92 325.157C276.425 332.461 272.582 338.706 263.71 340.743C252.883 343.236 249.111 330.879 249.111 322.396C249.111 305.578 255.71 288.938 261.973 273.147C263.472 269.366 264.952 265.635 266.318 261.964C266.456 261.591 266.798 260.832 267.256 259.822C269.451 254.982 274.285 244.311 272.051 241.999C266.196 235.908 238.332 234.73 230.807 234.73C228.519 238.791 226.855 243.165 225.487 247.663C227.426 249.013 229.234 250.548 230.884 252.247M226.194 342.361C225.132 334.657 218.922 326.867 213.158 322.392C212.558 321.948 211.906 321.581 211.217 321.297M226.194 342.361C228.2 356.891 217.656 367.018 207.944 375.815C200.956 382.145 189.675 384.119 180.837 385.523C161.574 388.596 141.114 391.052 121.924 386.069C120.868 385.794 119.528 385.511 118.025 385.191C111.201 383.748 100.999 381.587 98.4653 376.354C96.6474 372.59 97.8168 365.425 98.7389 359.747C99.0875 357.613 99.4016 355.686 99.509 354.232C101.138 332.324 112.599 271.279 117.37 249.887C122.056 245.031 128.963 243.762 136.666 242.345C138.993 241.917 141.39 241.476 143.82 240.919C167.721 235.408 211.62 232.311 230.884 252.247M230.884 252.247C243.753 265.56 238.105 288.958 229.321 303.505C226.084 308.874 220.981 311.822 215.876 314.772C214.612 315.502 213.349 316.231 212.115 316.998M212.115 316.998C209.529 318.611 203.258 319.155 203.258 319.155C203.258 319.155 206.857 319.706 209.934 320.795C209.993 319.819 210.064 318.839 210.143 317.861C210.899 317.615 211.584 317.33 212.115 316.998Z" stroke="#292524" stroke-width="0.612512" stroke-linecap="round" stroke-linejoin="round"/>
<path d="M152.168 326.5C154.579 326.452 156.89 326.409 158.764 326.147C162.623 325.606 166.535 325.056 170.412 325.632C183.417 327.553 185.012 343.838 178.229 352.612C171.447 361.384 157.846 362.86 147.991 362.86C147.371 362.86 146.538 362.924 145.595 362.994C142.332 363.24 137.742 363.582 136.005 361.782C134.392 358.002 142.121 327.141 142.286 327.328C145.153 326.637 148.763 326.565 152.168 326.5Z" stroke="#292524" stroke-width="0.612512" stroke-linecap="round" stroke-linejoin="round"/>
<path d="M147.186 261.908C149.973 260.328 155.962 260.328 159.968 260.328C168.109 260.328 203.467 261.498 194.91 279.214C187.685 294.177 158.657 294.761 144.864 290.003C141.451 288.847 143.903 275.516 144.985 269.639C145.174 268.614 145.322 267.814 145.389 267.347C145.628 265.604 146.55 263.403 147.186 261.908Z" stroke="#292524" stroke-width="0.612512" stroke-linecap="round" stroke-linejoin="round"/>
</svg>
