<svg width="602" height="608" viewBox="0 0 602 608" fill="none" xmlns="http://www.w3.org/2000/svg">
<path d="M117.474 276.695C111.809 274.995 104.722 270.416 98.8582 276.338C95.7719 279.455 94.6422 283.403 94.6422 287.69C94.6422 289.637 98.1538 291.273 98.1538 290.89C98.1538 289.062 93.4101 289.117 92.5332 289.117C87.049 289.117 82.9594 289.236 79.538 294.08C77.122 297.497 75.6451 303.796 77.728 307.561C78.7233 309.306 80.6597 311.856 82.6503 312.533C83.8102 312.916 84.36 311.061 83.6998 310.403C75.1113 301.72 62.6158 315.767 60.1717 323.199C59.4653 325.319 57.5469 332.293 60.868 333.134C63.892 333.902 64.0365 329.624 64.0365 327.457C64.0365 321.251 59.9991 315.009 57.0051 309.718C56.2769 308.361 55.4569 307.057 54.551 305.814C53.9731 305.093 51.5289 304.041 52.444 304.041C61.2753 304.041 70.3796 288.038 65.7923 279.913C64.3255 277.325 58.4158 274.95 58.4158 274.95C58.4158 274.95 63.1395 273.369 64.3796 271.403C67.7468 266.065 69.7374 259.284 68.9047 252.951C68.2706 247.813 63.0131 246.214 58.7148 245.857C57.0854 245.722 53.8005 244.204 53.8005 245.857C53.8005 248.883 58.9677 243.18 59.068 243.016C61.6365 238.857 64.2071 232.506 61.5302 227.761C59.2947 223.803 54.1095 219.847 49.2293 220.67C48.9684 220.67 41.3391 222.634 42.8963 224.215C45.0855 226.428 47.5758 218.173 47.1042 216.767C46.0909 213.696 37.1512 213.952 34.8154 214.637C25.0329 217.462 16.635 226.079 15.1421 236.636C14.5982 240.448 17.6664 241.792 20.4075 243.373C21.7741 244.159 26.1988 245.501 24.6256 245.501C18.752 245.501 16.0109 253.555 15.4952 258.297C14.4176 268.049 21.4671 281.713 32.3532 281.713C33.186 281.713 30.6877 281.833 29.8911 282.06C28.0955 282.635 26.5172 283.752 25.368 285.26C21.4054 290.006 18.8462 295.784 17.9835 301.931C17.541 304.82 17.7159 307.772 18.4964 310.587C19.2769 313.403 20.6449 316.017 22.5085 318.254C23.7868 319.92 25.331 321.359 27.0777 322.512C27.4208 322.715 29.5299 323.308 29.5299 323.574C29.5299 324.433 27.8643 323.967 27.0777 324.285C25.3767 325.089 24.0089 326.471 23.2129 328.189C20.7246 334.048 19.051 340.811 20.0463 347.383C20.7788 352.154 23.7828 360.524 28.4804 362.636C30.4979 363.528 32.631 364.125 34.8154 364.409C35.7184 364.529 37.6207 363.495 37.6207 364.409C37.6207 364.813 33.5211 367.151 33.0957 367.599C30.6775 370.184 28.9793 373.369 28.1733 376.831C24.9607 391.453 39.4849 406.077 53.5115 404.497C56.0585 404.074 58.4014 402.83 60.1897 400.95C60.6974 400.429 62.9047 396.38 62.995 396.38V398.856C62.9989 400.423 63.237 401.979 63.7014 403.473C64.8331 407.466 67.5642 410.145 71.7822 410.565C85.3573 411.937 93.7271 396.453 94.9672 383.958C95.1679 381.885 95.0756 379.107 93.5546 377.562C92.5512 376.547 89.0295 376.099 90.0429 375.084C90.685 374.435 95.1659 374.628 96.3779 374.016C99.4823 372.453 100.903 368.779 102.352 365.854C105.265 359.959 108.324 356.12 108.324 349.183C108.237 347.004 107.502 344.902 106.217 343.149C105.574 342.173 103.754 339.495 103.754 340.665C103.754 344.905 112.271 344.485 114.297 342.438C117.338 339.366 121.14 335.701 123.075 331.798C124.206 329.514 124.83 324.35 124.83 324.35C124.83 324.35 126.64 330.053 127.646 332.86C130.098 339.686 132.875 347.264 140.641 348.826C141.979 349.1 144.532 349.667 145.553 348.113C147.201 345.628 141.745 349.987 141.03 351.313C138.648 355.516 138.478 362.034 139.971 366.566C141.381 370.834 144.496 375.57 149.101 376.502C150.597 376.893 152.129 377.129 153.672 377.206H156.132C146.721 377.206 143.464 391.719 149.454 397.788C154.884 403.273 163.455 407.595 171.237 405.236C174.702 404.185 176.667 400.612 178.611 397.788C179.697 396.226 181.426 392.815 181.426 392.815C181.426 392.815 185.335 397.568 188.097 398.5C192.403 399.945 199.009 397.825 202.149 394.598C207.68 388.914 206.339 377.461 204.612 370.469C203.779 367.133 198.62 363.386 195.471 366.566C195.391 366.659 199.39 366.511 200.394 365.498C203.183 362.864 205.035 359.375 205.661 355.571C207.471 344.659 206.638 334.285 193.372 334.285C191.797 334.285 196.376 333.17 197.58 332.155C200.036 329.895 201.956 327.105 203.199 323.993C207.037 314.439 208.603 304.109 207.77 293.833C207.381 289.929 204.457 290.286 201.435 290.286C200.259 290.286 196.747 290.643 197.923 290.643C200.53 290.643 202.81 285.945 203.544 283.898C205.743 277.783 207.698 269.2 204.955 262.968C203.616 259.924 199.787 257.136 196.521 256.57C194.901 256.305 190.44 257.393 191.598 256.222C197.717 250.044 204.186 244.404 201.435 234.222C200.151 229.443 194.873 225.787 190.196 225.001C189.616 224.902 184.577 224.673 184.577 225.358C185.608 224.51 186.551 223.558 187.39 222.516C188.847 219.571 189.959 215.861 189.497 212.579C188.594 206.347 179.408 204.134 174.387 203.715C164.992 202.92 157.19 207.105 151.906 215.066C150.522 217.168 149.318 221.061 150.151 223.576C150.785 225.485 154.676 227.477 154.676 227.477C154.676 227.477 147.636 226.49 145.184 228.548C141.255 231.855 140.84 237.779 140.268 242.386C139.646 247.404 143.101 256.534 146.948 259.75C148.926 261.351 151.19 262.555 153.616 263.297C154.66 263.483 155.717 263.603 156.775 263.653C152.876 263.653 147.59 267.666 145.917 271.101C142.08 278.862 147.281 286.421 152.94 291.328C154.829 292.964 156.968 294.283 159.273 295.231C159.58 295.351 162.441 295.496 162.441 294.874C162.441 293.229 154.957 293.632 154.005 293.804C147.482 295.002 143.563 301.593 142.062 307.642C141.68 309.178 140.043 314.79 142.062 315.804C143.22 316.389 142.567 308.941 142.413 307.999C141.626 303.21 140.531 296.254 136.08 293.458C133.367 291.715 130.145 290.963 126.95 291.328C125.731 291.605 124.553 292.041 123.446 292.627C123.319 292.69 121.301 293.658 121.339 293.687C122.649 295.02 124.495 287.682 124.495 286.95C124.495 280.525 124.678 276.695 117.474 276.695Z" fill="#D55816"/>
<path d="M496.576 270.035C490.911 268.335 483.823 263.747 477.952 269.679C474.866 272.796 473.734 276.744 473.734 281.03C473.734 282.978 477.254 284.613 477.254 284.22C477.254 282.392 472.512 282.447 471.635 282.447C466.151 282.447 462.061 282.574 458.63 287.418C456.214 290.837 454.739 297.126 456.874 300.9C457.861 302.647 459.808 305.196 461.798 305.863C462.956 306.256 463.5 304.402 462.848 303.733C454.259 295.061 441.754 309.108 439.319 316.529C438.621 318.641 436.703 325.623 440.024 326.464C443.048 327.222 443.182 322.954 443.182 320.789C443.182 314.574 439.147 308.331 436.161 303.048C435.435 301.688 434.612 300.384 433.699 299.145C433.129 298.423 430.677 297.373 431.59 297.373C440.431 297.373 449.535 281.36 444.938 273.244C443.473 270.658 437.564 268.28 437.564 268.28C437.564 268.28 442.295 266.7 443.536 264.726C446.903 259.387 448.883 252.606 448.061 246.281C447.418 241.135 442.169 239.546 437.871 239.19C436.233 239.052 432.956 237.526 432.956 239.19C432.956 242.205 438.124 236.51 438.224 236.346C440.794 232.187 443.363 225.826 440.686 221.091C438.441 217.135 433.265 213.177 428.387 214C428.124 214 420.495 215.956 422.052 217.547C424.251 219.758 426.732 211.505 426.27 210.097C425.255 207.026 416.315 207.282 413.971 207.967C404.197 210.782 395.799 219.411 394.306 229.958C393.764 233.768 396.83 235.122 399.573 236.703C400.94 237.489 405.357 238.833 403.789 238.833C397.918 238.833 395.175 246.885 394.651 251.627C393.582 261.39 400.631 275.043 411.519 275.043C412.342 275.043 409.854 275.171 409.057 275.4C407.246 275.964 405.65 277.078 404.488 278.59C400.533 283.344 397.977 289.122 397.111 295.27C396.668 298.158 396.843 301.108 397.623 303.922C398.404 306.736 399.772 309.349 401.636 311.584C402.896 313.252 404.426 314.692 406.161 315.844C406.514 316.053 408.624 316.639 408.624 316.912C408.624 317.772 406.958 317.297 406.161 317.618C404.467 318.43 403.101 319.808 402.296 321.519C399.818 327.388 398.143 334.151 399.138 340.713C399.862 345.492 402.866 353.865 407.572 355.976C409.593 356.864 411.724 357.46 413.907 357.75C414.812 357.867 416.722 356.836 416.722 357.75C416.722 358.143 412.623 360.492 412.197 360.94C409.783 363.522 408.088 366.703 407.283 370.161C404.062 384.785 418.595 399.408 432.621 397.837C435.165 397.412 437.505 396.168 439.291 394.29C439.807 393.77 442.006 389.674 442.107 389.674V392.16C442.113 393.711 442.348 395.251 442.803 396.731C443.935 400.725 446.676 403.392 450.884 403.822C464.459 405.194 472.839 389.71 474.069 377.218C474.278 375.142 474.187 372.364 472.666 370.82C471.653 369.796 468.141 369.356 469.155 368.333C469.789 367.692 474.268 367.877 475.49 367.273C478.584 365.7 480.015 362.036 481.453 359.112C484.377 353.216 487.425 349.377 487.425 342.44C487.339 340.262 486.605 338.16 485.318 336.409C484.674 335.43 482.864 332.753 482.864 333.922C482.864 338.164 491.372 337.742 493.399 335.695C496.439 332.625 500.25 328.959 502.186 325.047C503.316 322.771 503.942 317.599 503.942 317.599C503.942 317.599 505.752 323.302 506.748 326.117C509.208 332.943 511.987 340.511 519.751 342.083C521.091 342.349 523.642 342.925 524.665 341.37C526.302 338.885 520.846 343.198 520.14 344.56C517.768 348.765 517.598 355.291 519.091 359.825C520.493 364.083 523.616 368.827 528.221 369.76C529.704 370.145 531.219 370.38 532.746 370.463H535.198C525.787 370.463 522.53 384.968 528.52 391.046C533.95 396.53 542.52 400.853 550.302 398.494C553.768 397.444 555.732 393.869 557.677 391.046C558.754 389.483 560.482 386.074 560.482 386.074C560.482 386.074 564.401 390.827 567.162 391.749C571.469 393.202 578.066 391.082 581.215 387.846C586.745 382.171 585.405 370.71 583.667 363.726C582.844 360.382 577.685 356.643 574.537 359.825C574.446 359.906 578.456 359.768 579.459 358.755C582.246 356.116 584.097 352.625 584.727 348.82C586.537 337.917 585.704 327.534 572.428 327.534C570.863 327.534 575.442 326.417 576.646 325.404C579.1 323.143 581.02 320.354 582.264 317.243C586.084 307.684 587.633 297.354 586.789 287.082C586.4 283.178 583.478 283.535 580.454 283.535C579.279 283.535 575.767 283.892 576.945 283.892C579.541 283.892 581.831 279.194 582.563 277.147C584.763 271.033 586.709 262.45 583.966 256.216C582.628 253.174 578.799 250.377 575.542 249.817C573.913 249.544 569.46 250.64 570.618 249.463C576.726 243.292 583.206 237.643 580.454 227.471C579.16 222.693 573.895 219.036 569.215 218.24C568.637 218.149 563.596 217.92 563.596 218.597C564.629 217.756 565.57 216.806 566.402 215.763C567.859 212.813 568.98 209.11 568.511 205.829C567.606 199.595 558.419 197.375 553.407 196.954C544.013 196.168 536.211 200.344 530.928 208.305C529.533 210.407 528.339 214.31 529.172 216.823C529.796 218.734 533.697 220.727 533.697 220.727C533.697 220.727 526.656 219.73 524.212 221.797C520.284 225.096 519.869 231.026 519.299 235.625C518.673 240.651 522.123 249.773 525.967 252.989C527.947 254.597 530.214 255.804 532.646 256.546C533.691 256.732 534.745 256.85 535.804 256.893C531.895 256.893 526.62 260.913 524.946 264.351C521.099 272.111 526.313 279.668 531.967 284.567C533.854 286.208 535.995 287.528 538.302 288.47C538.609 288.598 541.461 288.736 541.461 288.113C541.461 286.468 533.986 286.879 533.035 287.053C526.501 288.251 522.584 294.84 521.091 300.891C520.71 302.426 519.072 308.029 521.091 309.053C522.249 309.639 521.597 302.189 521.442 301.248C520.648 296.459 519.56 289.504 515.109 286.697C512.392 284.962 509.172 284.21 505.977 284.567C504.748 284.889 503.566 285.369 502.457 285.993C502.339 286.048 500.322 287.017 500.358 287.053C501.671 288.379 503.517 281.048 503.517 280.309C503.597 273.856 503.778 270.035 496.576 270.035Z" fill="#D55816"/>
<path fill-rule="evenodd" clip-rule="evenodd" d="M279.872 228.015C283.622 229.042 287.543 230.118 291.585 230.611C292.795 217 305.517 213.094 310.054 211.702C310.409 211.592 310.714 211.499 310.961 211.416C321.729 207.788 332.607 210.986 339.448 220.192C342.48 224.277 343.838 232.256 341.864 237.254C340.634 240.345 335.105 244.566 335.105 244.566C335.105 244.566 339.574 242.811 341.864 243.105C346.076 243.701 350.155 245.016 353.928 246.998C360.877 250.506 367.031 262.308 369.385 269.436C372.516 278.941 371.43 290.164 366.967 299.177C365.394 302.357 363.664 305.464 360.688 307.466C359.155 308.291 357.538 308.944 355.864 309.414C357.486 309.386 359.105 309.551 360.688 309.906C364.308 311.122 366.173 313.179 367.926 316.734C376.027 333.085 367.15 365.001 347.167 365.001C346.341 365.001 347.013 365.431 348.016 366.071C349.218 366.837 350.894 367.907 351.032 368.904C351.512 372.321 351.231 376.644 349.583 379.634C344.452 388.964 334.371 399.385 323.513 400.599C317.974 401.222 308.788 398.68 305.17 394.266C304.11 392.977 302.752 391.123 302.752 389.386C302.752 389.349 302.798 389.135 302.864 388.826C303.069 387.858 303.466 385.977 303.231 385.977C302.413 385.977 300.372 388.656 298.472 391.151C297.057 393.01 295.72 394.767 295.024 395.235C283.939 402.703 270.137 399.31 260.265 391.331C251.849 384.506 252.12 372.066 254.473 362.569C255.039 360.358 255.966 357.393 257.206 355.263C256.045 355.62 254.993 355.808 254.473 355.743C248.221 354.947 242.13 352.251 238.057 346.96C229.334 335.635 232.629 318.781 238.057 306.489C238.604 305.168 239.436 303.987 240.493 303.032C241.549 302.077 242.803 301.372 244.163 300.968C242.604 300.82 241.087 300.571 239.985 300.154C235.904 298.601 232.021 290.979 231.298 286.984C227.747 267.255 246.896 256.349 262.976 256.266C261.888 256.248 259.348 256.161 258.338 255.782C254.311 254.254 250.121 251.329 248.682 246.998C247.428 243.221 250.829 238.117 253.089 234.727C253.422 234.228 253.729 233.766 253.994 233.353C260.73 222.759 269.672 225.214 279.872 228.015ZM279.097 278.669C280.337 266.12 291.695 266.878 300.563 270.69C300.563 265.891 305.89 265.946 309.733 265.986C310.164 265.99 310.578 265.994 310.961 265.992C318.908 265.992 328.525 273.953 331.24 281.594C333.911 289.005 330.725 299.351 325.929 304.999C323.621 307.723 317.722 311.827 317.722 311.827C317.722 311.827 321.811 312.257 323.513 313.291C327.187 315.52 331.269 319.816 330.753 324.504C329.729 333.827 318.5 349.292 308.545 350.837C302.409 351.751 292.997 350.123 290.202 343.524C289.458 341.651 289.116 339.639 289.199 337.622C289.281 335.606 289.787 333.629 290.682 331.824L290.802 331.585C286.817 332.272 281.353 332.357 281.026 332.309C275.224 331.47 270.356 322.613 270.89 317.192C272.084 305.135 276.926 293.845 288.972 292.876C288.738 292.862 288.506 292.839 288.274 292.807C286.316 292.505 284.478 291.664 282.962 290.377C279.097 287.023 278.6 283.705 279.097 278.669Z" fill="#FBC604"/>
<path d="M117.474 276.695C111.809 274.995 104.722 270.416 98.8582 276.338C95.7719 279.455 94.6422 283.403 94.6422 287.69C94.6422 289.637 98.1538 291.273 98.1538 290.89C98.1538 289.062 93.4101 289.117 92.5332 289.117C87.049 289.117 82.9594 289.236 79.538 294.08C77.122 297.497 75.6451 303.796 77.728 307.561C78.7233 309.306 80.6597 311.856 82.6503 312.533C83.8102 312.916 84.36 311.061 83.6998 310.403C75.1113 301.72 62.6158 315.767 60.1717 323.199C59.4653 325.319 57.5469 332.293 60.868 333.134C63.892 333.902 64.0365 329.624 64.0365 327.457C64.0365 321.251 59.9991 315.009 57.0051 309.718C56.2769 308.361 55.4569 307.057 54.551 305.814C53.9731 305.093 51.5289 304.041 52.444 304.041C61.2753 304.041 70.3796 288.038 65.7923 279.913C64.3255 277.325 58.4158 274.95 58.4158 274.95C58.4158 274.95 63.1395 273.369 64.3796 271.403C67.7468 266.065 69.7374 259.284 68.9047 252.951C68.2706 247.813 63.0131 246.214 58.7148 245.857C57.0854 245.722 53.8005 244.204 53.8005 245.857C53.8005 248.883 58.9677 243.18 59.068 243.016C61.6365 238.857 64.2071 232.506 61.5302 227.761C59.2947 223.803 54.1095 219.847 49.2293 220.67C48.9684 220.67 41.3391 222.634 42.8963 224.215C45.0855 226.428 47.5758 218.173 47.1042 216.767C46.0909 213.696 37.1512 213.952 34.8154 214.637C25.0329 217.462 16.635 226.079 15.1421 236.636C14.5982 240.448 17.6664 241.792 20.4075 243.373C21.7741 244.159 26.1988 245.501 24.6256 245.501C18.752 245.501 16.0109 253.555 15.4952 258.297C14.4176 268.049 21.4671 281.713 32.3532 281.713C33.186 281.713 30.6877 281.833 29.8911 282.06C28.0955 282.635 26.5172 283.752 25.368 285.26C21.4054 290.006 18.8462 295.784 17.9835 301.931C17.541 304.82 17.7159 307.772 18.4964 310.587C19.2769 313.403 20.6449 316.017 22.5085 318.254C23.7868 319.92 25.331 321.359 27.0777 322.512C27.4208 322.715 29.5299 323.308 29.5299 323.574C29.5299 324.433 27.8643 323.967 27.0777 324.285C25.3767 325.089 24.0089 326.471 23.2129 328.189C20.7246 334.048 19.051 340.811 20.0463 347.383C20.7788 352.154 23.7828 360.524 28.4804 362.636C30.4979 363.528 32.631 364.125 34.8154 364.409C35.7184 364.529 37.6207 363.495 37.6207 364.409C37.6207 364.813 33.5211 367.151 33.0957 367.599C30.6775 370.184 28.9793 373.369 28.1733 376.831C24.9607 391.453 39.4849 406.077 53.5115 404.497C56.0585 404.074 58.4014 402.83 60.1897 400.95C60.6974 400.429 62.9047 396.38 62.995 396.38V398.856C62.9989 400.423 63.237 401.979 63.7014 403.473C64.8331 407.466 67.5642 410.145 71.7822 410.565C85.3573 411.937 93.7271 396.453 94.9672 383.958C95.1679 381.885 95.0756 379.107 93.5546 377.562C92.5512 376.547 89.0295 376.099 90.0429 375.084C90.685 374.435 95.1659 374.628 96.3779 374.016C99.4823 372.453 100.903 368.779 102.352 365.854C105.265 359.959 108.324 356.12 108.324 349.183C108.237 347.004 107.502 344.902 106.217 343.149C105.574 342.173 103.754 339.495 103.754 340.665C103.754 344.905 112.271 344.485 114.297 342.438C117.338 339.366 121.14 335.701 123.075 331.798C124.206 329.514 124.83 324.35 124.83 324.35C124.83 324.35 126.64 330.053 127.646 332.86C130.098 339.686 132.875 347.264 140.641 348.826C141.979 349.1 144.532 349.667 145.553 348.113C147.201 345.628 141.745 349.987 141.03 351.313C138.648 355.516 138.478 362.034 139.971 366.566C141.381 370.834 144.496 375.57 149.101 376.502C150.597 376.893 152.129 377.129 153.672 377.206H156.132C146.721 377.206 143.464 391.719 149.454 397.788C154.884 403.273 163.455 407.595 171.237 405.236C174.702 404.185 176.667 400.612 178.611 397.788C179.697 396.226 181.426 392.815 181.426 392.815C181.426 392.815 185.335 397.568 188.097 398.5C192.403 399.945 199.009 397.825 202.149 394.598C207.68 388.914 206.339 377.461 204.612 370.469C203.779 367.133 198.62 363.386 195.471 366.566C195.391 366.659 199.39 366.511 200.394 365.498C203.183 362.864 205.035 359.375 205.661 355.571C207.471 344.659 206.638 334.285 193.372 334.285C191.797 334.285 196.376 333.17 197.58 332.155C200.036 329.895 201.956 327.105 203.199 323.993C207.037 314.439 208.603 304.109 207.77 293.833C207.381 289.929 204.457 290.286 201.435 290.286C200.259 290.286 196.747 290.643 197.923 290.643C200.53 290.643 202.81 285.945 203.544 283.898C205.743 277.783 207.698 269.2 204.955 262.968C203.616 259.924 199.787 257.136 196.521 256.57C194.901 256.305 190.44 257.393 191.598 256.222C197.717 250.044 204.186 244.404 201.435 234.222C200.151 229.443 194.873 225.787 190.196 225.001C189.616 224.902 184.577 224.673 184.577 225.358C185.608 224.51 186.551 223.558 187.39 222.516C188.847 219.571 189.959 215.861 189.497 212.579C188.594 206.347 179.408 204.134 174.387 203.715C164.992 202.92 157.19 207.105 151.906 215.066C150.522 217.168 149.318 221.061 150.151 223.576C150.785 225.485 154.676 227.477 154.676 227.477C154.676 227.477 147.636 226.49 145.184 228.548C141.255 231.855 140.84 237.779 140.268 242.386C139.646 247.404 143.101 256.534 146.948 259.75C148.926 261.351 151.19 262.555 153.616 263.297C154.66 263.483 155.717 263.603 156.775 263.653C152.876 263.653 147.59 267.666 145.917 271.101C142.08 278.862 147.281 286.421 152.94 291.328C154.829 292.964 156.968 294.283 159.273 295.231C159.58 295.351 162.441 295.496 162.441 294.874C162.441 293.229 154.957 293.632 154.005 293.804C147.482 295.002 143.563 301.593 142.062 307.642C141.68 309.178 140.043 314.79 142.062 315.804C143.22 316.389 142.567 308.941 142.413 307.999C141.626 303.21 140.531 296.254 136.08 293.458C133.367 291.715 130.145 290.963 126.95 291.328C125.731 291.605 124.553 292.041 123.446 292.627C123.319 292.69 121.301 293.658 121.339 293.687C122.649 295.02 124.495 287.682 124.495 286.95C124.495 280.525 124.678 276.695 117.474 276.695Z" stroke="#292524" stroke-width="0.612512" stroke-linecap="round" stroke-linejoin="round"/>
<path d="M496.576 270.035C490.911 268.335 483.823 263.747 477.952 269.679C474.866 272.796 473.734 276.744 473.734 281.03C473.734 282.978 477.254 284.613 477.254 284.22C477.254 282.392 472.512 282.447 471.635 282.447C466.151 282.447 462.061 282.574 458.63 287.418C456.214 290.837 454.739 297.126 456.874 300.9C457.861 302.647 459.808 305.196 461.798 305.863C462.956 306.256 463.5 304.402 462.848 303.733C454.259 295.061 441.754 309.108 439.319 316.529C438.621 318.641 436.703 325.623 440.024 326.464C443.048 327.222 443.182 322.954 443.182 320.789C443.182 314.574 439.147 308.331 436.161 303.048C435.435 301.688 434.612 300.384 433.699 299.145C433.129 298.423 430.677 297.373 431.59 297.373C440.431 297.373 449.535 281.36 444.938 273.244C443.473 270.658 437.564 268.28 437.564 268.28C437.564 268.28 442.295 266.7 443.536 264.726C446.903 259.387 448.883 252.606 448.061 246.281C447.418 241.135 442.169 239.546 437.871 239.19C436.233 239.052 432.956 237.526 432.956 239.19C432.956 242.205 438.124 236.51 438.224 236.346C440.794 232.187 443.363 225.826 440.686 221.091C438.441 217.135 433.265 213.177 428.387 214C428.124 214 420.495 215.956 422.052 217.547C424.251 219.758 426.732 211.505 426.27 210.097C425.255 207.026 416.315 207.282 413.971 207.967C404.197 210.782 395.799 219.411 394.306 229.958C393.764 233.768 396.83 235.122 399.573 236.703C400.94 237.489 405.357 238.833 403.789 238.833C397.918 238.833 395.175 246.885 394.651 251.627C393.582 261.39 400.631 275.043 411.519 275.043C412.342 275.043 409.854 275.171 409.057 275.4C407.246 275.964 405.65 277.078 404.488 278.59C400.533 283.344 397.977 289.122 397.111 295.27C396.668 298.158 396.843 301.108 397.623 303.922C398.404 306.736 399.772 309.349 401.636 311.584C402.896 313.252 404.426 314.692 406.161 315.844C406.514 316.053 408.624 316.639 408.624 316.912C408.624 317.772 406.958 317.297 406.161 317.618C404.467 318.43 403.101 319.808 402.296 321.519C399.818 327.388 398.143 334.151 399.138 340.713C399.862 345.492 402.866 353.865 407.572 355.976C409.593 356.864 411.724 357.46 413.907 357.75C414.812 357.867 416.722 356.836 416.722 357.75C416.722 358.143 412.623 360.492 412.197 360.94C409.783 363.522 408.088 366.703 407.283 370.161C404.062 384.785 418.595 399.408 432.621 397.837C435.165 397.412 437.505 396.168 439.291 394.29C439.807 393.77 442.006 389.674 442.107 389.674V392.16C442.113 393.711 442.348 395.251 442.803 396.731C443.935 400.725 446.676 403.392 450.884 403.822C464.459 405.194 472.839 389.71 474.069 377.218C474.278 375.142 474.187 372.364 472.666 370.82C471.653 369.796 468.141 369.356 469.155 368.333C469.789 367.692 474.268 367.877 475.49 367.273C478.584 365.7 480.015 362.036 481.453 359.112C484.377 353.216 487.425 349.377 487.425 342.44C487.339 340.262 486.605 338.16 485.318 336.409C484.674 335.43 482.864 332.753 482.864 333.922C482.864 338.164 491.372 337.742 493.399 335.695C496.439 332.625 500.25 328.959 502.186 325.047C503.316 322.771 503.942 317.599 503.942 317.599C503.942 317.599 505.752 323.302 506.748 326.117C509.208 332.943 511.987 340.511 519.751 342.083C521.091 342.349 523.642 342.925 524.665 341.37C526.302 338.885 520.846 343.198 520.14 344.56C517.768 348.765 517.598 355.291 519.091 359.825C520.493 364.083 523.616 368.827 528.221 369.76C529.704 370.145 531.219 370.38 532.746 370.463H535.198C525.787 370.463 522.53 384.968 528.52 391.046C533.95 396.53 542.52 400.853 550.302 398.494C553.768 397.444 555.732 393.869 557.677 391.046C558.754 389.483 560.482 386.074 560.482 386.074C560.482 386.074 564.401 390.827 567.162 391.749C571.469 393.202 578.066 391.082 581.215 387.846C586.745 382.171 585.405 370.71 583.667 363.726C582.844 360.382 577.685 356.643 574.537 359.825C574.446 359.906 578.456 359.768 579.459 358.755C582.246 356.116 584.097 352.625 584.727 348.82C586.537 337.917 585.704 327.534 572.428 327.534C570.863 327.534 575.442 326.417 576.646 325.404C579.1 323.143 581.02 320.354 582.264 317.243C586.084 307.684 587.633 297.354 586.789 287.082C586.4 283.178 583.478 283.535 580.454 283.535C579.279 283.535 575.767 283.892 576.945 283.892C579.541 283.892 581.831 279.194 582.563 277.147C584.763 271.033 586.709 262.45 583.966 256.216C582.628 253.174 578.799 250.377 575.542 249.817C573.913 249.544 569.46 250.64 570.618 249.463C576.726 243.292 583.206 237.643 580.454 227.471C579.16 222.693 573.895 219.036 569.215 218.24C568.637 218.149 563.596 217.92 563.596 218.597C564.629 217.756 565.57 216.806 566.402 215.763C567.859 212.813 568.98 209.11 568.511 205.829C567.606 199.595 558.419 197.375 553.407 196.954C544.013 196.168 536.211 200.344 530.928 208.305C529.533 210.407 528.339 214.31 529.172 216.823C529.796 218.734 533.697 220.727 533.697 220.727C533.697 220.727 526.656 219.73 524.212 221.797C520.284 225.096 519.869 231.026 519.299 235.625C518.673 240.651 522.123 249.773 525.967 252.989C527.947 254.597 530.214 255.804 532.646 256.546C533.691 256.732 534.745 256.85 535.804 256.893C531.895 256.893 526.62 260.913 524.946 264.351C521.099 272.111 526.313 279.668 531.967 284.567C533.854 286.208 535.995 287.528 538.302 288.47C538.609 288.598 541.461 288.736 541.461 288.113C541.461 286.468 533.986 286.879 533.035 287.053C526.501 288.251 522.584 294.84 521.091 300.891C520.71 302.426 519.072 308.029 521.091 309.053C522.249 309.639 521.597 302.189 521.442 301.248C520.648 296.459 519.56 289.504 515.109 286.697C512.392 284.962 509.172 284.21 505.977 284.567C504.748 284.889 503.566 285.369 502.457 285.993C502.339 286.048 500.322 287.017 500.358 287.053C501.671 288.379 503.517 281.048 503.517 280.309C503.597 273.856 503.778 270.035 496.576 270.035Z" stroke="#292524" stroke-width="0.612512" stroke-linecap="round" stroke-linejoin="round"/>
<path d="M279.872 228.015C283.622 229.042 287.543 230.118 291.585 230.611C292.795 217 305.517 213.094 310.054 211.702C310.409 211.592 310.714 211.499 310.961 211.416C321.729 207.788 332.607 210.986 339.448 220.192C342.48 224.277 343.838 232.256 341.864 237.254C340.634 240.345 335.105 244.566 335.105 244.566C335.105 244.566 339.574 242.811 341.864 243.105C346.076 243.701 350.155 245.016 353.928 246.998C360.877 250.506 367.031 262.308 369.385 269.436C372.516 278.941 371.43 290.164 366.967 299.177C365.394 302.357 363.664 305.464 360.688 307.466C359.155 308.291 357.538 308.944 355.864 309.414C357.486 309.386 359.105 309.551 360.688 309.906C364.308 311.122 366.173 313.179 367.926 316.734C376.027 333.085 367.15 365.001 347.167 365.001C346.341 365.001 347.013 365.431 348.016 366.071C349.218 366.837 350.894 367.907 351.032 368.904C351.512 372.321 351.231 376.644 349.583 379.634C344.452 388.964 334.371 399.385 323.513 400.599C317.974 401.222 308.788 398.68 305.17 394.266C304.11 392.977 302.752 391.123 302.752 389.386C302.752 389.349 302.798 389.135 302.864 388.826C303.069 387.858 303.466 385.977 303.231 385.977C302.413 385.977 300.372 388.656 298.472 391.151C297.057 393.01 295.72 394.767 295.024 395.235C283.939 402.703 270.137 399.31 260.265 391.331C251.849 384.506 252.12 372.066 254.473 362.569C255.039 360.358 255.966 357.393 257.206 355.263C256.045 355.62 254.993 355.808 254.473 355.743C248.221 354.947 242.13 352.251 238.057 346.96C229.334 335.635 232.629 318.781 238.057 306.489C238.604 305.168 239.436 303.987 240.493 303.032C241.549 302.077 242.803 301.372 244.163 300.968C242.604 300.82 241.087 300.571 239.985 300.154C235.904 298.601 232.021 290.979 231.298 286.984C227.747 267.255 246.896 256.349 262.976 256.266C261.888 256.248 259.348 256.161 258.338 255.782C254.311 254.254 250.121 251.329 248.682 246.998C247.428 243.221 250.829 238.117 253.089 234.727C253.422 234.228 253.729 233.766 253.994 233.353C260.73 222.759 269.672 225.214 279.872 228.015ZM279.097 278.669C280.337 266.12 291.695 266.878 300.563 270.69C300.563 265.891 305.89 265.946 309.733 265.986C310.164 265.99 310.578 265.994 310.961 265.992C318.908 265.992 328.525 273.953 331.24 281.594C333.911 289.005 330.725 299.351 325.929 304.999C323.621 307.723 317.722 311.827 317.722 311.827C317.722 311.827 321.811 312.257 323.513 313.291C327.187 315.52 331.269 319.816 330.753 324.504C329.729 333.827 318.5 349.292 308.545 350.837C302.409 351.751 292.997 350.123 290.202 343.524C289.458 341.651 289.116 339.639 289.199 337.622C289.281 335.606 289.787 333.629 290.682 331.824L290.802 331.585C286.817 332.272 281.353 332.357 281.026 332.309C275.224 331.47 270.356 322.613 270.89 317.192C272.084 305.135 276.926 293.845 288.972 292.876C288.738 292.862 288.506 292.839 288.274 292.807C286.316 292.505 284.478 291.664 282.962 290.377C279.097 287.023 278.6 283.705 279.097 278.669Z" stroke="#292524" stroke-width="0.612512" stroke-linecap="round" stroke-linejoin="round"/>
</svg>
