<svg width="609" height="613" viewBox="0 0 609 613" fill="none" xmlns="http://www.w3.org/2000/svg">
<path d="M194.88 457.524C221.433 481.278 250.299 501.433 280.548 520.062C315.956 535.865 306.023 577.752 325.815 577.752C345.608 577.752 357.404 519.793 368.378 501.838C377.799 486.415 389.036 472.212 398.03 456.494C405.192 443.977 411.349 430.767 417.214 417.593C427.945 393.484 433.322 369.319 431.867 342.807C430.289 313.984 420.557 285.283 401.313 263.399C389.425 249.889 370.291 244.911 352.873 245.285C328.075 245.818 307.107 254.866 294.074 276.272C286.102 289.372 281.785 302.355 279.872 317.454C279.495 320.451 280.213 326.973 277.101 321.959C274.105 317.135 270.378 312.825 266.858 308.4C251.542 289.133 230.598 270.982 206.987 263.056C170.027 250.661 127.531 271.092 125.722 312.274C124.638 337.07 130.314 364.072 139.93 386.778C151.672 414.51 172.725 437.706 194.874 457.518L194.88 457.524Z" fill="#FB8CAC"/>
<path d="M24.1162 291.175C35.8882 297.716 66.6244 307.934 78.6461 313.985" stroke="#292524" stroke-width="0.612512" stroke-linecap="round" stroke-linejoin="round"/>
<path d="M37.8979 179.67C57.6295 192.255 77.1236 205.232 96.977 217.608" stroke="#292524" stroke-width="0.612512" stroke-linecap="round" stroke-linejoin="round"/>
<path d="M181.519 92.5195C186.744 115.709 190.593 138.697 193.741 162.242" stroke="#292524" stroke-width="0.612512" stroke-linecap="round" stroke-linejoin="round"/>
<path d="M337.367 75.0923C331.984 99.0115 331.753 123.513 330.242 147.886" stroke="#292524" stroke-width="0.612512" stroke-linecap="round" stroke-linejoin="round"/>
<path d="M456.543 204.276C474.283 185.187 492.377 166.325 508.491 145.839" stroke="#292524" stroke-width="0.612512" stroke-linecap="round" stroke-linejoin="round"/>
<path d="M512.565 284.248C535.731 273.527 559.805 261.978 584.884 256.571" stroke="#292524" stroke-width="0.612512" stroke-linecap="round" stroke-linejoin="round"/>
</svg>
