<svg width="603" height="604" viewBox="0 0 603 604" fill="none" xmlns="http://www.w3.org/2000/svg">
<path d="M157.528 145.732C153.187 148.723 124.717 156.026 115.953 160.352C109.604 163.568 103.629 167.478 98.1387 172.012C70.4409 194.71 89.946 218.352 118.5 212.894C122.576 212.109 139.525 201.972 143.102 206.077C146.68 210.184 145.955 221.918 147.36 227.491C152.401 247.729 154.871 319.023 185.542 310.233C197.256 306.869 194.446 289.27 193.174 279.085C189.998 253.572 176.211 221.016 176.211 197.317C176.211 196.679 189.976 187.017 191.483 185.634C201.853 176.117 215.203 158.263 210.994 143.783C205.059 123.398 166.141 139.81 157.528 145.732Z" fill="#D55816"/>
<path fill-rule="evenodd" clip-rule="evenodd" d="M228.388 176.006C243.785 160.878 258.792 162.41 276.313 168.496C279.587 169.632 285.587 173.149 286.672 173.558C299.85 178.615 303.761 186.194 306.863 202.19C313.146 234.763 308.097 266.808 285.778 286.723C278.285 293.412 260.416 296.226 250.557 294.97C230.33 292.387 211.183 265.06 209.285 241.123C207.261 215.544 212.224 191.907 228.388 176.006ZM258.942 193.164C273.782 193.152 286.672 211.169 276.313 220.686C267.907 225.907 258.786 227.662 250.86 226.529C245.982 225.804 238.951 225.498 236.441 219.712C228.794 202.192 248.816 193.164 258.942 193.164Z" fill="#D55816"/>
<path fill-rule="evenodd" clip-rule="evenodd" d="M329.023 262.954C329.21 266.119 329.56 272.006 333.158 276.099C336.818 280.263 354.136 280.863 356.916 271.281C359.975 260.76 360.311 253.773 360.311 242.082C360.311 241.534 360.227 240.538 360.126 239.346C359.853 236.092 359.455 231.385 360.311 230.405C364.466 225.631 374.63 222.371 384.731 219.132C393.313 216.378 401.848 213.64 406.611 210.002C433.244 189.643 440.542 132.482 409.524 108.723C379.864 86.0426 323.363 99.7011 317.89 143.771C315.295 164.581 319.279 189.425 322.935 212.212C324.223 220.243 325.47 228.019 326.374 235.271C326.993 240.258 327.421 245.211 327.852 250.166C328.179 253.955 328.507 257.746 328.921 261.553C328.961 261.917 328.989 262.392 329.023 262.954ZM344.163 161.323C342.764 151.74 390.907 133.239 394.107 150.059C399.516 178.523 389.237 179.814 378.602 181.148C375.832 181.497 373.038 181.847 370.492 182.683C348.004 190.092 347.519 186.431 345.081 168.026C344.81 165.976 344.514 163.743 344.163 161.323Z" fill="#D55816"/>
<path d="M140.451 366.115C149.725 360.675 151.544 348.289 145.275 341.411C139.746 335.349 123.008 334.101 113.471 335.222C84.1631 338.591 77.516 341.071 72.5212 359.388C66.5073 381.467 84.9349 397.098 102.384 401.862C109.198 403.726 123.063 407.606 119.632 417.95C113.095 437.602 86.5269 423.573 72.6378 432.845C68.0751 435.891 68.1615 450.647 73.2468 453.699C88.7962 463.049 120.192 463.178 135.105 452.479C143.165 446.717 148.443 430.896 149.38 421.496C150.545 409.849 149.482 392.602 138.079 385.749C132.367 382.312 103.741 379.296 107.742 367.271C111.312 356.556 133.876 370.001 140.451 366.115Z" fill="#FBC604"/>
<path d="M213.018 341.092C208.415 338.045 177.136 335.772 171.381 343.479C164.595 352.543 166.031 364.801 166.031 375.65C166.031 395.621 161.281 417.763 166.638 437.021C170.055 449.326 189.986 446.914 206.116 443.21C211.589 441.95 223.358 439.177 226.089 433.695C227.951 429.972 225.828 417.429 223.145 416.759C212.751 414.158 191.129 425.629 188.649 413.183C188.127 410.564 187.383 401.419 188.649 398.886C192.126 391.91 214.417 397.91 218.986 388.755C222.512 381.689 212.982 370.782 208.166 371.576C198.671 373.14 186.458 381.719 185.966 376.661C185.061 367.366 184.143 363.742 187.433 361.547C196.185 355.706 208.038 360.579 217.197 355.986C221.302 353.927 216.132 343.2 213.018 341.092Z" fill="#2953A7"/>
<path d="M260.746 326.652C241.685 332.798 238.776 342.539 235.767 357.635C228.73 392.846 234.642 435.003 279.78 428.538C298.745 425.828 314.23 396.861 308.013 382.173C307.337 380.583 300.988 377.824 299.414 377.299C280.882 371.11 289.239 391.835 279.78 398.153C269.606 404.944 256.062 400.779 253.628 388.618C252.79 384.428 253.628 379.212 253.628 374.917C253.628 372.231 254.444 369.757 254.814 367.168C257.966 345.104 273.584 357.019 288.721 346.914C297.601 340.978 293.398 328.697 285.748 324.866C278.45 321.266 273.266 322.613 260.746 326.652Z" fill="#FBC604"/>
<path fill-rule="evenodd" clip-rule="evenodd" d="M325.872 303.14C326.688 302.58 327.361 302.117 327.825 301.771C336.384 295.336 357.742 285.256 367.682 295.222C373.665 301.221 383.719 314.972 381.36 324.421C380.264 328.794 378.574 331.882 376.007 335.74C375.687 336.165 375.348 336.575 374.99 336.968C373.722 338.43 371.885 340.548 372.437 341.099C374.703 343.368 377.72 345.734 380.916 348.241C392.248 357.123 405.84 367.78 396.23 382.214C392.762 387.422 384.071 383.738 380.763 380.424C378.095 377.75 376.116 374.283 374.196 370.923C370.146 363.83 366.369 357.218 356.97 359.572C345.218 362.515 351.125 369.916 357.155 377.472C361.258 382.612 365.416 387.823 364.11 391.749C361.794 398.711 350.269 406.929 342.697 401.874C338.589 399.13 337.411 395.405 336.109 391.288C335.606 389.699 335.086 388.052 334.37 386.381C329.435 374.845 326.111 363.145 322.686 351.088L321.878 348.253C321.162 345.738 319.209 342.265 317.088 338.498C313.508 332.13 309.45 324.918 310.073 320.046C310.923 313.396 320.965 306.506 325.872 303.14ZM331.602 319.055C334.577 313.396 347.495 304.777 351.752 308.699C359.813 316.064 355.332 319.875 352.239 322.504C351.547 323.092 350.926 323.622 350.528 324.119C345.712 330.155 337.132 335.144 333.385 328.802C333.164 328.423 332.909 328.039 332.645 327.64C331.218 325.48 329.548 322.949 331.602 319.055Z" fill="#2953A7"/>
<path d="M418.629 250.902C404.011 255.966 385.595 267.188 386.938 281.441C387.742 289.933 393.144 298.024 396.443 305.651C408.634 333.795 421.417 368.837 452.216 356.459C465.078 351.303 487.572 330.886 473.739 315.917C462.564 303.801 451.67 311.657 441.236 318.746C439.596 319.855 428.376 328.104 426.315 325.521C416.716 313.461 439.103 307 444.456 300.555C449.808 294.111 443.531 289.124 440.721 285.602C436.317 280.064 423.751 290.458 418.933 293.18C417.759 293.833 411.309 298.796 410.173 296.889C408.583 294.235 408.163 288.071 409.448 285.675C412.651 279.723 424.189 278.183 428.969 272.425C437.809 261.807 427.399 253.049 418.629 250.902Z" fill="#FBC604"/>
<path d="M446.723 244.892C442.444 247.468 449.282 260.828 454.415 261.513C460.654 262.314 479.456 251.79 481.042 254.605C489.773 270.039 499.604 301.449 505.763 318.073C508.132 324.449 521.069 323.505 532.148 317.372C539.685 306.299 500.912 249.445 501.602 248.45C506.036 242.032 509.781 236.515 515.535 230.29C524.795 220.275 508.321 198.485 499.994 202.133C489.285 206.84 451.615 237.767 446.723 244.892Z" fill="#2953A7"/>
<path d="M157.528 145.732C153.187 148.723 124.717 156.026 115.953 160.352C109.604 163.568 103.629 167.478 98.1387 172.012C70.4409 194.71 89.946 218.352 118.5 212.894C122.576 212.109 139.525 201.972 143.102 206.077C146.68 210.184 145.955 221.918 147.36 227.491C152.401 247.729 154.871 319.023 185.542 310.233C197.256 306.869 194.446 289.27 193.174 279.085C189.998 253.572 176.211 221.016 176.211 197.317C176.211 196.679 189.976 187.017 191.483 185.634C201.853 176.117 215.203 158.263 210.994 143.783C205.059 123.398 166.141 139.81 157.528 145.732Z" stroke="#292524" stroke-width="0.612512" stroke-linecap="round" stroke-linejoin="round"/>
<path d="M228.388 176.006C243.785 160.878 258.792 162.41 276.313 168.496C279.587 169.632 285.587 173.149 286.672 173.558C299.85 178.615 303.761 186.194 306.863 202.19C313.146 234.763 308.097 266.808 285.778 286.723C278.285 293.412 260.416 296.226 250.557 294.97C230.33 292.387 211.183 265.06 209.285 241.123C207.261 215.544 212.224 191.907 228.388 176.006ZM258.942 193.164C273.782 193.152 286.672 211.169 276.313 220.686C267.907 225.907 258.786 227.662 250.86 226.529C245.982 225.804 238.951 225.498 236.441 219.712C228.794 202.192 248.816 193.164 258.942 193.164Z" stroke="#292524" stroke-width="0.612512" stroke-linecap="round" stroke-linejoin="round"/>
<path d="M329.023 262.954C329.21 266.119 329.56 272.006 333.158 276.099C336.818 280.263 354.136 280.863 356.916 271.281C359.975 260.76 360.311 253.773 360.311 242.082C360.311 241.534 360.227 240.538 360.126 239.346C359.853 236.092 359.455 231.385 360.311 230.405C364.466 225.631 374.63 222.371 384.731 219.132C393.313 216.378 401.848 213.64 406.611 210.002C433.244 189.643 440.542 132.482 409.524 108.723C379.864 86.0426 323.363 99.7011 317.89 143.771C315.295 164.581 319.279 189.425 322.935 212.212C324.223 220.243 325.47 228.019 326.374 235.271C326.993 240.258 327.421 245.211 327.852 250.166C328.179 253.955 328.507 257.746 328.921 261.553C328.961 261.917 328.989 262.392 329.023 262.954ZM344.163 161.323C342.764 151.74 390.907 133.239 394.107 150.059C399.516 178.523 389.237 179.814 378.602 181.148C375.832 181.497 373.038 181.847 370.492 182.683C348.004 190.092 347.519 186.431 345.081 168.026C344.81 165.976 344.514 163.743 344.163 161.323Z" stroke="#292524" stroke-width="0.612512" stroke-linecap="round" stroke-linejoin="round"/>
<path d="M140.451 366.115C149.725 360.675 151.544 348.289 145.275 341.411C139.746 335.349 123.008 334.101 113.471 335.222C84.1631 338.591 77.516 341.071 72.5212 359.388C66.5073 381.467 84.9349 397.098 102.384 401.862C109.198 403.726 123.063 407.606 119.632 417.95C113.095 437.602 86.5269 423.573 72.6378 432.845C68.0751 435.891 68.1615 450.647 73.2468 453.699C88.7962 463.049 120.192 463.178 135.105 452.479C143.165 446.717 148.443 430.896 149.38 421.496C150.545 409.849 149.482 392.602 138.079 385.749C132.367 382.312 103.741 379.296 107.742 367.271C111.312 356.556 133.876 370.001 140.451 366.115Z" stroke="#292524" stroke-width="0.612512" stroke-linecap="round" stroke-linejoin="round"/>
<path d="M213.018 341.092C208.415 338.045 177.136 335.772 171.381 343.479C164.595 352.543 166.031 364.801 166.031 375.65C166.031 395.621 161.281 417.763 166.638 437.021C170.055 449.326 189.986 446.914 206.116 443.21C211.589 441.95 223.358 439.177 226.089 433.695C227.951 429.972 225.828 417.429 223.145 416.759C212.751 414.158 191.129 425.629 188.649 413.183C188.127 410.564 187.383 401.419 188.649 398.886C192.126 391.91 214.417 397.91 218.986 388.755C222.512 381.689 212.982 370.782 208.166 371.576C198.671 373.14 186.458 381.719 185.966 376.661C185.061 367.366 184.143 363.742 187.433 361.547C196.185 355.706 208.038 360.579 217.197 355.986C221.302 353.927 216.132 343.2 213.018 341.092Z" stroke="#292524" stroke-width="0.612512" stroke-linecap="round" stroke-linejoin="round"/>
<path d="M260.746 326.652C241.685 332.798 238.776 342.539 235.767 357.635C228.73 392.846 234.642 435.003 279.78 428.538C298.745 425.828 314.23 396.861 308.013 382.173C307.337 380.583 300.988 377.824 299.414 377.299C280.882 371.11 289.239 391.835 279.78 398.153C269.606 404.944 256.062 400.779 253.628 388.618C252.79 384.428 253.628 379.212 253.628 374.917C253.628 372.231 254.444 369.757 254.814 367.168C257.966 345.104 273.584 357.019 288.721 346.914C297.601 340.978 293.398 328.697 285.748 324.866C278.45 321.266 273.266 322.613 260.746 326.652Z" stroke="#292524" stroke-width="0.612512" stroke-linecap="round" stroke-linejoin="round"/>
<path d="M325.872 303.14C326.688 302.58 327.361 302.117 327.825 301.771C336.384 295.336 357.742 285.256 367.682 295.222C373.665 301.221 383.719 314.972 381.36 324.421C380.264 328.794 378.574 331.882 376.007 335.74C375.687 336.165 375.348 336.575 374.99 336.968C373.722 338.43 371.885 340.548 372.437 341.099C374.703 343.368 377.72 345.734 380.916 348.241C392.248 357.123 405.84 367.78 396.23 382.214C392.762 387.422 384.071 383.738 380.763 380.424C378.095 377.75 376.116 374.283 374.196 370.923C370.146 363.83 366.369 357.218 356.97 359.572C345.218 362.515 351.125 369.916 357.155 377.472C361.258 382.612 365.416 387.823 364.11 391.749C361.794 398.711 350.269 406.929 342.697 401.874C338.589 399.13 337.411 395.405 336.109 391.288C335.606 389.699 335.086 388.052 334.37 386.381C329.435 374.845 326.111 363.145 322.686 351.088L321.878 348.253C321.162 345.738 319.209 342.265 317.088 338.498C313.508 332.13 309.45 324.918 310.073 320.046C310.923 313.396 320.965 306.506 325.872 303.14ZM331.602 319.055C334.577 313.396 347.495 304.777 351.752 308.699C359.813 316.064 355.332 319.875 352.239 322.504C351.547 323.092 350.926 323.622 350.528 324.119C345.712 330.155 337.132 335.144 333.385 328.802C333.164 328.423 332.909 328.039 332.645 327.64C331.218 325.48 329.548 322.949 331.602 319.055Z" stroke="#292524" stroke-width="0.612512" stroke-linecap="round" stroke-linejoin="round"/>
<path d="M418.629 250.902C404.011 255.966 385.595 267.188 386.938 281.441C387.742 289.933 393.144 298.024 396.443 305.651C408.634 333.795 421.417 368.837 452.216 356.459C465.078 351.303 487.572 330.886 473.739 315.917C462.564 303.801 451.67 311.657 441.236 318.746C439.596 319.855 428.376 328.104 426.315 325.521C416.716 313.461 439.103 307 444.456 300.555C449.808 294.111 443.531 289.124 440.721 285.602C436.317 280.064 423.751 290.458 418.933 293.18C417.759 293.833 411.309 298.796 410.173 296.889C408.583 294.235 408.163 288.071 409.448 285.675C412.651 279.723 424.189 278.183 428.969 272.425C437.809 261.807 427.399 253.049 418.629 250.902Z" stroke="#292524" stroke-width="0.612512" stroke-linecap="round" stroke-linejoin="round"/>
<path d="M446.723 244.892C442.444 247.468 449.282 260.828 454.415 261.513C460.654 262.314 479.456 251.79 481.042 254.605C489.773 270.039 499.604 301.449 505.763 318.073C508.132 324.449 521.069 323.505 532.148 317.372C539.685 306.299 500.912 249.445 501.602 248.45C506.036 242.032 509.781 236.515 515.535 230.29C524.795 220.275 508.321 198.485 499.994 202.133C489.285 206.84 451.615 237.767 446.723 244.892Z" stroke="#292524" stroke-width="0.612512" stroke-linecap="round" stroke-linejoin="round"/>
</svg>
