<svg width="603" height="612" viewBox="0 0 603 612" fill="none" xmlns="http://www.w3.org/2000/svg">
<path d="M93.3344 25.3644C91.9777 26.7414 97.9816 47.8248 98.3916 50.4176C100.249 60.9175 102.444 71.2379 103.457 81.8969C105.957 108.139 108.801 134.355 113.587 160.27C114.516 165.504 114.516 182.436 118.011 185.965C119.275 187.249 126.218 185.541 127.51 185.323C132.622 184.456 149.984 187.21 152.828 181.465C155.144 176.749 151.9 166.655 150.971 162.193C148.907 152.458 149.112 142.385 147.168 132.648C146.378 128.609 146.24 124.376 145.309 120.441C145.309 120.282 143.934 116.667 144.045 116.585C157.037 109.99 180.297 109.002 194.673 106.952C205.223 105.422 202.908 111.122 202.908 120.441C202.908 134.327 199.637 147.354 197.211 160.91C196.876 162.797 193.633 172.693 195.352 174.399C196.876 175.947 205.687 174.042 207.37 173.758C216.182 172.269 234.519 178.683 240.292 169.9C245.867 161.41 244.939 148.799 246.611 139.072C251.435 111.338 255.246 84.2572 257.375 56.201C258.136 46.201 258.518 35.8724 259.911 26.0152C260.052 24.9666 261.64 18.7793 260.544 17.6654C258.37 15.4582 222.391 11.4026 217.203 11.7596C208.216 12.4022 208.716 36.4579 206.105 52.323C205.78 54.3324 205.669 63.645 204.246 65.173C203.036 66.401 153.763 69.1836 152.346 67.7474C150.487 65.8604 152.085 60.0974 151.713 57.4658C150.246 47.0884 151.21 36.5966 147.281 26.6272C146.555 24.7402 146.015 18.5998 144.119 17.6369C140.598 15.8458 132.919 18.0714 129.557 18.9221C122.176 20.7785 98.464 20.1563 93.3344 25.3644Z" fill="#2953A7"/>
<path fill-rule="evenodd" clip-rule="evenodd" d="M321.373 29.6207C317.693 33.3641 266.731 179.54 269.855 180.732C277.921 183.796 303.184 188.306 306.065 179.532C307.514 175.126 309.486 168.512 311.604 161.399C316.292 145.662 321.709 127.479 323.827 125.329C324.468 124.677 365.448 125.291 366.759 133.3C369.008 146.959 371.388 160.846 374.353 174.41C374.552 175.313 374.616 177.021 374.688 178.953C374.827 182.706 375 187.315 376.258 188.561C378.32 190.662 386.161 189.973 391.576 189.495C393.381 189.336 394.917 189.202 395.88 189.202C396.953 189.202 398.408 189.349 400.008 189.51C403.723 189.885 408.205 190.336 410.434 189.202C410.545 189.116 395.916 99.4621 385.691 68.4541C384.873 65.9633 384.001 62.4096 383.022 58.4214C380.439 47.9113 377.116 34.3861 372.103 29.2984C369.621 26.7892 326.402 24.5166 321.373 29.6207ZM347.975 59.2721C350.558 54.064 364.853 86.7713 361.201 96.5898C360.64 98.1198 352.536 96.4103 349.893 95.8513L349.173 95.7024C348.87 95.6514 348.036 95.5637 346.886 95.4413C342.01 94.9272 331.459 93.8154 331.459 92.2874C331.459 87.7933 339.186 74.5394 344.182 65.9674C345.929 62.9726 347.342 60.5491 347.975 59.2721Z" fill="#2953A7"/>
<path d="M29.915 272.234C29.7461 271.781 24.9302 286.761 24.5141 288.439C23.7322 291.62 17.264 305.316 21.0368 307.232C36.6545 315.155 66.3221 308.174 82.9669 306.646C88.3216 306.157 103.184 309.627 107.272 305.478C108.036 304.694 107.272 298.874 107.272 297.836C107.272 292.515 109.885 280.318 104.371 278.46C97.3726 276.083 88.5728 278.111 81.2283 277.281C65.102 275.459 45.7638 272.234 29.915 272.234Z" fill="#1E9A64"/>
<path d="M170.858 244.33C165.28 241.849 168.068 253.659 168.068 258.479C168.068 272.319 167.847 285.836 166.34 299.589C163.634 324.259 161.377 348.917 158.812 373.595C158.589 375.783 155.094 392.762 156.497 394.16C157.232 394.904 164.778 394.743 165.791 394.743C172.53 394.743 190.106 401.188 193.573 392.395C198.498 379.886 199.782 365.83 201.103 352.454C201.575 347.625 200.664 338.794 203.416 336.003C205.042 334.351 218.473 335.832 220.194 336.003C226.374 336.634 241.626 333.974 245.66 340.116C251.292 348.7 247.974 370.859 247.974 380.679C247.974 383.915 247.399 394.196 250.864 395.951C254.926 398.017 263.143 396.545 267.65 396.545C272.735 396.545 278.544 397.356 282.699 394.196C292.68 386.593 286.594 361.538 286.594 351.171C286.594 322.221 281.824 240.595 280.96 239.717C278.618 237.341 251.895 239.613 249.546 241.217C245.632 243.895 246.533 266.941 244.498 285.554C244.247 287.912 244.963 300.354 243.345 301.997C242.072 303.288 234.981 301.656 233.502 301.411C226.672 300.25 219.058 300.826 212.125 300.826C211.074 300.826 204.327 301.77 203.444 300.826C202.116 299.477 203.444 290.45 203.444 288.488C203.444 277.47 204.596 266.564 204.596 255.593C204.596 254.008 205.804 245.075 204.596 243.848C201.836 241.105 169.481 244.33 170.858 244.33Z" fill="#FB8CAC"/>
<path fill-rule="evenodd" clip-rule="evenodd" d="M320.844 380.064C320.37 381.555 316.197 396.449 317.126 396.545C314.31 396.545 343.467 398.185 346.888 394.752C348.052 393.57 348.379 390.7 348.671 388.16C348.822 386.844 348.96 385.618 349.201 384.762C351.499 376.687 354.789 361.914 356.146 353.631C358.608 351.132 366.244 351.726 372.053 352.177C373.985 352.328 375.713 352.462 376.984 352.462C377.47 352.462 378.479 352.368 379.745 352.248C383.572 351.891 389.745 351.314 390.871 352.462C395.317 356.975 396.378 368.972 397.154 377.758C397.373 380.231 397.57 382.45 397.813 384.176C397.896 384.77 397.855 386.059 397.807 387.563C397.709 390.598 397.584 394.511 398.398 395.337C399.914 396.875 405.903 396.924 410.34 396.961C412.159 396.975 413.718 396.987 414.599 397.1C414.882 397.136 415.377 397.218 416.018 397.322C419.451 397.885 427.059 399.131 428.484 397.685C430.389 395.761 405.192 241.103 400.899 238.922C397.395 237.149 363.627 230.197 358.459 241.452C357.016 244.605 344.836 290.436 334.663 328.711C328.008 353.752 322.211 375.557 320.844 380.064ZM364.224 307.827C363.163 305.677 377.44 272.915 377.876 273.433C379.16 273.433 393.269 305.883 388.537 310.657C386.752 312.544 365.153 309.779 364.224 307.827Z" fill="#FB8CAC"/>
<path d="M72.8424 443.977C72.9268 443.504 68.2596 493.227 66.141 505.294C62.1813 527.791 60.6396 545.271 59.2367 568.052C58.9754 572.287 55.89 582.399 58.0729 586.843C59.3934 589.513 75.0554 594.287 77.1739 592.134C79.0332 590.202 80.3437 586.012 81.2261 583.326C85.2521 571.061 88.1043 556.175 89.9093 543.384C90.4098 539.808 91.2178 529.79 94.5544 528.111C98.3472 526.226 127.346 522.036 128.704 523.395C132.785 527.536 131.008 541.583 131.595 546.883C132.98 559.562 133.016 572.561 135.062 585.06C135.572 588.126 135.88 598.107 139.114 599.748C142.833 601.635 149.58 599.748 154.161 599.748C157.763 599.76 161.322 598.958 164.581 597.4C175.483 591.861 175.66 577.155 176.729 566.269C179.433 538.848 180.243 510.999 183.095 483.455C184.09 473.89 185.408 463.645 185.408 454.079C185.408 453.192 186.478 447.533 185.995 447.033C183.728 444.74 169.097 447.892 166.894 448.212C162.406 448.863 147.719 448.871 144.905 451.731C143.492 453.163 143.156 459.202 142.589 461.164C139.876 470.342 134.011 498.651 132.746 499.924C130.887 501.811 96.7674 502.756 95.7081 501.689C93.3946 499.341 102.828 446.646 101.497 445.307C98.7834 442.523 81.405 436.325 72.8424 443.977Z" fill="#FBC604"/>
<path fill-rule="evenodd" clip-rule="evenodd" d="M202.606 583.919C202.24 587.958 201.671 594.257 204.059 593.69C201.466 596.324 228.28 599.682 231.683 596.21C232.497 595.375 232.354 590.698 232.284 588.421C232.271 588.08 232.263 587.74 232.26 587.399C232.26 579.353 236.645 557.533 238.087 556.071C242.436 551.656 272.514 555.581 272.765 556.864C274.54 565.787 276.055 574.929 277.412 583.88C277.527 584.623 277.563 585.775 277.605 587.083C277.706 590.239 277.836 594.292 279.149 595.624C279.428 595.914 284.118 595.008 288.103 594.239C290.757 593.727 293.098 593.276 293.621 593.276C294.306 593.276 295.221 593.339 296.258 593.411C299.9 593.662 305.044 594.015 306.931 592.105C307.701 591.318 306.897 587.952 306.517 586.35C306.458 586.116 306.404 585.881 306.354 585.645C305.293 580.275 304.664 574.753 304.039 569.243C303.679 566.081 303.319 562.921 302.879 559.798C301.381 549.153 300.282 538.568 299.187 528.006C297.359 510.387 295.538 492.843 291.884 475.219C291.534 473.532 291.207 471.133 290.841 468.438C289.826 460.966 288.501 451.231 285.517 448.202C282.729 445.372 245.298 443.646 243.272 444.675C239.011 446.837 236.217 457.916 234.499 464.732C234.081 466.388 233.727 467.794 233.429 468.757C230.64 477.841 227.637 486.878 224.632 495.919C218.198 515.279 211.758 534.651 207.406 554.514C205.416 563.515 203.408 572.862 202.757 582.117C202.723 582.625 202.668 583.239 202.606 583.919ZM245.588 507.527C244.277 506.197 258.786 472.935 260.747 474.028C262.048 474.028 266.695 491.819 268.154 499.263C268.204 499.514 268.319 499.934 268.462 500.462C269.137 502.945 270.464 507.817 268.731 508.696C266.655 509.753 263.614 509.563 260.928 509.396C260.061 509.331 259.191 509.293 258.321 509.281C258.02 509.281 257.658 509.285 257.25 509.289C253.899 509.328 247.443 509.402 245.588 507.527Z" fill="#FBC604"/>
<path fill-rule="evenodd" clip-rule="evenodd" d="M345.246 571.611C343.545 580.29 342.279 586.752 341.674 589.625C338.494 592.842 368.349 597.011 373.555 593.917C376.712 592.009 379.878 573.743 382.551 558.321C384.541 546.836 386.258 536.927 387.496 536.525C390.553 535.487 394.672 535.328 398.794 535.169C402.655 535.018 406.521 534.869 409.523 533.998C413.055 539.345 416.012 546.552 417.21 558.098C418.392 569.371 421.682 590.059 423.595 592.011C424.536 592.958 432.924 592.797 436.086 592.736C436.58 592.725 436.946 592.719 437.137 592.719C437.885 592.719 438.761 592.764 439.696 592.813C443.016 592.987 447.078 593.197 448.718 591.54C453.189 587.003 425.073 445.55 418.13 442.033C411.662 438.722 381.677 440.89 374.111 444.862C369.617 447.235 352.962 532.235 345.246 571.611ZM385.94 493.369C388.953 485.217 391.387 479.314 397.745 472.276C401.397 476.021 409.298 494.095 406.77 499.244C404.344 504.187 387.42 503.679 384.204 500.415C383.355 499.555 385.046 495.519 385.713 493.928C385.822 493.669 385.902 493.473 385.94 493.369Z" fill="#FBC604"/>
<path d="M453.836 211.834C453 211.73 463.715 215.059 464.812 215.806C467.518 217.635 469.962 219.192 472.657 221.379C475.353 223.568 489.823 246.124 486.766 249.227C482.703 253.35 467.2 253.642 462.145 258.764C459.896 261.057 465.936 279.007 468.734 281.857C470.947 284.093 481.747 279.441 483.606 278.668C501.117 271.555 511.052 265.961 516.536 288.215C517.651 292.742 522.513 315.572 518.887 319.25C513.44 324.778 495.567 317.449 489.879 323.23C488.345 324.786 490.661 336.58 490.661 339.144C490.661 340.747 489.517 349.126 490.661 350.287C495.308 355.003 525.886 347.728 526.817 352.947C528.071 360.058 525.106 380.84 522.811 394.848C522.457 396.943 516.889 408.735 518.097 409.942C519.798 411.668 534.577 411.535 536.919 411.535C540.199 411.535 545.508 412.611 548.678 411.535C557.906 408.414 555.731 366.029 555.731 355.88C555.731 353.699 551.707 342.155 553.381 341.559C559.17 339.493 565.148 339.05 581.264 333.579C587.863 331.335 572.444 310.374 571.085 309.052C567.554 305.458 547.85 316.1 549.468 312.165C551.502 307.24 547.357 271.094 536.929 263.621C535.562 262.679 560.48 245.151 563.26 244.519C569.7 243.066 554.44 222.097 551.037 218.266C547.236 213.994 527.866 220.804 523.601 222.248C522.67 222.578 515.866 227.907 514.974 227.022C512.399 224.408 490.735 192.437 475.771 184.855C473.707 183.798 466.3 179.306 464.794 180.071C461.317 181.778 453.836 208.013 453.836 211.834Z" fill="#1E9A64"/>
</svg>
