<svg width="612" height="612" viewBox="0 0 612 612" fill="none" xmlns="http://www.w3.org/2000/svg">
<path d="M108.11 381.025C108.642 378.589 110.044 375.921 112.54 373.026C130.998 351.643 206.746 297.395 249.212 277.658L251.067 276.796C263.123 271.153 289.439 258.852 302.254 265.382C300.963 263.589 299.513 261.612 298.215 259.843C296.988 258.187 295.784 256.514 294.604 254.825C291.479 249.787 287.99 244.984 284.164 240.455C279.694 235.471 275.247 230.467 270.822 225.443C263.258 216.893 255.693 208.343 247.933 199.977C226.455 176.822 202.238 156.367 175.815 139.065C171.048 135.968 166.494 132.449 161.923 128.918C152.724 121.807 143.459 114.658 132.302 110.772C130.001 109.952 126.91 108.385 123.385 106.586C112.883 101.243 98.5257 93.9421 89.5293 98.8137C85.6186 100.937 85.7716 107.327 85.8818 111.972C85.9124 113.422 85.943 114.701 85.845 115.625C85.3065 120.509 84.8291 125.387 84.3456 130.264C83.1584 142.241 81.9711 154.218 80.031 166.25C75.2268 196.165 77.3505 227.56 80.1718 255.645C80.7042 260.994 81.1755 266.355 81.6406 271.698C83.6235 294.458 85.5941 317.065 92.8402 337.977C94.1009 341.582 95.1903 345.529 96.3531 349.721C98.9969 359.263 101.99 370.07 108.11 381.025Z" fill="#1E9A64"/>
<path d="M225.601 446.925C228.612 442.886 233.833 440.328 241.954 440.328C279.457 440.328 398.112 472.054 453.584 499.863L455.701 500.916C471.889 508.964 508.792 527.318 510.071 548.701C510.799 547.587 513.199 539.221 515.028 532.868C515.946 529.655 516.718 526.957 517.06 525.971C519.604 519.288 521.6 512.409 523.027 505.402C524.312 497.893 525.659 490.39 527.011 482.88C529.508 469.006 532.005 455.114 534.129 441.166C539.823 403.802 540.408 365.836 535.867 328.314C535.071 321.637 534.839 314.837 534.612 308.026C534.141 294.023 533.67 279.935 528.193 266.587C527.054 263.79 526.044 259.672 524.888 254.978C521.497 241.195 516.895 222.468 504.282 217.86C498.81 215.865 492.366 220.828 487.66 224.451C486.428 225.447 485.141 226.373 483.804 227.223C478.682 230.222 473.596 233.27 468.504 236.318C454.795 244.519 441.056 252.75 426.619 260.284C391.6 278.436 360.994 304.244 334.384 328.155C329.397 332.634 324.348 337.065 319.299 341.49C297.413 360.67 275.663 379.734 260.112 402.359C256.77 407.231 252.462 411.662 247.896 416.35C239.934 424.52 231.213 433.474 225.601 446.925Z" fill="#1E9A64"/>
<path d="M500.524 217.401C492.678 212.303 490.854 193.472 488.97 185.314C488.48 183.135 484.165 167.908 484.704 167.908" stroke="#292524" stroke-width="0.612512" stroke-linecap="round" stroke-linejoin="round"/>
<path d="M86.5731 102.633C79.6086 104.475 66.524 95.5639 60.3428 92.3142C58.7088 91.4391 46.787 85.8209 47.0318 85.5088" stroke="#292524" stroke-width="0.612512" stroke-linecap="round" stroke-linejoin="round"/>
<path d="M507.385 219.708C507.385 215.73 511.179 209.928 512.152 208.153C518.468 196.617 523.046 179.004 535.194 170.112" stroke="#292524" stroke-width="0.612512" stroke-linecap="round" stroke-linejoin="round"/>
<path d="M89.8414 98.3425C87.3934 99.9581 85.3188 90.9617 84.6211 89.4685C80.1657 79.6887 70.9429 67.6996 70.9796 55.9492" stroke="#292524" stroke-width="0.612512" stroke-linecap="round" stroke-linejoin="round"/>
<path d="M510.114 221.079C509.594 221.966 527.954 214.586 531.259 213.301C544.068 208.301 576.504 190.901 576.504 188.362" stroke="#292524" stroke-width="0.612512" stroke-linecap="round" stroke-linejoin="round"/>
<path d="M93.4829 98.5077C93.8134 99.2727 97.7669 84.7254 98.5013 82.1305C101.365 72.0754 105.46 44.0703 103.875 42.73" stroke="#292524" stroke-width="0.612512" stroke-linecap="round" stroke-linejoin="round"/>
<path d="M286.11 372.2C295.865 370.26 303.429 368.877 308.907 367.898C320.914 365.78 357.426 354.293 368.773 359.985C372.408 361.723 366.282 369.605 365.609 371.246C361.41 381.497 358.418 391.515 353.283 401.68C352.671 402.904 345.731 412.696 348.154 413.859C352.132 415.848 359.886 411.833 369.746 407.91C386.123 401.405 406.294 399.018 423.455 394.11C431.044 391.937 439.116 389.703 441.258 390.732C443.706 391.968 442.402 397.035 442.353 401.54C442.231 412.556 439.569 423.676 438.192 434.747C438.033 435.965 435.04 447.935 436.662 448.67C439.391 450.022 457.005 446.473 460.052 446.142C477.678 444.245 495.273 441.619 513.076 439.704C517.079 439.288 530.965 434.361 534.808 435.2" stroke="#292524" stroke-width="0.612512" stroke-linecap="round" stroke-linejoin="round"/>
<path d="M392.255 281.141C411.57 276.734 448.896 273.668 459.857 272.677C461.283 272.536 469.587 271.036 470.94 272.046C473.223 273.79 471.797 280.492 471.797 282.646C471.988 293.398 470.55 304.118 467.531 314.44C466.956 316.355 463.235 325.645 465.793 327.53C469.012 329.874 479.037 325.352 481.154 324.409C492.801 319.311 521.944 311.19 534.545 308.105" stroke="#292524" stroke-width="0.612512" stroke-linecap="round" stroke-linejoin="round"/>
<path d="M79.4682 248.387C81.5735 247.977 83.6971 247.64 85.8269 247.297C92.0142 246.318 98.2199 245.327 104.113 242.591C116.084 237.022 125.154 223.239 130.007 211.618L130.221 211.104C132.486 205.571 136.354 196.146 132.743 190.736C121.586 174.01 99.1562 179.598 84.9027 187.603C84.2907 187.945 83.6665 188.282 83.0484 188.619C81.0655 189.69 79.0949 190.761 77.4669 192.119C76.6101 211.226 77.7974 230.382 79.4682 248.387Z" fill="#FB8CAC"/>
<path d="M221.385 173.967C214.714 175.093 207.395 177.076 201.556 180.589C199.567 181.783 198.355 184.555 197.333 186.905C197.027 187.597 196.74 188.251 196.452 188.821C190.883 199.977 191.984 215.779 200.773 225.369C209.953 235.32 230.357 237.548 242.725 234.066C246.373 232.982 258.698 228.074 267.609 221.82C261.136 214.46 254.577 207.177 247.933 199.971C239.503 190.885 230.644 182.207 221.385 173.967Z" fill="#FB8CAC"/>
<path d="M112.54 373.026C110.044 375.921 108.642 378.596 108.11 381.025C101.99 370.07 98.9908 359.262 96.3592 349.721C95.5269 346.735 94.7313 343.871 93.8867 341.166C94.7313 338.051 95.5146 335.621 96.0042 334.311C99.9057 323.501 107.559 314.451 117.571 308.809C132.987 300.682 149.97 300.841 162.657 313.528C163.759 314.629 167.278 319.464 171.329 325.107C144.995 343.687 121.702 362.408 112.54 373.026Z" fill="#FB8CAC"/>
<path d="M108.11 381.025C108.642 378.589 110.044 375.921 112.54 373.026C130.998 351.643 206.746 297.395 249.212 277.658L251.067 276.796C263.123 271.153 289.439 258.852 302.254 265.382C300.963 263.589 299.513 261.612 298.215 259.843C296.988 258.187 295.784 256.514 294.604 254.825C291.479 249.787 287.99 244.984 284.164 240.455C279.694 235.471 275.247 230.467 270.822 225.443C263.258 216.893 255.693 208.343 247.933 199.977C226.455 176.822 202.238 156.367 175.815 139.065C171.048 135.968 166.494 132.449 161.923 128.918C152.724 121.807 143.459 114.658 132.302 110.772C130.001 109.952 126.91 108.385 123.385 106.586C112.883 101.243 98.5257 93.9421 89.5293 98.8137C85.6186 100.937 85.7716 107.327 85.8818 111.972C85.9124 113.422 85.943 114.701 85.845 115.625C85.3065 120.509 84.8291 125.387 84.3456 130.264C83.1584 142.241 81.9711 154.218 80.031 166.25C75.2268 196.165 77.3505 227.56 80.1718 255.645C80.7042 260.994 81.1755 266.355 81.6406 271.698C83.6235 294.458 85.5941 317.065 92.8402 337.977C94.1009 341.582 95.1903 345.529 96.3531 349.721C98.9969 359.263 101.99 370.07 108.11 381.025Z" stroke="#292524" stroke-width="0.612512" stroke-linecap="round" stroke-linejoin="round"/>
<path d="M79.4682 248.387C81.5735 247.977 83.6971 247.64 85.8269 247.297C92.0142 246.318 98.2199 245.327 104.113 242.591C116.084 237.022 125.154 223.239 130.007 211.618L130.221 211.104C132.486 205.571 136.354 196.146 132.743 190.736C121.586 174.01 99.1562 179.598 84.9027 187.603C84.2907 187.945 83.6665 188.282 83.0484 188.619C81.0655 189.69 79.0949 190.761 77.4669 192.119C76.6101 211.226 77.7974 230.382 79.4682 248.387Z" stroke="#292524" stroke-width="0.612512" stroke-linecap="round" stroke-linejoin="round"/>
<path d="M221.385 173.967C214.714 175.093 207.395 177.076 201.556 180.589C199.567 181.783 198.355 184.555 197.333 186.905C197.027 187.597 196.74 188.251 196.452 188.821C190.883 199.977 191.984 215.779 200.773 225.369C209.953 235.32 230.357 237.548 242.725 234.066C246.373 232.982 258.698 228.074 267.609 221.82C261.136 214.46 254.577 207.177 247.933 199.971C239.503 190.885 230.644 182.207 221.385 173.967Z" stroke="#292524" stroke-width="0.612512" stroke-linecap="round" stroke-linejoin="round"/>
<path d="M112.54 373.026C110.044 375.921 108.642 378.596 108.11 381.025C101.99 370.07 98.9908 359.262 96.3592 349.721C95.5269 346.735 94.7313 343.871 93.8867 341.166C94.7313 338.051 95.5146 335.621 96.0042 334.311C99.9057 323.501 107.559 314.451 117.571 308.809C132.987 300.682 149.97 300.841 162.657 313.528C163.759 314.629 167.278 319.464 171.329 325.107C144.995 343.687 121.702 362.408 112.54 373.026Z" stroke="#292524" stroke-width="0.612512" stroke-linecap="round" stroke-linejoin="round"/>
<path d="M237.517 58.6113C256.342 59.3457 281.281 57.3077 299.103 51.3774" stroke="#292524" stroke-width="0.612512" stroke-linecap="round" stroke-linejoin="round"/>
<path d="M274.635 28.3052C268.784 45.9002 268.784 65.6617 268.784 80.4721" stroke="#292524" stroke-width="0.612512" stroke-linecap="round" stroke-linejoin="round"/>
<path d="M375.725 134.989C348.075 134.989 331.294 165.222 352.769 186.691C374.244 208.166 398.449 175.326 406.105 160.008C412.163 147.884 396.221 131.77 375.725 134.989Z" stroke="#292524" stroke-width="0.612512" stroke-linecap="round" stroke-linejoin="round"/>
<path d="M483.706 46.1082C482.189 46.1082 482.954 53.3298 482.954 58.287C482.954 64.7803 480.536 70.8942 480.536 77.6751" stroke="#292524" stroke-width="0.612512" stroke-linecap="round" stroke-linejoin="round"/>
<path d="M53.0725 487.477C58.8681 483.058 66.1754 481.161 72.9809 478.884" stroke="#292524" stroke-width="0.612512" stroke-linecap="round" stroke-linejoin="round"/>
<path d="M178.765 528.352C173.269 532.061 177.29 551.669 177.29 557.789" stroke="#292524" stroke-width="0.612512" stroke-linecap="round" stroke-linejoin="round"/>
<path d="M557.091 105.564C566.492 105.405 575.537 104.328 585.09 104.328" stroke="#292524" stroke-width="0.612512" stroke-linecap="round" stroke-linejoin="round"/>
<path d="M241.954 440.334C279.457 440.334 398.112 472.054 453.584 499.864C470.071 508.113 518.223 530.806 508.921 556.437C502.599 573.842 457.843 566.272 443.779 566.272C367.371 566.272 299.194 537.055 240.289 494.919C224.169 483.437 208.637 440.328 241.954 440.328V440.334Z" fill="#FBC604"/>
<path d="M112.541 373.026C130.999 351.643 206.746 297.395 249.212 277.658C261.881 271.783 297.909 253.956 307.297 270.149C313.687 281.165 287.505 303.442 280.571 311.398C242.933 354.96 193.441 381.411 141.476 397.108C127.235 401.527 96.0901 392.072 112.541 373.026Z" fill="#FBC604"/>
<path d="M225.601 446.925C228.612 442.886 233.833 440.328 241.954 440.328C279.457 440.328 398.112 472.054 453.584 499.863L455.701 500.916C471.889 508.964 508.792 527.318 510.071 548.701C510.799 547.587 513.199 539.221 515.028 532.868C515.946 529.655 516.718 526.957 517.06 525.971C519.604 519.288 521.6 512.409 523.027 505.402C524.312 497.893 525.659 490.39 527.011 482.88C529.508 469.006 532.005 455.114 534.129 441.166C539.823 403.802 540.408 365.836 535.867 328.314C535.071 321.637 534.839 314.837 534.612 308.026C534.141 294.023 533.67 279.935 528.193 266.587C527.054 263.79 526.044 259.672 524.888 254.978C521.497 241.195 516.895 222.468 504.282 217.86C498.81 215.865 492.366 220.828 487.66 224.451C486.428 225.447 485.141 226.373 483.804 227.223C478.682 230.222 473.596 233.27 468.504 236.318C454.795 244.519 441.056 252.75 426.619 260.284C391.6 278.436 360.994 304.244 334.384 328.155C329.397 332.634 324.348 337.065 319.299 341.49C297.413 360.67 275.663 379.734 260.112 402.359C256.77 407.231 252.462 411.662 247.896 416.35C239.934 424.52 231.213 433.474 225.601 446.925Z" stroke="#292524" stroke-width="0.612512" stroke-linecap="round" stroke-linejoin="round"/>
<path d="M241.954 440.334C279.457 440.334 398.112 472.054 453.584 499.864C470.071 508.113 518.223 530.806 508.921 556.437C502.599 573.842 457.843 566.272 443.779 566.272C367.371 566.272 299.194 537.055 240.289 494.919C224.169 483.437 208.637 440.328 241.954 440.328V440.334Z" stroke="#292524" stroke-width="0.612512" stroke-linecap="round" stroke-linejoin="round"/>
<path d="M112.541 373.026C130.999 351.643 206.746 297.395 249.212 277.658C261.881 271.783 297.909 253.956 307.297 270.149C313.687 281.165 287.505 303.442 280.571 311.398C242.933 354.96 193.441 381.411 141.476 397.108C127.235 401.527 96.0901 392.072 112.541 373.026Z" stroke="#292524" stroke-width="0.612512" stroke-linecap="round" stroke-linejoin="round"/>
</svg>
