<svg width="608" height="613" viewBox="0 0 608 613" fill="none" xmlns="http://www.w3.org/2000/svg">
<path d="M169.255 299.328C171.055 301.498 200.507 550.511 198.908 558.474C196.482 570.532 129.656 586.507 107.963 590.368C99.3658 591.889 86.7559 567.663 80.986 557.53C70.2852 538.87 68.1085 355.32 81.5271 322.445C89.4554 302.89 166.526 295.914 169.255 299.322V299.328Z" fill="#2953A7"/>
<path d="M370.704 252.207C357.669 256.67 303.891 271.357 302.991 270.578C301.806 269.524 313.984 243.018 319.395 233.296C337.793 200.531 334.881 143.289 281.845 140.512C252.418 138.974 221.215 156.432 210.423 193.261C205.359 210.554 200.507 253.488 197.479 280.258C196.026 293.119 194.998 302.246 194.56 303.018C194.378 303.349 191.52 304.263 187.629 305.501C182.723 307.07 176.156 309.173 171.189 311.306C177.208 354.952 194.84 504.928 198.36 547.385C219.336 549.494 322.757 557.702 416.906 526.193C505.048 496.671 526.76 440.189 535.752 392.008C544.398 345.898 557.336 272.497 499.783 245.133C498.858 244.704 497.934 244.256 497.016 243.815C490.048 240.468 483.154 237.164 475.45 235.257C442.497 227.105 410.498 238.31 380.426 248.829C377.161 249.976 373.92 251.11 370.704 252.207Z" fill="#F5AC5F"/>
<path d="M169.255 299.328C171.055 301.498 200.507 550.511 198.908 558.474C196.482 570.532 129.656 586.507 107.963 590.368C99.3658 591.889 86.7559 567.663 80.986 557.53C70.2852 538.87 68.1085 355.32 81.5271 322.445C89.4554 302.89 166.526 295.914 169.255 299.322V299.328Z" stroke="#292524" stroke-width="0.612512" stroke-linecap="round" stroke-linejoin="round"/>
<path d="M370.704 252.207C357.669 256.67 303.891 271.357 302.991 270.578C301.806 269.524 313.984 243.018 319.395 233.296C337.793 200.531 334.881 143.289 281.845 140.512C252.418 138.974 221.215 156.432 210.423 193.261C205.359 210.554 200.507 253.488 197.479 280.258C196.026 293.119 194.998 302.246 194.56 303.018C194.378 303.349 191.52 304.263 187.629 305.501C182.723 307.07 176.156 309.173 171.189 311.306C177.208 354.952 194.84 504.928 198.36 547.385C219.336 549.494 322.757 557.702 416.906 526.193C505.048 496.671 526.76 440.189 535.752 392.008C544.398 345.898 557.336 272.497 499.783 245.133C498.858 244.704 497.934 244.256 497.016 243.815C490.048 240.468 483.154 237.164 475.45 235.257C442.497 227.105 410.498 238.31 380.426 248.829C377.161 249.976 373.92 251.11 370.704 252.207Z" stroke="#292524" stroke-width="0.612512" stroke-linecap="round" stroke-linejoin="round"/>
<path d="M418.42 343.851C457.332 352.157 503.266 340.859 539.29 318.246" stroke="#292524" stroke-width="0.612512" stroke-linecap="round" stroke-linejoin="round"/>
<path d="M421.892 430.799C467.084 438.05 492.62 429.965 531.97 406.009" stroke="#292524" stroke-width="0.612512" stroke-linecap="round" stroke-linejoin="round"/>
<path d="M123.722 109.636C123.722 110.666 129.28 115.778 129.62 116.072C138.893 124.215 147.931 132.625 156.725 141.291" stroke="#292524" stroke-width="0.612512" stroke-linecap="round" stroke-linejoin="round"/>
<path d="M247.438 22.5588C248.192 40.0293 250.205 57.0094 252.181 74.388" stroke="#292524" stroke-width="0.612512" stroke-linecap="round" stroke-linejoin="round"/>
<path d="M341.927 112.008C350.543 100.024 355.972 87.4942 366.515 76.4541" stroke="#292524" stroke-width="0.612512" stroke-linecap="round" stroke-linejoin="round"/>
</svg>
