<svg width="609" height="616" viewBox="0 0 609 616" fill="none" xmlns="http://www.w3.org/2000/svg">
<path d="M152.22 288.861C157.701 270.707 194.844 48.707 197.395 46.0027C199.953 43.2923 210.635 43.2923 214.094 42.8919C234.837 40.3971 256.194 42.7195 276.9 44.7584C294.415 46.514 340.998 67.113 356.825 76.1128C442.219 124.58 426.824 228.579 398.037 241.127C387.16 245.87 366.466 177.057 329.524 162.168C314.987 156.316 282.217 142.715 267.656 138.778C265.798 138.267 256.018 135.452 254.989 138.778C250.458 153.47 252.68 171.852 252.68 187.332C252.68 257.999 254.057 377.891 219.1 409.683C189.247 436.836 155.904 475.145 80.7536 432.986C52.5935 417.167 32.1067 370.314 30.3711 358.943C25.0179 324.201 37.7034 293.604 69.4262 275.136C87.4953 264.59 110.759 262.465 129.352 271.409C132.981 273.147 151.124 288.861 152.22 288.861Z" fill="#FB8CAC"/>
<path d="M319.871 449.348C320.998 449.027 298.361 438.167 297.277 437.958C290.373 436.749 283.29 437.098 276.535 438.98C259.44 443.477 240.378 455.988 231.639 472.528C211.366 510.997 237.303 550.347 273.636 559.464C283.276 561.872 314.451 555.546 324.317 555.022C391.855 551.388 372.288 388.271 372.288 379.506C372.288 379.506 427.89 367.118 448.334 365.781C461.525 364.9 474.673 364.765 487.919 364.765C491.025 364.765 498.546 362.744 501.432 364.253C504.319 365.763 502.876 375.606 502.876 378.483C502.876 394.813 502.717 411.476 501.901 427.8C501.518 435.5 500.683 443.97 501.432 451.682C501.78 455.409 501.901 462.881 501.901 462.881C501.901 462.881 495.385 455.84 491.28 453.721C484.106 449.945 474.094 449.015 466.19 449.662C447.183 451.189 431.665 478.429 429.284 498.467C423.499 547.267 458.821 557.764 495.988 559.15C507.09 559.575 524.587 553.877 535.323 551.031C584.999 537.602 584.561 417.679 569.951 362.72C564.58 342.552 559.89 304.729 546.876 287.98C536.815 274.976 474.161 280.403 443.029 283.921C410.972 287.543 376.405 290.038 345.541 300.195C340.571 301.828 323.215 304.52 320.438 310.372C318.836 313.747 320.243 321.515 319.969 325.094C318.976 337.402 320.072 349.857 319.481 362.214C318.702 380.312 319.865 441.401 319.865 449.348H319.871Z" fill="#2953A7"/>
</svg>
