<svg width="611" height="613" viewBox="0 0 611 613" fill="none" xmlns="http://www.w3.org/2000/svg">
<path d="M147.985 222.729C141.736 214.824 128.412 209.807 113.679 210.972C101.276 211.933 87.0516 215.292 76.1799 220.38C34.2246 240.01 25.972 289.53 23.9109 325.904C22.7418 346.77 22.7215 364.181 35.0514 382.698C41.5504 392.494 48.5871 400.957 62.1798 404.502C72.7277 407.29 85.1779 406.86 96.0863 406.86C108.657 406.86 118.767 407.741 129.862 401.061C140.596 394.602 148.653 383.297 148.653 372.894C148.653 367.622 149.86 360.781 147.064 356.09C143.881 350.736 134.559 351.746 128.803 351.746C122.852 351.746 117.663 351.584 112.445 353.764C110.504 354.571 109.009 360.959 108.054 362.833C102.716 373.331 87.8235 379.404 75.744 373.589C61.0006 366.49 59.0332 350.597 56.9904 337.967C53.4812 315.801 54.5199 292.947 67.7603 273.104C72.0393 266.7 75.188 259.456 82.5221 254.959C91.74 249.305 112.147 245.357 116.428 257.987C118.025 262.679 116.809 267.129 115.239 271.763C114.887 272.789 112.705 277.691 114.042 278.823C115.899 280.364 121.524 280.503 124.013 280.503C126.406 280.623 128.805 280.623 131.198 280.503C134.113 280.194 138.005 280.268 140.771 279.493C151.223 268.974 155.37 232.076 147.985 222.729Z" fill="#2953A7"/>
<path fill-rule="evenodd" clip-rule="evenodd" d="M232.08 220.698C241.262 220.539 263.691 220.145 277.685 232.807C287.61 241.843 286.877 264.538 286.877 278.134C286.877 304.383 289.973 347.925 276.117 373.266C267.883 388.278 246.873 397.612 228.638 399.809C219.679 400.884 210.013 400.052 201.111 398.799C175.412 395.191 167.604 374.339 167.604 354.772C167.604 328.01 171.251 302.548 175.96 276.14C178.726 260.603 182.43 243.806 196.31 232.112C204.693 225.047 216.494 219.756 228.62 220.694C229.302 220.747 230.494 220.727 232.08 220.698ZM244.133 248.173C252.991 253.11 251.26 265.388 250.983 273.286C250.223 295.023 261.188 350.663 236.158 362.218C232.398 363.928 228.164 363.928 224.18 363.928C186.913 363.928 209.952 300.805 211.573 279.657C212.174 271.829 212.84 263.145 217.005 257.178C219.716 253.294 224.579 247.625 229.372 246.89C233.215 246.299 239.074 245.355 244.133 248.173Z" fill="#2953A7"/>
<path fill-rule="evenodd" clip-rule="evenodd" d="M335.944 211.93C340.187 210.726 365.783 211.202 374.464 211.93L375.225 211.993C391.132 213.319 401.089 226.95 403.987 242.537C407.582 261.926 407.916 281.495 408.248 301.095C408.413 310.784 408.612 320.47 409.134 330.147C409.828 343.038 410.592 357.188 403.327 368.224C387.814 391.766 348.969 391.523 324.626 387.042L324.044 386.933C320.066 386.208 314.445 385.18 311.349 382.673C302.716 368.224 303.708 357.501 302.716 349.74C300.296 330.981 301.881 312.55 303.48 293.955C304.14 286.295 304.738 278.635 305.209 270.96C305.881 259.956 306.561 248.849 309.019 238.168C312.064 224.932 324.802 215.16 335.944 211.93ZM338.745 257.169C340.71 239.541 354.84 228.577 370.266 238.781C373.659 241.092 373.72 247.096 373.765 251.701C373.777 252.905 373.79 254.01 373.859 254.932C374.183 259.319 374.592 263.675 374.999 268.028C375.68 275.273 376.36 282.509 376.643 289.859C377.278 306.226 377.172 322.585 377.474 338.954C377.564 343.833 377.682 350.133 375.445 353.899C371.425 360.658 356.478 361.085 349.914 360.166C340.851 358.87 340.826 343.024 340.81 333.016C340.798 325.249 340.085 317.501 339.504 309.761C338.189 292.21 336.838 274.241 338.745 257.169Z" fill="#2953A7"/>
<path d="M478.611 212.086C474.034 207.96 439.71 206.642 438.281 210.188C433.399 222.302 424.661 356.656 424.002 368.008C423.344 379.363 425.739 381.932 429.488 386.664C431.912 389.717 437.334 390.798 441.067 391.711C454.66 395.054 469.654 394.408 483.635 394.408C496.008 394.408 524.923 401.54 535.487 392.05C536.183 391.421 540.788 355.71 540.128 355.162C538.049 353.28 528.904 353.644 526.314 353.48C514.662 352.73 502.861 353.004 491.22 352.132C487.943 351.891 474.582 352.093 472.93 349.104C471.723 346.94 473.366 250.404 478.157 220.161C478.417 219.039 479.623 212.999 478.611 212.086Z" fill="#2953A7"/>
<path d="M562.306 144.774C562.925 142.939 557.605 152.624 557.129 153.54C554.151 159.396 549.888 164.609 544.613 168.844C537.788 174.196 529.737 178.031 521.075 180.058C518.137 180.708 515.1 181.589 512.086 181.948C510.613 182.116 494.715 177.167 496.065 177.733C512.935 184.809 527.721 213.407 526.041 228.992C525.448 234.409 519.373 253.06 519.941 252.096C530.495 234.401 544.12 221.908 557.432 216.951C563.196 214.799 569.206 214.723 575.184 213.591C577.454 213.162 592.67 215.933 592.67 215.933C592.67 215.933 579.002 210.071 578.031 208.097C575.99 203.937 573.338 200.095 571.173 195.955C564.646 183.493 554.568 159.715 562.306 144.774Z" fill="#FBC604"/>
</svg>
