<svg width="602" height="609" viewBox="0 0 602 609" fill="none" xmlns="http://www.w3.org/2000/svg">
<path d="M132.655 216.75C124.945 219.048 117.661 210.572 110.194 207.529C95.5774 201.577 75.7897 202.694 63.3142 212.677C55.1912 219.171 48.7579 229.502 48.0033 239.8C46.9057 254.843 64.2975 261.901 62.355 277.219C61.0989 287.038 51.8341 291.399 47.0442 299.2C39.9707 310.728 33.158 328.458 37.0008 342.228C43.6228 365.975 69.0473 357.654 77.6599 374.499C89.0738 396.804 67.149 428.629 94.4175 445.606C125.29 464.814 142.192 421.702 168.572 418.481C195.792 415.152 194.984 449.349 215.456 449.349C242.967 449.349 248.505 417.545 269.989 417.545C296.633 417.545 293.728 458.344 323.571 455.429C347.45 453.074 354.586 416.936 377.628 411.93C403.627 406.28 413.751 437.831 437.905 439.993C469.373 442.79 467.836 410.838 489.109 403.045C509.814 395.459 531.329 413.438 550.824 396.5C555.507 392.426 557.657 386.409 560.39 381.064C568.34 365.524 569.49 347.53 553.216 336.166C545.932 331.081 535.993 326.321 534.56 316.526C532.698 303.863 541.742 298 547.952 288.459C554.468 278.453 558.923 267.118 554.311 255.874C542.119 226.169 510.931 243.568 497.721 232.799C491.814 227.982 492.167 217.048 491.027 210.347C488.752 197 481.624 183.119 467.585 178.545C451.149 173.186 433.739 176.832 418.308 183.689C409.663 187.53 401.401 196.6 391.039 194.915C379.294 192.999 373.615 177.02 367.601 169.189C360.917 160.478 348.456 154.654 337.461 153.757C321.775 152.478 306.584 156.889 293.449 165.449C280.452 173.927 274.518 185.827 257.574 187.897C244.918 189.442 233.744 175.762 225.519 168.722C214.179 159.027 191.311 155.23 177.201 159.37C164.354 163.137 153.331 168.624 147.06 180.882C140.792 193.139 150.885 211.321 132.655 216.75Z" fill="#1E9A64"/>
<path d="M98.1601 331.52C94.1448 310.018 91.1087 292.515 95.1441 270.9C97.2953 259.378 100.959 255.573 110.003 248.298C119.206 240.894 159.307 235.111 167.609 245.232C174.102 253.172 185.799 302.403 188.681 303.435C190.31 304.015 190.977 294.574 191.093 293.622C192.339 283.602 192.899 273.236 195.193 263.417C195.999 259.966 195.658 255.51 198.554 253.529C206.839 247.835 224.793 250.925 231.603 255.634C235.123 258.068 231.786 272.83 230.622 280.969C227.434 303.195 226.278 323.58 221.462 345.257C219.301 354.962 215.773 367.743 205.168 370.366C195.094 372.857 175.401 374.852 167.739 365.745C159.699 356.196 157.224 343.387 155.388 335.137C153.117 324.918 148.602 309.322 145.148 309.293C138.92 309.246 144.33 327.711 144.827 331.205C146.475 342.666 146.224 341.314 148.164 352.753C148.891 356.992 149.858 367.065 147.233 370.831C145.269 373.634 141.368 374.801 138.314 375.737C129.861 378.323 116.959 380.4 108.9 375.219C104.497 372.394 104.293 360.622 103.394 356.412C101.26 346.402 99.4504 338.391 98.1601 331.52Z" fill="#FB8CAC"/>
<path d="M276.761 268.756C273.926 259.739 251.917 263.714 250.367 272.749C249.27 279.14 248.319 299.285 246.703 305.544C245.307 310.85 243.884 321.248 242.925 326.664C242.183 330.855 241.621 335.077 241.239 339.317C239.842 354.924 233.415 367.359 244.213 378.92C247.937 382.899 260.25 385.686 265.943 384.572C275.252 382.753 276.215 369.657 278.362 361.771C285.713 334.782 281.425 283.595 276.761 268.756Z" fill="#FBC604"/>
<path d="M257.387 210.481C252.346 216.329 246.583 232.443 253.532 239.14C255.037 240.59 257.232 240.982 259.077 241.721C261.896 242.912 264.945 243.442 267.996 243.269C272.363 243.034 278.92 240.243 281.736 236.56C287.35 229.214 287.668 224.669 284.529 215.199C279.996 201.403 263.01 203.958 257.387 210.481Z" fill="#FBC604"/>
<path d="M377.349 247.254C375.547 241.327 368.821 231.244 361.707 226.78C346.589 217.241 331.977 222.904 322.142 234.226C296.982 263.267 297.36 305.755 307.212 341.643C313.674 365.157 326.508 385.404 351.09 387.598C355.079 387.958 359.301 387.765 363.146 386.567C370.073 384.401 375.989 381.228 380.743 375.205C383.144 372.162 384.224 367.266 385.322 363.588C389.265 350.403 390.146 337.904 390.146 324.084C390.146 312.312 386.146 294.346 381.519 288.21C375.682 280.469 358.621 285.223 357.608 291.143C356.458 297.878 357.305 305.554 357.608 312.208C357.77 315.809 358.184 319.713 357.848 323.31C357.485 327.478 356.511 331.568 354.959 335.446C351.778 343.103 343.75 355.145 335.669 345.774C334.675 344.473 333.789 343.091 333.02 341.643C330.409 335.695 330.251 327.409 329.888 320.984C329.095 307.05 329.888 292.326 333.742 278.9C335.273 273.565 336.698 268.127 339.792 263.671C343.814 257.827 351.429 260.445 351.975 261.105C357.198 267.696 359.189 273.248 368.267 268.013C377.889 262.433 381.357 260.441 377.349 247.254Z" fill="#FB8CAC"/>
<path fill-rule="evenodd" clip-rule="evenodd" d="M459.009 322.953C454.987 323.57 453.278 323.485 449.266 322.874C448.755 322.874 445.955 325.247 447.479 326.839C449.192 328.682 454.444 328.191 458.278 327.833C459.549 327.713 460.664 327.61 461.443 327.61C465.452 327.61 469.662 327.041 473.916 326.465C483.641 325.148 493.598 323.8 501.941 329.159C506.242 331.924 508.724 338.164 509.655 343.103C512.922 360.593 503.416 376.245 487.957 382.089C470.627 388.64 452.212 390.4 434.925 382.607C429.288 380.079 423.003 377.122 419.01 371.777C412.745 363.387 409.545 352.12 406.669 341.994C406.603 341.766 406.538 341.537 406.474 341.308C402.852 328.562 399.445 315.814 397.797 302.582L397.713 301.91C394.874 279.15 390.955 247.75 409.9 231.15C425.666 217.296 446.208 212.625 465.759 218.907C473.664 221.445 478.429 227.387 483.354 233.881C495.572 249.983 503.272 271.05 495.653 291.454C490.01 306.557 474.039 320.655 459.009 322.953ZM438.396 254.351C440.507 251.389 441.3 250.277 444.346 249.554C450.458 248.105 461.072 247.833 464.636 250.011C466.682 251.272 467.357 252.926 467.997 254.493C468.235 255.078 468.468 255.65 468.765 256.184C472.897 263.529 477.412 277.932 452.23 278.872C430.627 279.68 432.754 265.455 434.931 260.041C435.516 258.615 436.274 257.267 437.188 256.03C437.64 255.413 438.037 254.855 438.396 254.351Z" fill="#FB8CAC"/>
<path d="M132.655 216.75C124.945 219.048 117.661 210.572 110.194 207.529C95.5774 201.577 75.7897 202.694 63.3142 212.677C55.1912 219.171 48.7579 229.502 48.0033 239.8C46.9057 254.843 64.2975 261.901 62.355 277.219C61.0989 287.038 51.8341 291.399 47.0442 299.2C39.9707 310.728 33.158 328.458 37.0008 342.228C43.6228 365.975 69.0473 357.654 77.6599 374.499C89.0738 396.804 67.149 428.629 94.4175 445.606C125.29 464.814 142.192 421.702 168.572 418.481C195.792 415.152 194.984 449.349 215.456 449.349C242.967 449.349 248.505 417.545 269.989 417.545C296.633 417.545 293.728 458.344 323.571 455.429C347.45 453.074 354.586 416.936 377.628 411.93C403.627 406.28 413.751 437.831 437.905 439.993C469.373 442.79 467.836 410.838 489.109 403.045C509.814 395.459 531.329 413.438 550.824 396.5C555.507 392.426 557.657 386.409 560.39 381.064C568.34 365.524 569.49 347.53 553.216 336.166C545.932 331.081 535.993 326.321 534.56 316.526C532.698 303.863 541.742 298 547.952 288.459C554.468 278.453 558.923 267.118 554.311 255.874C542.119 226.169 510.931 243.568 497.721 232.799C491.814 227.982 492.167 217.048 491.027 210.347C488.752 197 481.624 183.119 467.585 178.545C451.149 173.186 433.739 176.832 418.308 183.689C409.663 187.53 401.401 196.6 391.039 194.915C379.294 192.999 373.615 177.02 367.601 169.189C360.917 160.478 348.456 154.654 337.461 153.757C321.775 152.478 306.584 156.889 293.449 165.449C280.452 173.927 274.518 185.827 257.574 187.897C244.918 189.442 233.744 175.762 225.519 168.722C214.179 159.027 191.311 155.23 177.201 159.37C164.354 163.137 153.331 168.624 147.06 180.882C140.792 193.139 150.885 211.321 132.655 216.75Z" stroke="#292524" stroke-width="0.612512" stroke-linecap="round" stroke-linejoin="round"/>
<path d="M98.1601 331.52C94.1448 310.018 91.1087 292.515 95.1441 270.9C97.2953 259.378 100.959 255.573 110.003 248.298C119.206 240.894 159.307 235.111 167.609 245.232C174.102 253.172 185.799 302.403 188.681 303.435C190.31 304.015 190.977 294.574 191.093 293.622C192.339 283.602 192.899 273.236 195.193 263.417C195.999 259.966 195.658 255.51 198.554 253.529C206.839 247.835 224.793 250.925 231.603 255.634C235.123 258.068 231.786 272.83 230.622 280.969C227.434 303.195 226.278 323.58 221.462 345.257C219.301 354.962 215.773 367.743 205.168 370.366C195.094 372.857 175.401 374.852 167.739 365.745C159.699 356.196 157.224 343.387 155.388 335.137C153.117 324.918 148.602 309.322 145.148 309.293C138.92 309.246 144.33 327.711 144.827 331.205C146.475 342.666 146.224 341.314 148.164 352.753C148.891 356.992 149.858 367.065 147.233 370.831C145.269 373.634 141.368 374.801 138.314 375.737C129.861 378.323 116.959 380.4 108.9 375.219C104.497 372.394 104.293 360.622 103.394 356.412C101.26 346.402 99.4504 338.391 98.1601 331.52Z" stroke="#292524" stroke-width="0.612512" stroke-linecap="round" stroke-linejoin="round"/>
<path d="M276.761 268.756C273.926 259.739 251.917 263.714 250.367 272.749C249.27 279.14 248.319 299.285 246.703 305.544C245.307 310.85 243.884 321.248 242.925 326.664C242.183 330.855 241.621 335.077 241.239 339.317C239.842 354.924 233.415 367.359 244.213 378.92C247.937 382.899 260.25 385.686 265.943 384.572C275.252 382.753 276.215 369.657 278.362 361.771C285.713 334.782 281.425 283.595 276.761 268.756Z" stroke="#292524" stroke-width="0.612512" stroke-linecap="round" stroke-linejoin="round"/>
<path d="M257.387 210.481C252.346 216.329 246.583 232.443 253.532 239.14C255.037 240.59 257.232 240.982 259.077 241.721C261.896 242.912 264.945 243.442 267.996 243.269C272.363 243.034 278.92 240.243 281.736 236.56C287.35 229.214 287.668 224.669 284.529 215.199C279.996 201.403 263.01 203.958 257.387 210.481Z" stroke="#292524" stroke-width="0.612512" stroke-linecap="round" stroke-linejoin="round"/>
<path d="M377.349 247.254C375.547 241.327 368.821 231.244 361.707 226.78C346.589 217.241 331.977 222.904 322.142 234.226C296.982 263.267 297.36 305.755 307.212 341.643C313.674 365.157 326.508 385.404 351.09 387.598C355.079 387.958 359.301 387.765 363.146 386.567C370.073 384.401 375.989 381.228 380.743 375.205C383.144 372.162 384.224 367.266 385.322 363.588C389.265 350.403 390.146 337.904 390.146 324.084C390.146 312.312 386.146 294.346 381.519 288.21C375.682 280.469 358.621 285.223 357.608 291.143C356.458 297.878 357.305 305.554 357.608 312.208C357.77 315.809 358.184 319.713 357.848 323.31C357.485 327.478 356.511 331.568 354.959 335.446C351.778 343.103 343.75 355.145 335.669 345.774C334.675 344.473 333.789 343.091 333.02 341.643C330.409 335.695 330.251 327.409 329.888 320.984C329.095 307.05 329.888 292.326 333.742 278.9C335.273 273.565 336.698 268.127 339.792 263.671C343.814 257.827 351.429 260.445 351.975 261.105C357.198 267.696 359.189 273.248 368.267 268.013C377.889 262.433 381.357 260.441 377.349 247.254Z" stroke="#292524" stroke-width="0.612512" stroke-linecap="round" stroke-linejoin="round"/>
<path d="M459.009 322.953C454.987 323.57 453.278 323.485 449.266 322.874C448.755 322.874 445.955 325.247 447.479 326.839C449.192 328.682 454.444 328.191 458.278 327.833C459.549 327.713 460.664 327.61 461.443 327.61C465.452 327.61 469.662 327.041 473.916 326.465C483.641 325.148 493.598 323.8 501.941 329.159C506.242 331.924 508.724 338.164 509.655 343.103C512.922 360.593 503.416 376.245 487.957 382.089C470.627 388.64 452.212 390.4 434.925 382.607C429.288 380.079 423.003 377.122 419.01 371.777C412.745 363.387 409.545 352.12 406.669 341.994C406.603 341.766 406.538 341.537 406.474 341.308C402.852 328.562 399.445 315.814 397.797 302.582L397.713 301.91C394.874 279.15 390.955 247.75 409.9 231.15C425.666 217.296 446.208 212.625 465.759 218.907C473.664 221.445 478.429 227.387 483.354 233.881C495.572 249.983 503.272 271.05 495.653 291.454C490.01 306.557 474.039 320.655 459.009 322.953ZM438.396 254.351C440.507 251.389 441.3 250.277 444.346 249.554C450.458 248.105 461.072 247.833 464.636 250.011C466.682 251.272 467.357 252.926 467.997 254.493C468.235 255.078 468.468 255.65 468.765 256.184C472.897 263.529 477.412 277.932 452.23 278.872C430.627 279.68 432.754 265.455 434.931 260.041C435.516 258.615 436.274 257.267 437.188 256.03C437.64 255.413 438.037 254.855 438.396 254.351Z" stroke="#292524" stroke-width="0.612512" stroke-linecap="round" stroke-linejoin="round"/>
</svg>
