<svg width="608" height="615" viewBox="0 0 608 615" fill="none" xmlns="http://www.w3.org/2000/svg">
<path d="M101.858 323.927C46.0495 304.678 69.9257 249.857 107.026 229.623C132.829 215.601 167.339 206.782 196.378 204.826C286.058 199.279 383.8 170.571 471.224 203.849C497.994 213.965 545.096 244.635 539.29 279.555C532.188 322.949 465.418 335.022 432.513 343.503C324.124 370.913 207.024 360.477 101.858 323.927Z" fill="#FBC604"/>
<path d="M101.858 323.927C46.0495 304.678 69.9257 249.857 107.026 229.623C132.829 215.601 167.339 206.782 196.378 204.826C286.058 199.279 383.8 170.571 471.224 203.849C497.994 213.965 545.096 244.635 539.29 279.555C532.188 322.949 465.418 335.022 432.513 343.503C324.124 370.913 207.024 360.477 101.858 323.927Z" stroke="#292524" stroke-width="0.612512" stroke-miterlimit="2.854" stroke-linecap="round" stroke-linejoin="round"/>
<path d="M68.9469 288.989C70.2967 303.294 79.9213 316.356 101.858 323.927C207.024 360.47 324.125 370.913 432.513 343.502C435.565 342.721 438.909 341.904 442.472 341.03C477.292 332.512 532.851 318.921 539.29 279.549C539.557 277.919 539.715 276.301 539.764 274.69C543.321 292.513 559.123 493.292 548.319 515.149C544.774 522.978 523.482 542.234 516.703 547.129C489.841 567.43 455.142 571.065 422 574.54C418.93 574.859 415.872 575.179 412.832 575.511C408.564 575.966 404.283 576.495 399.991 577.024C382.566 579.171 365.013 581.329 347.672 578.451C333.871 576.151 319.783 576.342 305.672 576.538C293.725 576.698 281.759 576.858 269.927 575.511C221.537 570.296 174.441 563.765 127.99 552.018C107.664 547.123 74.4372 533.421 61.8576 520.696C59.4135 518.396 59.4256 512.941 59.4439 507.437C59.456 502.775 59.4682 498.089 57.9847 495.241C53.1511 485.131 54.44 460.986 57.018 449.885C59.9485 438.046 59.3466 425.058 58.7508 412.1C58.2948 402.198 57.8388 392.321 58.9575 382.998C60.289 372.672 60.8727 362.278 61.4564 351.879C62.1495 339.603 62.8426 327.316 64.7639 315.126C65.2199 312.248 65.1895 309.007 65.1652 305.717C65.1165 299.671 65.0618 293.46 67.9863 289.02L68.9469 288.989Z" fill="#FB8CAC"/>
<path d="M68.9469 288.989C70.2967 303.294 79.9213 316.356 101.858 323.927C207.024 360.47 324.125 370.913 432.513 343.502C435.565 342.721 438.909 341.904 442.472 341.03C477.292 332.512 532.851 318.921 539.29 279.549C539.557 277.919 539.715 276.301 539.764 274.69C543.321 292.513 559.123 493.292 548.319 515.149C544.774 522.978 523.482 542.234 516.703 547.129C489.841 567.43 455.142 571.065 422 574.54C418.93 574.859 415.872 575.179 412.832 575.511C408.564 575.966 404.283 576.495 399.991 577.024C382.566 579.171 365.013 581.329 347.672 578.451C333.871 576.151 319.783 576.342 305.672 576.538C293.725 576.698 281.759 576.858 269.927 575.511C221.537 570.296 174.441 563.765 127.99 552.018C107.664 547.123 74.4372 533.421 61.8576 520.696C59.4135 518.396 59.4256 512.941 59.4439 507.437C59.456 502.775 59.4682 498.089 57.9847 495.241C53.1511 485.131 54.44 460.986 57.018 449.885C59.9485 438.046 59.3466 425.058 58.7508 412.1C58.2948 402.198 57.8388 392.321 58.9575 382.998C60.289 372.672 60.8727 362.278 61.4564 351.879C62.1495 339.603 62.8426 327.316 64.7639 315.126C65.2199 312.248 65.1895 309.007 65.1652 305.717C65.1165 299.671 65.0618 293.46 67.9863 289.02L68.9469 288.989Z" stroke="#292524" stroke-width="0.612512" stroke-miterlimit="2.854" stroke-linecap="round" stroke-linejoin="round"/>
<path d="M54.793 469.264C55.0362 461.822 55.9117 454.651 57.0182 449.891C59.9427 438.046 59.3469 425.058 58.751 412.1C58.3437 403.36 57.9424 394.634 58.6294 386.288C98.879 399.449 151.672 415.728 183.476 420.181C201.132 422.758 219.056 422.622 237.011 422.487C253.177 422.364 269.368 422.241 285.407 424.098C324.441 428.342 369.287 429.972 408.965 425.076L413.89 424.437C444.703 420.445 474.416 416.601 504.129 404.517C510.732 401.737 530.048 389.437 547.492 378.324L548.513 377.678C549.899 400.347 551.055 423.84 551.638 444.934C534.76 454.147 518.77 462.45 515.414 463.581C509.34 465.629 504.105 468.397 498.846 471.183C492.377 474.614 485.859 478.065 477.675 480.223C468.926 482.419 460.274 484.651 451.665 486.865C411.713 497.148 372.832 507.16 330.898 512.523C309.284 515.137 281.863 510.893 260.893 506.65C247.012 503.882 232.511 502.886 218.035 501.896C206.945 501.139 195.861 500.377 185.081 498.821C176.284 497.599 167.474 496.479 158.652 495.463C137.481 492.941 116.201 490.408 95.7296 485.119C89.0659 483.563 81.7942 479.737 74.8752 476.109C73.0877 475.168 71.3245 474.239 69.5978 473.372C68.6736 472.899 62.3747 471.17 54.793 469.264Z" fill="#1E9A64"/>
<path d="M54.793 469.264C55.0362 461.822 55.9117 454.651 57.0182 449.891C59.9427 438.046 59.3469 425.058 58.751 412.1C58.3437 403.36 57.9424 394.634 58.6294 386.288C98.879 399.449 151.672 415.728 183.476 420.181C201.132 422.758 219.056 422.622 237.011 422.487C253.177 422.364 269.368 422.241 285.407 424.098C324.441 428.342 369.287 429.972 408.965 425.076L413.89 424.437C444.703 420.445 474.416 416.601 504.129 404.517C510.732 401.737 530.048 389.437 547.492 378.324L548.513 377.678C549.899 400.347 551.055 423.84 551.638 444.934C534.76 454.147 518.77 462.45 515.414 463.581C509.34 465.629 504.105 468.397 498.846 471.183C492.377 474.614 485.859 478.065 477.675 480.223C468.926 482.419 460.274 484.651 451.665 486.865C411.713 497.148 372.832 507.16 330.898 512.523C309.284 515.137 281.863 510.893 260.893 506.65C247.012 503.882 232.511 502.886 218.035 501.896C206.945 501.139 195.861 500.377 185.081 498.821C176.284 497.599 167.474 496.479 158.652 495.463C137.481 492.941 116.201 490.408 95.7296 485.119C89.0659 483.563 81.7942 479.737 74.8752 476.109C73.0877 475.168 71.3245 474.239 69.5978 473.372C68.6736 472.899 62.3747 471.17 54.793 469.264Z" stroke="#292524" stroke-width="0.612512" stroke-miterlimit="2.854" stroke-linecap="round" stroke-linejoin="round"/>
<path d="M181.53 159.802C182.181 150.011 184.759 176.118 185.081 179.377C187.665 203.203 187.337 227.347 188.954 251.166C189.276 256.062 189.921 271.4 193.794 284.45" stroke="#292524" stroke-width="0.612512" stroke-miterlimit="2.854" stroke-linecap="round" stroke-linejoin="round"/>
<path d="M330.898 134.028C328.958 133.702 327.347 166.659 327.025 168.615C323.474 205.491 317.346 242.686 317.346 279.561" stroke="#292524" stroke-width="0.612512" stroke-miterlimit="2.854" stroke-linecap="round" stroke-linejoin="round"/>
<path d="M468.312 148.369C459.283 166.641 462.183 196.007 457.35 215.915C452.51 235.816 438.958 257.027 438.958 277.907" stroke="#292524" stroke-width="0.612512" stroke-miterlimit="2.854" stroke-linecap="round" stroke-linejoin="round"/>
<path d="M198.208 150.534C196.597 151.844 167.243 157.059 158.53 144.661C143.695 123.456 152.079 64.3911 175.949 52.3187C182.078 49.0592 193.046 64.3911 195.308 67.9827C206.27 85.9284 216.916 109.421 209.821 130.959C207.565 137.81 204.337 145.965 198.208 150.534Z" fill="#FB8CAC"/>
<path d="M346.694 129.132C342.182 130.116 317.023 130.762 307.988 124.237C288.63 110.209 297.665 67.46 309.922 51.4761C315.406 44.2929 335.403 26.0213 346.694 31.8945C355.084 36.138 355.729 48.5364 356.373 56.3715C357.984 75.2951 361.857 98.4621 357.346 117.386C356.051 122.613 352.178 127.828 346.694 129.132Z" fill="#FB8CAC"/>
<path d="M491.543 139.249C488.321 140.878 451.543 149.365 447.676 122.607C445.092 103.357 455.094 81.82 463.156 65.5041C466.378 58.653 469.606 47.5584 476.708 43.9668C481.548 41.3592 491.865 47.2263 495.094 49.84C512.191 62.8965 506.062 92.5825 502.834 110.86C502.189 116.082 496.705 136.315 491.543 139.249Z" fill="#FB8CAC"/>
<path d="M198.208 150.534C196.597 151.844 167.243 157.059 158.53 144.661C143.695 123.456 152.079 64.3911 175.949 52.3187C182.078 49.0592 193.046 64.3911 195.308 67.9827C206.27 85.9284 216.916 109.421 209.821 130.959C207.565 137.81 204.337 145.965 198.208 150.534Z" fill="#FB8CAC" stroke="#292524" stroke-width="0.612512" stroke-miterlimit="2.854" stroke-linecap="round" stroke-linejoin="round"/>
<path d="M346.694 129.132C342.182 130.116 317.023 130.762 307.988 124.237C288.63 110.209 297.665 67.46 309.922 51.4761C315.406 44.2929 335.403 26.0213 346.694 31.8945C355.084 36.138 355.729 48.5364 356.373 56.3715C357.984 75.2951 361.857 98.4621 357.346 117.386C356.051 122.613 352.178 127.828 346.694 129.132Z" fill="#FB8CAC" stroke="#292524" stroke-width="0.612512" stroke-miterlimit="2.854" stroke-linecap="round" stroke-linejoin="round"/>
<path d="M491.543 139.249C488.321 140.878 451.543 149.365 447.676 122.607C445.092 103.357 455.094 81.82 463.156 65.5041C466.378 58.653 469.606 47.5584 476.708 43.9668C481.548 41.3592 491.865 47.2263 495.094 49.84C512.191 62.8965 506.062 92.5825 502.834 110.86C502.189 116.082 496.705 136.315 491.543 139.249Z" fill="#FB8CAC" stroke="#292524" stroke-width="0.612512" stroke-miterlimit="2.854" stroke-linecap="round" stroke-linejoin="round"/>
</svg>
