<svg width="609" height="615" viewBox="0 0 609 615" fill="none" xmlns="http://www.w3.org/2000/svg">
<path d="M58.5183 165.435C56.1675 166.768 44.6737 193.672 45.3598 195.218C46.1921 197.108 54.4948 198.504 56.0498 198.941C64.6712 201.386 73.4307 204.18 81.8206 207.63C83.8446 208.461 90.0726 212.889 92.2406 211.663C94.3275 210.484 95.7566 203.407 96.6275 201.114C97.4029 199.068 99.5831 192.36 99.1751 192.032C95.3506 189.15 89.7214 185.074 86.0715 181.905C79.4577 176.151 72.8765 172.188 65.2376 168.342C64.5758 168.018 59.1394 165.081 58.5183 165.435Z" fill="#1E9A64"/>
<path d="M560.247 188.244C562.598 189.576 574.09 216.478 573.406 218.026C572.572 219.914 564.271 221.312 562.716 221.749C554.093 224.193 545.333 226.987 536.941 230.437C534.919 231.269 528.691 235.697 526.525 234.471C524.434 233.29 523.005 226.216 522.136 223.92C521.363 221.874 519.181 215.168 519.591 214.84C523.415 211.956 529.04 207.881 532.694 204.713C539.308 198.957 545.887 194.994 553.526 191.149C554.19 190.825 559.624 187.891 560.247 188.244Z" fill="#1E9A64"/>
<path d="M24.7537 231.98C23.9518 232.083 21.9137 249.342 21.8508 250.236C21.6275 253.511 19.2382 267.249 23.0972 269.411C26.1422 271.123 33.03 268.905 36.211 268.579C47.3618 267.441 58.6364 267.466 69.8664 267.466C76.0132 267.41 82.1479 268.062 88.177 269.411C89.2935 269.666 97.2511 272.275 97.3323 271.914C98.327 267.445 98.4813 262.322 99.0639 257.741C99.34 255.582 100.495 252.614 99.5612 250.514C97.3668 245.586 90.6292 244.018 86.4454 242.454C74.4582 237.981 31.4628 231.156 24.7537 231.98Z" fill="#FBC604"/>
<path d="M583.247 254.485C584.016 254.779 583.085 272.105 582.993 272.987C582.658 276.232 582.673 290.207 578.515 291.377C575.229 292.306 568.832 288.47 565.757 287.365C554.981 283.548 543.891 280.834 532.85 278.11C526.851 276.567 520.698 275.711 514.509 275.557C513.368 275.533 505.096 276.146 505.078 275.775C504.863 271.175 505.581 266.146 505.788 261.535C505.886 259.367 505.252 256.191 506.529 254.371C509.526 250.119 516.419 250.209 520.8 249.699C533.344 248.256 576.79 252.04 583.247 254.485Z" fill="#FBC604"/>
<path d="M54.8522 332.504C69.6205 328.014 99.3194 303.279 99.3194 302.217C99.3194 300.401 96.2622 289.948 95.5151 289.009C94.0353 287.152 80.7733 290.259 78.0713 290.866C66.9307 293.367 47.9807 302 41.6044 306.791C39.8931 308.07 52.0143 333.367 54.8522 332.504Z" fill="#1E9A64"/>
<path d="M562.976 343.902C550.093 340.036 524.192 318.74 524.192 317.824C524.192 316.26 526.86 307.26 527.509 306.455C528.803 304.854 540.369 307.529 542.73 308.054C552.45 310.208 568.984 317.635 574.547 321.764C576.03 322.865 565.452 344.646 562.976 343.902Z" fill="#1E9A64"/>
<path d="M111.345 216.173C110.962 219.461 115.525 247.874 116.152 257.121C117.586 278.148 120.955 298.972 120.955 320.101C120.955 322.197 120.564 342.266 121.207 343.059C121.782 343.759 132.104 343.681 133.598 343.681C138.117 343.681 144.784 344.728 148.511 342.438C150.829 341.016 151.592 333.281 152.301 330.958C154.241 324.614 157.077 318.533 158.61 312.035C159.71 307.4 161.19 298.331 163.916 294.971C164.491 294.272 168.094 303.984 168.468 304.899C170.94 310.963 174.202 316.662 176.307 322.896C177.992 327.857 178.932 333.679 180.859 338.404C181.535 340.071 203.116 337.506 203.615 336.899C204.421 335.907 208.093 317.713 209.955 310.438C212.845 299.148 215.283 280.098 218.525 264.833C222.963 243.96 232.104 209.307 231.548 208.635C230.88 207.815 211.583 209.235 210.44 209.037C209.295 208.838 195.03 207.159 194.005 208.415C192.391 210.396 192.529 216.888 192.237 219.272C190.936 229.914 189.856 240.576 188.694 251.228C188.41 253.819 188.201 269.52 186.926 271.084C186.683 271.385 185.625 268.688 185.41 268.29C184.364 266.373 183.201 264.6 182.121 262.704C178.768 256.826 174.334 250.965 171.513 244.711C170.481 242.431 167.444 234.733 167.174 234.649C166.525 234.446 161.001 234.783 157.609 234.783C156.994 234.783 154.304 234.491 153.817 235.092C152.814 236.322 152.532 243.097 152.301 244.711C148.511 257.121 141.647 271.033 140.425 269.53C138.375 267.013 138.909 258.005 138.909 254.946C138.909 244.016 138.026 233.231 137.141 222.374C136.998 220.627 137.735 213.18 136.635 211.825C135.488 210.426 130.267 211.474 128.795 211.825C123.046 213.239 111.766 212.485 111.345 216.173Z" fill="#FB8CAC"/>
<path fill-rule="evenodd" clip-rule="evenodd" d="M248.283 226.474C254.101 217.698 262.552 205.689 287.214 207.864C296.307 208.666 299.277 220.67 300.781 226.759C301.002 227.647 301.189 228.409 301.361 228.993C302.622 233.268 303.073 237.491 303.538 241.828C303.735 243.678 303.936 245.549 304.201 247.452C309.236 283.552 295.237 346.504 252.434 336.413C224.518 329.833 230.833 288.757 234.359 265.828L234.44 265.309C234.591 264.325 234.737 263.327 234.885 262.32C235.764 256.351 236.69 250.063 238.87 244.635C241.247 238.725 244.84 231.665 248.283 226.474ZM271.813 235.56C274.842 228.249 281.48 226.556 283.987 228.973C287.261 232.134 285.911 240.475 285.032 245.902C284.809 247.279 284.616 248.47 284.537 249.34L284.356 251.422C283.386 262.589 282.332 274.71 279.561 285.362C279.472 285.703 279.356 286.193 279.214 286.793C277.994 291.928 274.844 305.188 270.428 303.521C264.779 301.401 263.023 291.076 262.4 285.362C260.563 268.735 265.662 250.391 271.813 235.56Z" fill="#1E9A64"/>
<path fill-rule="evenodd" clip-rule="evenodd" d="M310.72 327.83C309.928 331.729 308.523 338.633 310.494 339.705C309.829 339.705 328.194 344.336 328.939 340.31C330.407 332.551 332.731 316.846 334.532 304.669C335.922 295.276 337 287.984 337.136 288.06C337.508 288.269 339.952 294.13 342.832 301.036C345.892 308.371 349.442 316.885 351.523 321.061C352.475 322.971 353.431 325.073 354.418 327.233C357.217 333.373 360.246 340.011 363.981 344.24C364.509 344.828 366.839 343.445 368.039 342.731C368.345 342.549 368.579 342.409 368.688 342.36C372.091 340.821 375.01 338.678 377.986 336.493C379.027 335.72 380.079 334.962 381.14 334.218C382.513 333.266 384.433 332.457 386.41 331.622C389.285 330.409 392.281 329.146 393.891 327.323C394.017 327.178 392.354 325.296 391.327 324.132C391.067 323.844 390.813 323.552 390.566 323.254C390.234 322.8 389.906 322.344 389.581 321.885C388.231 319.986 386.967 318.207 385.032 316.676C375.816 309.374 352.627 282.375 353.488 280.43C356.285 274.105 369.496 279.128 381.14 275.032C398.042 269.087 410.194 244.71 402.75 223.649L402.63 223.313C401.536 220.225 400.312 216.773 398.042 214.569C387.821 204.668 372.98 201.408 360.627 202.573C353.368 203.257 311.075 212.851 309.735 217.39C309.004 219.869 310.109 222.556 311.122 225.024C311.556 226.08 311.972 227.097 312.222 228.038C316.824 245.356 315.992 263.585 315.547 281.289C315.157 296.379 313.397 310.928 311.116 325.77C311.045 326.241 310.898 326.961 310.72 327.83ZM338.868 230.254C339.978 229.805 341.172 229.325 342.394 228.817C346.153 227.259 364.771 221.365 368.983 227.431C372.519 232.505 366.575 237.777 364.941 238.257C363.384 238.71 361.847 239.12 360.331 239.524C355.14 240.91 350.217 242.222 345.774 244.965C343.435 246.412 338.261 248.612 335.202 247.459C333.056 246.648 332.362 235.219 332.362 233.413C332.362 232.874 335.167 231.744 338.868 230.254Z" fill="#FB8CAC"/>
<path d="M413.732 208.034C411.57 207.106 414.621 224.729 414.859 227.792C416.081 242.628 416.718 257.798 416.82 272.681C416.947 291.717 403.893 342.051 405.058 343.191C406.087 344.193 411.724 343.925 412.818 343.761C418.75 342.859 433.646 342.084 437.584 335.626C438.311 334.439 437.639 328.414 437.694 326.844C437.974 318.621 438.563 310.046 438.167 301.822C438.051 299.345 437.921 296.904 437.897 294.442C437.897 294.397 437.536 291.125 437.536 291.125C438.242 291.016 484.457 338.619 493.708 330.841C496.28 328.683 508.474 301.629 508.127 301.346C503.109 297.299 498.844 296.035 493.146 293.839C481.678 289.413 473.68 284.678 463.298 277.449C460.174 275.27 455.834 273.081 453.873 269.417C452.044 266.008 460.251 257.009 461.4 255.127C463.589 251.537 496.274 210.478 493.602 207.021C491.546 204.361 475.683 195.193 473.063 196.079C468.319 197.69 465.946 204.52 458.453 213.422C454.543 218.067 450.578 223.571 446.384 227.741C443.981 230.119 440.855 230.935 439.267 233.538C439.196 233.657 439.219 226.238 439.188 225.457C439.123 223.655 438.403 204.832 437.958 204.397C437.046 203.512 423.833 207.101 421.137 206.944C419.517 206.853 412.488 207.325 413.478 207.768" fill="#FB8CAC"/>
<path d="M58.5183 165.435C56.1675 166.768 44.6737 193.672 45.3598 195.218C46.1921 197.108 54.4948 198.504 56.0498 198.941C64.6712 201.386 73.4307 204.18 81.8206 207.63C83.8446 208.461 90.0726 212.889 92.2406 211.663C94.3275 210.484 95.7566 203.407 96.6275 201.114C97.4029 199.068 99.5831 192.36 99.1751 192.032C95.3506 189.15 89.7214 185.074 86.0715 181.905C79.4577 176.151 72.8765 172.188 65.2376 168.342C64.5758 168.018 59.1394 165.081 58.5183 165.435Z" stroke="#292524" stroke-width="0.612512" stroke-linecap="round" stroke-linejoin="round"/>
<path d="M560.247 188.244C562.598 189.576 574.09 216.478 573.406 218.026C572.572 219.914 564.271 221.312 562.716 221.749C554.093 224.193 545.333 226.987 536.941 230.437C534.919 231.269 528.691 235.697 526.525 234.471C524.434 233.29 523.005 226.216 522.136 223.92C521.363 221.874 519.181 215.168 519.591 214.84C523.415 211.956 529.04 207.881 532.694 204.713C539.308 198.957 545.887 194.994 553.526 191.149C554.19 190.825 559.624 187.891 560.247 188.244Z" stroke="#292524" stroke-width="0.612512" stroke-linecap="round" stroke-linejoin="round"/>
<path d="M24.7537 231.98C23.9518 232.083 21.9137 249.342 21.8508 250.236C21.6275 253.511 19.2382 267.249 23.0972 269.411C26.1422 271.123 33.03 268.905 36.211 268.579C47.3618 267.441 58.6364 267.466 69.8664 267.466C76.0132 267.41 82.1479 268.062 88.177 269.411C89.2935 269.666 97.2511 272.275 97.3323 271.914C98.327 267.445 98.4813 262.322 99.0639 257.741C99.34 255.582 100.495 252.614 99.5612 250.514C97.3668 245.586 90.6292 244.018 86.4454 242.454C74.4582 237.981 31.4628 231.156 24.7537 231.98Z" stroke="#292524" stroke-width="0.612512" stroke-linecap="round" stroke-linejoin="round"/>
<path d="M583.247 254.485C584.016 254.779 583.085 272.105 582.993 272.987C582.658 276.232 582.673 290.207 578.515 291.377C575.229 292.306 568.832 288.47 565.757 287.365C554.981 283.548 543.891 280.834 532.85 278.11C526.851 276.567 520.698 275.711 514.509 275.557C513.368 275.533 505.096 276.146 505.078 275.775C504.863 271.175 505.581 266.146 505.788 261.535C505.886 259.367 505.252 256.191 506.529 254.371C509.526 250.119 516.419 250.209 520.8 249.699C533.344 248.256 576.79 252.04 583.247 254.485Z" stroke="#292524" stroke-width="0.612512" stroke-linecap="round" stroke-linejoin="round"/>
<path d="M54.8522 332.504C69.6205 328.014 99.3194 303.279 99.3194 302.217C99.3194 300.401 96.2622 289.948 95.5151 289.009C94.0353 287.152 80.7733 290.259 78.0713 290.866C66.9307 293.367 47.9807 302 41.6044 306.791C39.8931 308.07 52.0143 333.367 54.8522 332.504Z" stroke="#292524" stroke-width="0.612512" stroke-linecap="round" stroke-linejoin="round"/>
<path d="M562.976 343.902C550.093 340.036 524.192 318.74 524.192 317.824C524.192 316.26 526.86 307.26 527.509 306.455C528.803 304.854 540.369 307.529 542.73 308.054C552.45 310.208 568.984 317.635 574.547 321.764C576.03 322.865 565.452 344.646 562.976 343.902Z" stroke="#292524" stroke-width="0.612512" stroke-linecap="round" stroke-linejoin="round"/>
<path d="M111.345 216.173C110.962 219.461 115.525 247.874 116.152 257.121C117.586 278.148 120.955 298.972 120.955 320.101C120.955 322.197 120.564 342.266 121.207 343.059C121.782 343.759 132.104 343.681 133.598 343.681C138.117 343.681 144.784 344.728 148.511 342.438C150.829 341.016 151.592 333.281 152.301 330.958C154.241 324.614 157.077 318.533 158.61 312.035C159.71 307.4 161.19 298.331 163.916 294.971C164.491 294.272 168.094 303.984 168.468 304.899C170.94 310.963 174.202 316.662 176.307 322.896C177.992 327.857 178.932 333.679 180.859 338.404C181.535 340.071 203.116 337.506 203.615 336.899C204.421 335.907 208.093 317.713 209.955 310.438C212.845 299.148 215.283 280.098 218.525 264.833C222.963 243.96 232.104 209.307 231.548 208.635C230.88 207.815 211.583 209.235 210.44 209.037C209.295 208.838 195.03 207.159 194.005 208.415C192.391 210.396 192.529 216.888 192.237 219.272C190.936 229.914 189.856 240.576 188.694 251.228C188.41 253.819 188.201 269.52 186.926 271.084C186.683 271.385 185.625 268.688 185.41 268.29C184.364 266.373 183.201 264.6 182.121 262.704C178.768 256.826 174.334 250.965 171.513 244.711C170.481 242.431 167.444 234.733 167.174 234.649C166.525 234.446 161.001 234.783 157.609 234.783C156.994 234.783 154.304 234.491 153.817 235.092C152.814 236.322 152.532 243.097 152.301 244.711C148.511 257.121 141.647 271.033 140.425 269.53C138.375 267.013 138.909 258.005 138.909 254.946C138.909 244.016 138.026 233.231 137.141 222.374C136.998 220.627 137.735 213.18 136.635 211.825C135.488 210.426 130.267 211.474 128.795 211.825C123.046 213.239 111.766 212.485 111.345 216.173Z" stroke="#292524" stroke-width="0.612512" stroke-linecap="round" stroke-linejoin="round"/>
<path d="M248.283 226.474C254.101 217.698 262.552 205.689 287.214 207.864C296.307 208.666 299.277 220.67 300.781 226.759C301.002 227.647 301.189 228.409 301.361 228.993C302.622 233.268 303.073 237.491 303.538 241.828C303.735 243.678 303.936 245.549 304.201 247.452C309.236 283.552 295.237 346.504 252.434 336.413C224.518 329.833 230.833 288.757 234.359 265.828L234.44 265.309C234.591 264.325 234.737 263.327 234.885 262.32C235.764 256.351 236.69 250.063 238.87 244.635C241.247 238.725 244.84 231.665 248.283 226.474ZM271.813 235.56C274.842 228.249 281.48 226.556 283.987 228.973C287.261 232.134 285.911 240.475 285.032 245.902C284.809 247.279 284.616 248.47 284.537 249.34L284.356 251.422C283.386 262.589 282.332 274.71 279.561 285.362C279.472 285.703 279.356 286.193 279.214 286.793C277.994 291.928 274.844 305.188 270.428 303.521C264.779 301.401 263.023 291.076 262.4 285.362C260.563 268.735 265.662 250.391 271.813 235.56Z" stroke="#292524" stroke-width="0.612512" stroke-linecap="round" stroke-linejoin="round"/>
<path d="M310.72 327.83C309.928 331.729 308.523 338.633 310.494 339.705C309.829 339.705 328.194 344.336 328.939 340.31C330.407 332.551 332.731 316.846 334.532 304.669C335.922 295.276 337 287.984 337.136 288.06C337.508 288.269 339.952 294.13 342.832 301.036C345.892 308.371 349.442 316.885 351.523 321.061C352.475 322.971 353.431 325.073 354.418 327.233C357.217 333.373 360.246 340.011 363.981 344.24C364.509 344.828 366.839 343.445 368.039 342.731C368.345 342.549 368.579 342.409 368.688 342.36C372.091 340.821 375.01 338.678 377.986 336.493C379.027 335.72 380.079 334.962 381.14 334.218C382.513 333.266 384.433 332.457 386.41 331.622C389.285 330.409 392.281 329.146 393.891 327.323C394.017 327.178 392.354 325.296 391.327 324.132C391.067 323.844 390.813 323.552 390.566 323.254C390.234 322.8 389.906 322.344 389.581 321.885C388.231 319.986 386.967 318.207 385.032 316.676C375.816 309.374 352.627 282.375 353.488 280.43C356.285 274.105 369.496 279.128 381.14 275.032C398.042 269.087 410.194 244.71 402.75 223.649L402.63 223.313C401.536 220.225 400.312 216.773 398.042 214.569C387.821 204.668 372.98 201.408 360.627 202.573C353.368 203.257 311.075 212.851 309.735 217.39C309.004 219.869 310.109 222.556 311.122 225.024C311.556 226.08 311.972 227.097 312.222 228.038C316.824 245.356 315.992 263.585 315.547 281.289C315.157 296.379 313.397 310.928 311.116 325.77C311.045 326.241 310.898 326.961 310.72 327.83ZM338.868 230.254C339.978 229.805 341.172 229.325 342.394 228.817C346.153 227.259 364.771 221.365 368.983 227.431C372.519 232.505 366.575 237.777 364.941 238.257C363.384 238.71 361.847 239.12 360.331 239.524C355.14 240.91 350.217 242.222 345.774 244.965C343.435 246.412 338.261 248.612 335.202 247.459C333.056 246.648 332.362 235.219 332.362 233.413C332.362 232.874 335.167 231.744 338.868 230.254Z" stroke="#292524" stroke-width="0.612512" stroke-linecap="round" stroke-linejoin="round"/>
<path d="M413.732 208.034C411.57 207.106 414.621 224.729 414.859 227.792C416.081 242.628 416.718 257.798 416.82 272.681C416.947 291.717 403.893 342.051 405.058 343.191C406.087 344.193 411.724 343.925 412.818 343.761C418.75 342.859 433.646 342.084 437.584 335.626C438.311 334.439 437.639 328.414 437.694 326.844C437.974 318.621 438.563 310.046 438.167 301.822C438.051 299.345 437.921 296.904 437.897 294.442C437.897 294.397 437.536 291.125 437.536 291.125C438.242 291.016 484.457 338.619 493.708 330.841C496.28 328.683 508.474 301.629 508.127 301.346C503.109 297.299 498.844 296.035 493.146 293.839C481.678 289.413 473.68 284.678 463.298 277.449C460.174 275.27 455.834 273.081 453.873 269.417C452.044 266.008 460.251 257.009 461.4 255.127C463.589 251.537 496.274 210.478 493.602 207.021C491.546 204.361 475.683 195.193 473.063 196.079C468.319 197.69 465.946 204.52 458.453 213.422C454.543 218.067 450.578 223.571 446.384 227.741C443.981 230.119 440.855 230.935 439.267 233.538C439.196 233.657 439.219 226.238 439.188 225.457C439.123 223.655 438.403 204.832 437.958 204.397C437.046 203.512 423.833 207.101 421.137 206.944C419.517 206.853 412.488 207.325 413.478 207.768" stroke="#292524" stroke-width="0.612512" stroke-linecap="round" stroke-linejoin="round"/>
</svg>
