<svg width="610" height="612" viewBox="0 0 610 612" fill="none" xmlns="http://www.w3.org/2000/svg">
<path d="M70.1889 254.509C65.0567 253.189 48.8206 254.848 41.1407 259.022C27.2733 266.574 20.4291 285.619 19.2051 301.184C18.1681 313.896 18.3043 329.19 22.6251 341.26C29.0647 359.4 47.505 379.421 66.4231 383.568C73.979 385.228 80.6707 384.533 88.1717 383.568C105.073 381.407 113.987 366.764 120.056 351.848C124.172 341.748 116.815 323.245 112.98 319.948C108.377 315.983 97.9052 321.756 90.6564 329.173C89.9996 329.851 92.0513 333.282 92.2139 333.943C93.1147 337.727 94.6743 342.913 92.8361 346.672C89.963 352.552 80.9411 358.18 74.5016 356.528C64.2048 353.894 53.79 335.703 49.6847 326.309C45.1402 316.076 42.2163 293.694 48.1374 284.616C49.9369 281.77 57.448 276.484 61.4008 277.488C65.3536 278.492 68.6049 285.799 70.1889 289.069C70.9351 290.587 70.748 294.391 73.2958 293.524C76.0876 292.565 89.593 285.901 90.6564 282.559C88.1717 272.104 79.4629 256.876 70.1889 254.509Z" fill="#FB8CAC"/>
<path fill-rule="evenodd" clip-rule="evenodd" d="M100.886 258.88C93.3749 214.225 128.745 211.632 132.573 212.119C137.624 212.762 143.657 217.721 147.169 221.318C157.718 232.156 164.875 246.298 172.809 258.984C184.147 277.106 198.541 300.119 181.349 317.702L181.103 317.959C178.826 320.296 176.646 322.534 173.58 323.746C155.66 330.829 139.19 327.359 126.675 312.002C114.379 296.951 104.105 278.036 100.886 258.88ZM126.118 255.051C125.199 241.563 133.915 238.04 139.408 246.469C146.107 256.74 152.392 266.687 157.118 278.287C159.003 282.932 159.552 291.153 153.698 293.556C139.135 299.505 126.496 260.592 126.118 255.051Z" fill="#FB8CAC"/>
<path d="M217.754 288.323C217.61 289.469 211.983 282.731 210.857 281.466C205.265 275.142 200.853 267.841 195.322 261.419C184.999 249.357 152.626 208.073 154.357 199.354C154.753 197.357 161.908 185.623 162.907 183.995C167.815 175.964 206.489 203.491 206.489 203.491C206.489 203.491 206.022 200.782 205.869 199.354C205.544 196.364 203.167 179.687 201.835 174.23C201.266 171.924 199.781 168.13 200.593 165.639C204.139 154.733 218.728 151.889 227.309 146.865C229.83 145.392 236.601 141.128 239.734 142.736C244.787 145.321 246.686 158.267 248.74 163.091C254.439 176.443 257.906 190.311 262.4 204.124C264.177 209.568 280.35 245.334 276.357 249.295C274.279 251.427 259.297 255.207 257.068 254.065C251.371 246.86 243.945 219.974 240.598 211.768C240.045 210.403 235.653 197.131 235.043 197.131C233.592 197.131 232.512 221.745 232.252 223.53C232.117 224.669 232.451 229.365 231.631 230.215C229.035 232.863 211.607 228.781 208.327 228.3C207.353 228.163 202.447 225.733 201.806 226.392C200.53 227.694 206.678 235.111 207.4 235.933C209.704 238.587 237.408 267.457 235.358 272.521C234.702 274.004 217.061 289.045 217.754 288.323Z" fill="#FB8CAC"/>
<path d="M271.324 126.663C270.031 130.495 265.155 154.389 268.388 157.769C269.163 158.555 274.258 159.042 275.169 159.042C282.229 159.042 289.26 157.769 296.294 157.769C298.166 157.769 304.209 156.586 304.685 159.042C307.495 173.498 305.344 215.579 303.784 218.841C302.29 221.903 292.079 216.13 290.116 218.208C289.216 219.112 289.809 222.815 289.809 223.927C289.809 229.808 288.423 237.668 289.809 243.341C290.71 247.136 295.501 247.858 298.508 249.059C306.558 252.15 315.816 253.07 324.289 254.145C326.991 254.498 334.311 254.635 335.787 251.607C338.849 245.338 338.489 237.289 339.201 230.295C339.39 228.398 341.208 222.49 339.821 221.062C337.237 218.425 329.242 221.966 327.089 219.798C325.919 218.606 332.583 168.42 336.895 162.882C338.74 160.505 356.019 170.348 359.713 166.56C361.615 164.614 364.874 135.907 362.81 133.793C357.2 128.057 336.698 127.469 329.26 126.621C311.71 124.703 288.262 126.663 271.324 126.663Z" fill="#FB8CAC"/>
<path d="M355.445 259.14C355.445 253.49 357.021 249.049 357.715 246.195C359.677 238.145 362.631 230.438 365.189 222.58C367.889 214.358 369.321 205.929 371.681 197.634C374.886 186.388 383.989 144.333 387.6 143.079C393.617 141.037 400.911 142.373 407.096 143.079C408.591 143.25 411.49 142.924 412.617 144.08C413.436 144.913 434.379 225.389 438.729 229.905C439.028 230.213 453.633 176.172 459.692 163.748C460.044 163.034 463.844 153.811 463.916 153.811C467.895 153.811 474.406 156.233 478.863 156.802C481.772 157.171 487.679 157.179 489.912 159.511C497.236 166.961 457.569 276.766 452.877 281.58C451.118 283.368 425.98 274.004 424.286 272.266C415.791 263.586 406.637 213.057 398.298 213.057C397.938 213.057 385.061 263.865 383.674 265.283C383.503 265.365 365.189 261.905 355.445 259.14Z" fill="#FB8CAC"/>
<path d="M592.916 198.699C591.446 191.27 586.279 181.721 574.006 177.32C559.269 172.169 543.108 173.012 528.982 179.668C503.913 191.829 497.638 217.559 490.326 242.537C486.463 255.709 485.003 276.552 493.423 289.037C502.284 302.172 537.61 314.161 560.751 306.528C579.372 300.383 581.074 282.631 583.732 270.634C584.838 265.665 584.281 250.515 564.244 246.134C562.363 245.728 548.315 240.434 546.587 242.213C545.507 243.314 544.688 247.633 544.309 249.196C543.821 251.201 541.284 256.631 542.363 258.845C542.939 260.02 562.561 263.208 558.571 272.476C553.431 284.32 532.98 282.244 523.453 275.277C515.548 269.504 512.73 258.112 513.234 248.284C513.657 240.081 517.412 233.902 520.546 226.601C522.994 220.864 529.793 207.918 533.313 205.272C541.544 199.091 549.145 192.551 559.608 200.438C566.019 205.272 560.051 213.326 562.776 218.959C564.181 221.831 573.726 222.924 576.42 223.62C578.905 224.253 583.29 225.156 585.838 224.279C592.394 221.984 593.957 203.965 592.916 198.699Z" fill="#FB8CAC"/>
<path d="M154.399 356.338C149.418 360.367 144.251 366.275 141.793 372.058C140.117 375.969 137.984 379.9 137.795 384.208C137.165 398.456 143.836 406.704 156.146 411.212C164.916 414.427 174.804 415.078 181.359 414.825C190.517 414.545 203.51 418.827 206.365 423.064C209.065 427.048 222.113 444.25 181.522 455.343C177.659 456.4 173.047 458.442 169.078 458.958C168.879 458.958 164.989 459.554 164.971 459.591C163.791 462.11 166.465 468.191 166.925 470.711C167.825 475.796 168.618 480.747 172.038 484.768C173.966 487.035 178.622 486.268 181.107 485.735C187.789 484.289 210.355 482.536 229.407 460.674C239.539 449.048 242.329 442.208 240.897 425.731C239.61 410.751 230.83 397.976 213.884 395.428C191.292 392.024 173.362 392.656 168.474 385.492C159.702 372.609 180.881 367.911 189.987 368.598C190.78 368.662 199.684 369.247 200.007 368.598C202.431 363.394 203.799 354.016 206.024 349.237C207.589 345.867 195.334 346.419 193.417 346.436C180.603 346.536 167.232 345.948 154.399 356.338Z" fill="#E7547E"/>
<path fill-rule="evenodd" clip-rule="evenodd" d="M238.106 329.21C244.086 301.666 269.289 299.397 277.683 304.754C284.325 309.098 290.685 313.859 296.727 319.01C311.893 332.103 313.86 351.497 315.738 370.014C315.93 371.891 316.119 373.759 316.32 375.61C318.248 393.309 316.743 413.996 297.835 421.999C267.453 434.892 250.029 399.333 242.573 375.981C240.721 370.392 239.377 364.646 238.557 358.814C237.783 352.988 237.349 346.927 237.026 341.062C237.183 337.097 237.545 333.141 238.106 329.21ZM264.712 347.423C263.464 339.608 261.503 327.341 269.993 331.992C275.825 335 280.619 339.7 283.75 345.481C290.297 356.674 302.201 392.342 287.595 396.244C274.807 399.659 269.826 374.773 267.4 362.65C267.231 361.802 267.06 360.955 266.886 360.108C266.542 358.472 265.255 350.964 264.984 349.159C264.901 348.612 264.81 348.031 264.712 347.423Z" fill="white"/>
<path fill-rule="evenodd" clip-rule="evenodd" d="M353.15 314.649C366.035 288.56 396.138 297.015 404.044 309.429C408.385 316.263 409.672 323.998 410.971 331.808L411.238 333.405C412.474 340.959 412.722 348.642 411.978 356.261C411.638 360.068 410.872 363.783 410.103 367.497C409.56 370.121 409.019 372.746 408.627 375.404C405.557 396.382 400.911 425.87 374.715 427.153C355.266 428.11 339.868 414.558 337.94 395.325C335.024 366.479 340.427 340.478 353.15 314.649ZM366.305 345.529C367.647 327.36 382.027 318.725 386.114 326.187C393.381 339.439 392.354 357.381 390.229 371.737C389.194 378.83 384.619 387.863 376.966 388.766C359.683 390.715 362.924 369.213 365.179 354.254C365.685 350.906 366.141 347.885 366.305 345.529Z" fill="white"/>
<path d="M418.253 436.923C419.036 437.737 417.866 437.547 418.253 436.923C417.704 436.364 424.682 406.433 426.691 396.533C430.103 379.746 433.137 365.111 436.217 348.254C437.325 342.228 438.918 322.787 443.367 318.26C444.898 316.697 456.406 318.26 458.432 318.26C475.821 318.26 472.606 327.05 477.809 341.965C482.043 354.117 491.317 394.978 494.487 398.185C495.135 398.854 520.843 328.729 520.843 328.729C520.843 328.729 529.352 332.344 533.764 333.699C537.483 334.837 547.361 336.21 549.36 340.312C551.629 344.955 515.306 421.619 507.742 434.05C505.221 438.187 496.53 461.352 492.333 459.915C488.976 458.777 486.03 458.037 482.644 457.159C463.34 452.219 470.274 439.805 467.579 421.927C466.841 416.994 466.526 411.898 465.428 407.039C463.898 400.263 462.463 393.466 461.124 386.649C461.008 386.035 458.495 374.462 457.901 375.066C454.578 378.473 453.704 387.714 452.498 392.159C449.381 403.903 446.618 415.711 443.348 427.392C442.376 430.888 441.646 439.607 439.585 441.721C438.116 443.257 418.253 437.655 418.253 436.923Z" fill="#E7547E"/>
</svg>
