<svg width="602" height="612" viewBox="0 0 602 612" fill="none" xmlns="http://www.w3.org/2000/svg">
<path d="M250.371 291.869C133.295 227.762 135.594 291.374 160.132 321.668C191.586 360.162 240.162 392.305 284.12 411.558C300.091 418.413 314.581 426.956 331.708 430.971C351.134 435.494 385.551 444.533 401.022 424.949C413.375 409.214 394.767 392.807 385.876 381.925C377.971 372.219 365.624 370.04 356.239 362.513C331.87 342.592 275.559 311.123 250.365 291.869H250.371Z" fill="#2953A7"/>
<path d="M166.76 251.025C158.958 258.203 147.544 268.711 148.278 275.468L149.019 275.878C156.881 260.088 185.037 256.092 250.366 291.87C262.02 300.78 280.339 312.298 299.067 324.085C320.83 337.77 343.146 351.809 356.239 362.513C360.104 365.616 364.475 367.807 368.833 369.997C375.046 373.119 381.234 376.222 385.876 381.931C387.104 383.431 388.512 385.034 390.005 386.73C397.795 395.591 407.716 406.883 404.514 418.284C436.606 379.153 453.113 324.128 402.672 284.171C388.675 272.953 467.874 187.254 473.31 189.262C480.354 191.789 487.234 197.585 494.019 203.295C500.695 208.925 507.275 214.47 513.813 216.71C524.185 220.229 543.612 189.427 537.688 177.377C531.265 164.157 382.751 48.4894 363.481 55.0133C357.666 56.9472 353.91 65.3133 350.719 72.4002C349.479 75.1542 348.335 77.7063 347.185 79.6218C346.863 80.1169 346.522 80.5988 346.162 81.0661C344.157 83.7834 340.431 88.8263 342.574 91.005C343.73 92.1801 347.534 95.2645 352.2 99.0467C360.833 106.054 372.403 115.436 375.503 119.457C377.484 122.009 366.251 132.719 358.912 139.72C357.088 141.458 355.511 142.964 354.427 144.065C342.905 155.614 323.141 173.864 307.501 187.585C303.287 191.22 300.494 194.604 297.809 197.86C294.318 202.095 291.001 206.116 284.944 210.186C278.407 214.653 265.729 213.448 253.941 212.328C246.717 211.642 239.831 210.994 234.888 211.691C210.357 215.204 189.281 226.086 172.816 245.168C171.612 246.563 169.391 248.601 166.76 251.025Z" fill="#FBC604"/>
<path d="M250.371 291.869C133.295 227.762 135.594 291.374 160.132 321.668C191.586 360.162 240.162 392.305 284.12 411.558C300.091 418.413 314.581 426.956 331.708 430.971C351.134 435.494 385.551 444.533 401.022 424.949C413.375 409.214 394.767 392.807 385.876 381.925C377.971 372.219 365.624 370.04 356.239 362.513C331.87 342.592 275.559 311.123 250.365 291.869H250.371Z" stroke="#292524" stroke-width="0.612512" stroke-miterlimit="2.854" stroke-linecap="round" stroke-linejoin="round"/>
<path d="M166.76 251.025C158.958 258.203 147.544 268.711 148.278 275.468L149.019 275.878C156.881 260.088 185.037 256.092 250.366 291.87C262.02 300.78 280.339 312.298 299.067 324.085C320.83 337.77 343.146 351.809 356.239 362.513C360.104 365.616 364.475 367.807 368.833 369.997C375.046 373.119 381.234 376.222 385.876 381.931C387.104 383.431 388.512 385.034 390.005 386.73C397.795 395.591 407.716 406.883 404.514 418.284C436.606 379.153 453.113 324.128 402.672 284.171C388.675 272.953 467.874 187.254 473.31 189.262C480.354 191.789 487.234 197.585 494.019 203.295C500.695 208.925 507.275 214.47 513.813 216.71C524.185 220.229 543.612 189.427 537.688 177.377C531.265 164.157 382.751 48.4894 363.481 55.0133C357.666 56.9472 353.91 65.3133 350.719 72.4002C349.479 75.1542 348.335 77.7063 347.185 79.6218C346.863 80.1169 346.522 80.5988 346.162 81.0661C344.157 83.7834 340.431 88.8263 342.574 91.005C343.73 92.1801 347.534 95.2645 352.2 99.0467C360.833 106.054 372.403 115.436 375.503 119.457C377.484 122.009 366.251 132.719 358.912 139.72C357.088 141.458 355.511 142.964 354.427 144.065C342.905 155.614 323.141 173.864 307.501 187.585C303.287 191.22 300.494 194.604 297.809 197.86C294.318 202.095 291.001 206.116 284.944 210.186C278.407 214.653 265.729 213.448 253.941 212.328C246.717 211.642 239.831 210.994 234.888 211.691C210.357 215.204 189.281 226.086 172.816 245.168C171.612 246.563 169.391 248.601 166.76 251.025Z" stroke="#292524" stroke-width="0.612512" stroke-miterlimit="2.854" stroke-linecap="round" stroke-linejoin="round"/>
<path d="M279.929 373.321C279.929 354.697 256.602 338.131 239.258 349.557C193.344 402.905 159.048 457.189 123.747 517.844C118.056 527.625 112.942 537.741 108.432 548.138C97.1141 559.65 104.38 569.662 117.389 558.451C130.393 547.233 154.611 522.043 166.302 509.491C197.281 475.953 279.929 384.031 279.929 373.321Z" fill="#FB8CAC"/>
<path d="M279.929 373.321C279.929 354.697 256.602 338.131 239.258 349.557C193.344 402.905 159.048 457.189 123.747 517.844C118.056 527.625 112.942 537.741 108.432 548.138C97.1141 559.65 104.38 569.662 117.389 558.451C130.393 547.233 154.611 522.043 166.302 509.491C197.281 475.953 279.929 384.031 279.929 373.321Z" fill="#FB8CAC" stroke="#292524" stroke-width="0.612512" stroke-miterlimit="2.854" stroke-linecap="round" stroke-linejoin="round"/>
</svg>
