<svg width="608" height="612" viewBox="0 0 608 612" fill="none" xmlns="http://www.w3.org/2000/svg">
<path d="M70.9515 212.76C146.69 191.705 140.853 155.823 145.681 140.319C152.507 148.532 172.084 161.221 176.837 162.71C192.72 167.521 215.953 158.771 227.157 148.53C233.814 142.451 237.454 134.632 240.701 126.723C241.362 125.105 241.771 116.8 243.279 116.104C245.081 115.284 248.718 122.047 249.085 122.592C254.549 130.599 263.621 141.662 272.313 146.766C287.859 155.915 329.712 164.689 347.067 162.71C375.535 159.461 417.53 134.246 431.619 107.855C447.387 140.317 457.4 148.757 482.347 159.393C497.532 165.848 527.947 173.163 556.125 176.829C539.979 190.503 518.32 195.603 515.464 251.116C515.464 280.263 544.48 294.498 562.556 307.711C564.726 309.299 590.149 325.674 589.648 326.584C573.04 332.283 553.687 338.499 545.141 357.235C534.533 380.505 539.979 408.898 539.979 433.29C539.979 442.953 539.979 453.335 543.205 466.899C532.62 466.899 514.7 456.166 503.862 453.335C481.933 447.619 452.881 452.804 431.583 458.643C416.281 462.835 396.844 469.6 384.489 479.28C382.313 480.937 380.542 483.074 379.313 485.527C378.083 487.979 377.427 490.682 377.396 493.429V500.502C377.396 500.502 373.089 496.026 370.302 494.608C363.914 491.34 357.281 488.578 350.946 485.173C335.154 476.685 316.693 472.195 298.69 469.253C268.075 464.253 238.324 470.265 208.382 475.74C196.763 477.862 184.933 477.96 173.547 481.042C171.014 481.732 155.547 493.429 143.869 504.041C148.309 470.587 136.488 446.874 128.365 436.829C109.553 413.565 93.8386 399.299 63.3332 390.933C55.9521 388.83 33.9769 386.664 28.8799 384.358C37.0332 379.415 32.9474 381.925 41.9235 373.722L41.958 373.689C56.7932 360.131 69.9908 348.069 70.9515 327.738C71.754 310.845 70.9515 271.083 35.4726 222.778C36.2569 221.354 43.0807 220.657 44.5075 220.422C53.5667 218.925 62.1253 215.226 70.9515 212.76Z" fill="#2953A7"/>
<path d="M470.357 189.995C438.266 185.405 378.506 185.966 354.322 210.091C341.041 223.329 334.444 247.548 347.498 263.825C355.313 273.568 399.312 299.415 410.045 308.342C422.148 318.399 434.412 332.869 432.097 348.136C428.788 370.154 400.856 380.148 379.343 363.877C368.839 355.941 372.919 348.038 374.027 337.316C375.46 323.479 344.766 323.497 343.797 334.158C343.258 340.176 340.123 354.776 340.123 359.931C340.123 374.026 341.078 385.415 349.446 398.159C356.085 408.271 375.963 415.336 387.987 418.667C396.304 420.972 408.855 422.908 417.303 421.256C428.587 419.049 438.797 416.244 448.213 409.948C459.196 402.61 465.104 397.447 470.357 388.077C481.333 368.495 484.162 335.096 468.891 311.006C445.615 274.239 395.486 263.88 390.719 249.965C380.117 219.008 451.492 225.12 470.263 228.058C487.845 230.838 491.402 193.004 470.357 189.995Z" fill="#FBC604"/>
<path d="M231.603 231.265C230.04 234.127 231.463 240.883 231.291 243.949C230.776 253.364 230.679 262.766 230.679 272.199C230.679 282.719 231.076 293.128 231.621 303.646C232.381 318.128 239.793 397.759 244.099 399.073C247.407 400.079 301.304 405.448 304.214 405.744C315.602 406.896 317.114 359.454 313.999 355.001C311.664 351.665 269.471 355.001 269.471 355.001C265.758 351.606 262.218 327.014 262.218 322.085C262.218 318.054 303.081 324.24 304.214 322.085C306.697 317.567 305.809 290.168 304.214 285.79C291.734 279.003 273.178 286.279 260.325 289.531V285.79C260.325 282.985 260.637 280.241 260.637 277.428C260.637 270.683 260.957 263.994 260.957 257.254C260.957 256.465 260.282 251.809 260.957 251.199C261.863 250.373 268.057 250.016 269.471 249.757C279.627 247.907 290.388 248.986 300.71 248.321C302.4 248.209 310.475 246.538 318.022 243.949C323.759 236.624 321.733 216.018 315.221 212.639C301.746 211.893 263.602 216.795 252.129 221.203C248.568 222.55 233.51 227.784 231.603 231.265Z" fill="#FBC604"/>
<path d="M87.9872 250.016C88.1028 258.178 134.491 326.182 134.258 326.2C134.258 345.113 137.596 395.67 139.943 399.652C140.837 401.176 148.305 400.103 149.744 400.085C157.879 399.973 165.742 400.35 173.76 398.942C175.47 398.641 178.92 398.555 180.419 397.637C181.179 397.168 180.328 393.369 180.292 392.888C179.862 387.839 178.796 382.955 178.208 377.924C176.5 363.367 168.353 324.466 168.88 322.21C170.454 315.429 176.046 301.296 179.337 295.308C185.235 284.58 213.166 240.434 213.541 238.584C215.377 229.675 186.092 221.048 180.8 231.112C180.083 232.474 151.764 280.918 148.824 286.806C148.408 287.638 146.988 291.973 146.013 292.04C145.77 292.04 143.502 288.119 143.216 287.762C138.755 282.214 135.863 276.318 132.507 270.055C130.748 266.781 128.519 263.821 126.565 260.681C123.061 255.065 119.492 249.264 116.243 244.349C111.703 237.542 87.8697 241.889 87.9872 250.016Z" fill="#FBC604"/>
<path d="M70.9515 212.76C146.69 191.705 140.853 155.823 145.681 140.319C152.507 148.532 172.084 161.221 176.837 162.71C192.72 167.521 215.953 158.771 227.157 148.53C233.814 142.451 237.454 134.632 240.701 126.723C241.362 125.105 241.771 116.8 243.279 116.104C245.081 115.284 248.718 122.047 249.085 122.592C254.549 130.599 263.621 141.662 272.313 146.766C287.859 155.915 329.712 164.689 347.067 162.71C375.535 159.461 417.53 134.246 431.619 107.855C447.387 140.317 457.4 148.757 482.347 159.393C497.532 165.848 527.947 173.163 556.125 176.829C539.979 190.503 518.32 195.603 515.464 251.116C515.464 280.263 544.48 294.498 562.556 307.711C564.726 309.299 590.149 325.674 589.648 326.584C573.04 332.283 553.687 338.499 545.141 357.235C534.533 380.505 539.979 408.898 539.979 433.29C539.979 442.953 539.979 453.335 543.205 466.899C527.947 458.643 514.7 456.166 503.862 453.335C481.933 447.619 452.881 452.804 431.583 458.643C416.281 462.835 396.844 469.6 384.489 479.28C377.428 484.653 377.396 492.413 377.396 500.502C370.132 492.952 359.982 490.03 350.946 485.173C335.154 476.685 316.693 472.195 298.69 469.253C268.075 464.253 238.324 470.265 208.382 475.74C196.763 477.862 184.933 477.96 173.547 481.042C171.014 481.732 155.547 493.429 143.869 504.041C148.309 470.587 136.488 446.874 128.365 436.829C109.553 413.565 93.8386 399.299 63.3332 390.933C55.9521 388.83 33.9769 386.664 28.8799 384.358C37.0332 379.415 32.9474 381.925 41.9235 373.722L41.958 373.689C56.7932 360.131 69.9908 348.069 70.9515 327.738C71.754 310.845 70.9515 271.083 35.4726 222.778C36.2569 221.354 43.0807 220.657 44.5075 220.422C53.5667 218.925 62.1253 215.226 70.9515 212.76Z" stroke="#292524" stroke-width="0.612512" stroke-linecap="round" stroke-linejoin="round"/>
<path d="M470.357 189.995C438.266 185.405 378.506 185.966 354.322 210.091C341.041 223.329 334.444 247.548 347.498 263.825C355.313 273.568 399.312 299.415 410.045 308.342C422.148 318.399 434.412 332.869 432.097 348.136C428.788 370.154 400.856 380.148 379.343 363.877C368.839 355.941 372.919 348.038 374.027 337.316C375.46 323.479 344.766 323.497 343.797 334.158C343.258 340.176 340.123 354.776 340.123 359.931C340.123 374.026 341.078 385.415 349.446 398.159C356.085 408.271 375.963 415.336 387.987 418.667C396.304 420.972 408.855 422.908 417.303 421.256C428.587 419.049 438.797 416.244 448.213 409.948C459.196 402.61 465.104 397.447 470.357 388.077C481.333 368.495 484.162 335.096 468.891 311.006C445.615 274.239 395.486 263.88 390.719 249.965C380.117 219.008 451.492 225.12 470.263 228.058C487.845 230.838 491.402 193.004 470.357 189.995Z" stroke="#292524" stroke-width="0.612512" stroke-linecap="round" stroke-linejoin="round"/>
<path d="M231.603 231.265C230.04 234.127 231.463 240.883 231.291 243.949C230.776 253.364 230.679 262.766 230.679 272.199C230.679 282.719 231.076 293.128 231.621 303.646C232.381 318.128 239.793 397.759 244.099 399.073C247.407 400.079 301.304 405.448 304.214 405.744C315.602 406.896 317.114 359.454 313.999 355.001C311.664 351.665 269.471 355.001 269.471 355.001C265.758 351.606 262.218 327.014 262.218 322.085C262.218 318.054 303.081 324.24 304.214 322.085C306.697 317.567 305.809 290.168 304.214 285.79C291.734 279.003 273.178 286.279 260.325 289.531V285.79C260.325 282.985 260.637 280.241 260.637 277.428C260.637 270.683 260.957 263.994 260.957 257.254C260.957 256.465 260.282 251.809 260.957 251.199C261.863 250.373 268.057 250.016 269.471 249.757C279.627 247.907 290.388 248.986 300.71 248.321C302.4 248.209 310.475 246.538 318.022 243.949C323.759 236.624 321.733 216.018 315.221 212.639C301.746 211.893 263.602 216.795 252.129 221.203C248.568 222.55 233.51 227.784 231.603 231.265Z" stroke="#292524" stroke-width="0.612512" stroke-linecap="round" stroke-linejoin="round"/>
<path d="M87.9872 250.016C88.1028 258.178 134.491 326.182 134.258 326.2C134.258 345.113 137.596 395.67 139.943 399.652C140.837 401.176 148.305 400.103 149.744 400.085C157.879 399.973 165.742 400.35 173.76 398.942C175.47 398.641 178.92 398.555 180.419 397.637C181.179 397.168 180.328 393.369 180.292 392.888C179.862 387.839 178.796 382.955 178.208 377.924C176.5 363.367 168.353 324.466 168.88 322.21C170.454 315.429 176.046 301.296 179.337 295.308C185.235 284.58 213.166 240.434 213.541 238.584C215.377 229.675 186.092 221.048 180.8 231.112C180.083 232.474 151.764 280.918 148.824 286.806C148.408 287.638 146.988 291.973 146.013 292.04C145.77 292.04 143.502 288.119 143.216 287.762C138.755 282.214 135.863 276.318 132.507 270.055C130.748 266.781 128.519 263.821 126.565 260.681C123.061 255.065 119.492 249.264 116.243 244.349C111.703 237.542 87.8697 241.889 87.9872 250.016Z" stroke="#292524" stroke-width="0.612512" stroke-linecap="round" stroke-linejoin="round"/>
</svg>
