<svg width="610" height="613" viewBox="0 0 610 613" fill="none" xmlns="http://www.w3.org/2000/svg">
<path d="M550.025 384.308C550.025 384.045 555.186 396.961 556.796 400.865C561.454 411.693 565.323 422.846 568.374 434.237C569.399 438.35 560.694 441.47 557.779 443.236C548.702 448.857 536.166 458.604 525.107 458.604" stroke="#292524" stroke-width="2.45005" stroke-linecap="round" stroke-linejoin="round"/>
<path d="M504.867 402.054C502.122 401.613 541.912 427.88 555.644 427.88" stroke="#292524" stroke-width="2.45005" stroke-linecap="round" stroke-linejoin="round"/>
<path d="M432.039 530.306C425.61 532.739 404.205 507.999 399.502 504.413C381.33 490.553 364.958 477.931 348.286 461.993C338.075 452.271 327.711 442.72 317.518 432.974C250.247 368.67 177.553 291.309 173.985 193.021C172.539 153.605 173.405 113.558 217.27 97.0189C269.834 77.2129 331.383 136.754 353.971 176.261C362.89 191.85 367.33 209.774 373.4 226.491C376.157 234.141 376.737 233.025 380.232 239.891C381.367 242.11 383.648 249.086 383.648 246.585C383.648 195.89 416.423 140.628 461.124 115.991C505.825 91.3548 556.18 110.56 570.485 157.289C598.087 247.437 540.882 330.247 502.134 406.192C488.836 432.232 474.44 457.291 463.399 484.288C461.087 489.768 432.039 537.974 432.039 530.306Z" fill="#D55816"/>
<path d="M146.876 177.562C175.961 200.525 207.986 219.074 237.095 242.356C274.562 272.325 377.957 323.566 394.573 334.269" stroke="#292524" stroke-width="2.45005" stroke-linecap="round" stroke-linejoin="round"/>
<path d="M152.214 175.753C131.016 198.275 73.1941 182.3 54.0157 162.831C47.1593 155.892 36.7222 142.296 38.9304 131.488C42.2854 115.054 67.7895 126.161 77.6959 127.939C82.5393 128.791 90.8719 134.652 90.8719 134.652L85.3453 122.864C81.3193 114.306 78.1595 99.3856 81.4413 90.1722C85.449 78.9543 103.731 83.3924 111.185 88.6642C128.106 100.642 136.177 125.168 141.508 144.092C142.423 147.126 151.116 177.132 152.214 175.753Z" fill="#D55816"/>
</svg>
