<svg width="611" height="612" viewBox="0 0 611 612" fill="none" xmlns="http://www.w3.org/2000/svg">
<path d="M267.239 314.629C266.286 305.467 296.487 304.837 305.39 305.467C331.785 307.364 366.441 311.783 386.152 331.361C414.447 359.47 402.685 419.47 396.007 453.259C392.512 470.627 389.329 489.575 371.524 498.424C349.907 509.159 338.139 491.79 327.331 476.943C305.714 446.943 292.357 402.732 285.05 376.838C279.318 356.312 269.469 334.519 267.239 314.629Z" fill="#F5AC5F"/>
<path fill-rule="evenodd" clip-rule="evenodd" d="M276.563 350.675C260.964 348.962 249.954 347.517 247.895 347.003C236.518 344.09 225.044 342.015 213.52 339.935C205.07 338.405 196.595 336.875 188.121 335.002C181.919 333.582 175.718 332.872 169.516 332.162C163.32 331.452 157.119 330.742 150.917 329.316C145.406 327.995 139.785 327.358 134.176 326.709C130.406 326.281 126.648 325.853 122.939 325.216L119.579 324.604C84.2264 318.221 23.218 307.199 36.4523 258.263C38.0409 252.266 50.1204 219.738 73.65 194.156C130.565 125 258.697 109.211 332.775 160.68C355.034 176.163 375.38 194.475 394.462 213.74C403.682 222.896 421.162 234.897 434.836 237.106C455.531 240.534 468.173 216.868 477.215 199.927C478.181 198.122 479.103 196.396 479.989 194.787C480.753 193.459 481.492 191.812 482.268 190.074C484.071 186.041 486.099 181.525 489.209 179.315C493.657 176.157 505.108 178.685 509.556 179.946C521.641 183.422 534.992 185.319 547.395 186.898C549.387 187.192 552.35 187.241 555.607 187.296C562.731 187.412 571.261 187.553 574.102 190.368C576.595 192.847 576.43 224.567 576.35 240.84C576.338 243.245 576.326 245.307 576.326 246.898C576.326 271.525 572.831 298.056 565.199 321.422C564.515 323.343 563.996 326.354 563.434 329.61C562.425 335.443 561.289 342.046 558.839 344.482C551.159 352.107 537.491 354.825 525.319 357.242C522.387 357.823 519.527 358.393 516.869 359.005C500.947 363.013 469.7 361.667 438.68 360.333C425.69 359.77 412.743 359.213 400.969 359.047C398.244 348.325 393.576 338.741 386.146 331.361C366.435 311.783 331.773 307.364 305.384 305.473C296.482 304.836 266.28 305.473 267.233 314.628C268.528 326.208 272.408 338.435 276.557 350.675H276.563Z" fill="#1E9A64"/>
<path d="M37.2832 253.783C46.1794 255.772 55.9431 257.914 59.9269 258.594C61.9309 258.918 65.7436 259.762 76.375 261.629C95.2671 264.94 111.446 267.596 123.116 250.215C143.664 219.615 141.954 200.827 138.007 181.072C135.807 170.974 128.707 161.622 119.677 156.959C101.444 166.885 85.3506 179.584 72.7517 194.903C53.2364 216.109 41.5908 242.1 37.2832 253.777V253.783Z" fill="#F5AC5F"/>
<path d="M188.096 218.257C185.402 226.439 182.377 244.499 182.377 247.633" stroke="#292524" stroke-width="0.612512" stroke-miterlimit="1.585" stroke-linecap="round" stroke-linejoin="round"/>
<path d="M250.95 226.782C246.649 227.639 243.312 253.177 243.312 256.464" stroke="#292524" stroke-width="0.612512" stroke-miterlimit="1.585" stroke-linecap="round" stroke-linejoin="round"/>
<path d="M309.704 242.033C308.115 247.082 305.885 255.295 305.885 260.663" stroke="#292524" stroke-width="0.612512" stroke-miterlimit="1.585" stroke-linecap="round" stroke-linejoin="round"/>
<path d="M421.443 273.196C419.855 278.251 417.631 286.458 417.631 291.832" stroke="#292524" stroke-width="0.612512" stroke-miterlimit="1.585" stroke-linecap="round" stroke-linejoin="round"/>
<path d="M362.592 259.022C361.321 264.708 360.368 271.336 360.368 277.34" stroke="#292524" stroke-width="0.612512" stroke-miterlimit="1.585" stroke-linecap="round" stroke-linejoin="round"/>
</svg>
