<svg width="610" height="613" viewBox="0 0 610 613" fill="none" xmlns="http://www.w3.org/2000/svg">
<path d="M174.522 32.1694C152.043 35.2344 84.0585 38.2994 106.744 38.2994C106.744 38.2994 88.5603 67.3433 85.2236 77.1268C73.8959 110.315 64.325 147.438 61.6715 182.354C56.0656 256.086 57.9444 217.062 57.9444 338.669C76.5616 338.669 94.8006 338.173 113.009 333.9C176.693 318.974 242 307.13 304.994 288.949C342.259 278.191 380.47 271.944 415.978 256.086C445.142 243.06 471.396 226.349 498.669 210.111C511.986 202.179 524.594 199.543 524.594 182.354C524.594 172.583 503.934 169.04 496.126 164.645C473.043 151.649 442.83 139.45 416.149 139.45C412.202 139.45 371.039 144.71 369.551 140.983C367.001 134.571 477.612 76.0969 484.267 57.3698C486.28 51.7118 487.079 37.4166 480.028 35.2405C468.767 31.7525 456.897 32.531 445.294 31.9977C425.744 31.1089 406.468 26.5788 387.003 24.6785C316.731 17.8129 244.238 22.6617 174.522 32.1694Z" fill="#1E9A64"/>
<path d="M51.8506 547.09C51.8506 425.483 52.4606 303.692 61.6777 182.355C64.3312 147.432 73.9082 110.315 85.2298 77.1212C88.5665 67.3438 94.5994 45.9378 103.701 41.3649" stroke="#292524" stroke-width="0.612512" stroke-linecap="round" stroke-linejoin="round"/>
</svg>
