<svg width="607" height="612" viewBox="0 0 607 612" fill="none" xmlns="http://www.w3.org/2000/svg">
<path d="M69.8437 254.509C64.7368 253.189 48.5805 254.848 40.9383 259.022C27.1392 266.574 20.3287 285.619 19.1106 301.184C18.0787 313.896 18.2143 329.19 22.5139 341.26C28.9218 359.4 47.2714 379.421 66.0965 383.568C73.6152 385.228 80.274 384.533 87.738 383.568C104.556 381.407 113.426 366.764 119.466 351.848C123.561 341.748 116.241 323.245 112.425 319.948C107.844 315.983 97.4237 321.756 90.2106 329.173C89.557 329.851 91.5986 333.282 91.7604 333.943C92.6568 337.727 94.2087 342.913 92.3796 346.672C89.5206 352.552 80.5431 358.18 74.1352 356.528C63.889 353.894 53.5255 335.703 49.4404 326.309C44.9182 316.076 42.0087 293.694 47.9006 284.616C49.6913 281.77 57.1655 276.484 61.0988 277.488C65.0322 278.492 68.2675 285.799 69.8437 289.069C70.5862 290.587 70.4001 294.391 72.9353 293.524C75.7134 292.565 89.1524 285.901 90.2106 282.559C87.738 272.104 79.0721 256.876 69.8437 254.509Z" fill="#8EB3FD"/>
<path fill-rule="evenodd" clip-rule="evenodd" d="M100.39 258.88C92.9157 214.225 128.112 211.632 131.922 212.119C136.948 212.762 142.951 217.721 146.445 221.318C156.942 232.156 164.064 246.298 171.959 258.984C183.241 277.106 197.565 300.119 180.457 317.702L180.212 317.959C177.946 320.296 175.777 322.534 172.726 323.746C154.894 330.829 138.505 327.359 126.052 312.002C113.817 296.951 103.593 278.036 100.39 258.88ZM125.497 255.051C124.583 241.563 133.257 238.04 138.722 246.469C145.389 256.74 151.643 266.687 156.345 278.287C158.221 282.932 158.767 291.153 152.942 293.556C138.451 299.505 125.874 260.592 125.497 255.051Z" fill="#8EB3FD"/>
<path d="M216.683 288.323C216.539 289.469 210.941 282.731 209.82 281.466C204.255 275.142 199.865 267.841 194.361 261.419C184.089 249.357 151.875 208.073 153.597 199.354C153.992 197.357 161.112 185.623 162.105 183.995C166.99 175.964 205.473 203.491 205.473 203.491C205.473 203.491 205.008 200.782 204.856 199.354C204.533 196.364 202.167 179.687 200.842 174.23C200.276 171.924 198.798 168.13 199.606 165.639C203.134 154.733 217.652 151.889 226.19 146.865C228.699 145.392 235.437 141.128 238.555 142.736C243.583 145.321 245.473 158.267 247.516 163.091C253.188 176.443 256.637 190.311 261.109 204.124C262.877 209.568 278.971 245.334 274.997 249.295C272.929 251.427 258.021 255.207 255.804 254.065C250.134 246.86 242.745 219.974 239.415 211.768C238.865 210.403 234.494 197.131 233.887 197.131C232.442 197.131 231.368 221.745 231.109 223.53C230.976 224.669 231.307 229.365 230.492 230.215C227.908 232.863 210.566 228.781 207.303 228.3C206.333 228.163 201.451 225.733 200.814 226.392C199.543 227.694 205.662 235.111 206.38 235.933C208.672 238.587 236.24 267.457 234.201 272.521C233.547 274.004 215.993 289.045 216.683 288.323Z" fill="#8EB3FD"/>
<path d="M269.99 126.663C268.703 130.495 263.851 154.389 267.068 157.769C267.839 158.555 272.91 159.042 273.816 159.042C280.841 159.042 287.838 157.769 294.836 157.769C296.7 157.769 302.713 156.586 303.187 159.042C305.983 173.498 303.842 215.579 302.29 218.841C300.803 221.903 290.642 216.13 288.69 218.208C287.793 219.112 288.384 222.815 288.384 223.927C288.384 229.808 287.004 237.668 288.384 243.341C289.28 247.136 294.047 247.858 297.04 249.059C305.05 252.15 314.262 253.07 322.694 254.145C325.383 254.498 332.667 254.635 334.136 251.607C337.183 245.338 336.825 237.289 337.533 230.295C337.721 228.398 339.53 222.49 338.15 221.062C335.578 218.425 327.623 221.966 325.48 219.798C324.316 218.606 330.947 168.42 335.238 162.882C337.074 160.505 354.268 170.348 357.944 166.56C359.836 164.614 363.079 135.907 361.026 133.793C355.443 128.057 335.042 127.469 327.641 126.621C310.177 124.703 286.844 126.663 269.99 126.663Z" fill="#8EB3FD"/>
<path d="M353.697 259.14C353.697 253.49 355.265 249.049 355.955 246.195C357.908 238.145 360.848 230.438 363.393 222.58C366.08 214.358 367.505 205.929 369.854 197.634C373.042 186.388 382.101 144.333 385.694 143.079C391.681 141.037 398.939 142.373 405.094 143.079C406.581 143.25 409.466 142.924 410.587 144.08C411.403 144.913 432.243 225.389 436.571 229.905C436.868 230.213 451.402 176.172 457.432 163.748C457.782 163.034 461.563 153.811 461.634 153.811C465.594 153.811 472.072 156.233 476.508 156.802C479.403 157.171 485.281 157.179 487.502 159.511C494.79 166.961 455.319 276.766 450.649 281.58C448.899 283.368 423.885 274.004 422.199 272.266C413.746 263.586 404.637 213.057 396.339 213.057C395.981 213.057 383.167 263.865 381.787 265.283C381.617 265.365 363.393 261.905 353.697 259.14Z" fill="#8EB3FD"/>
<path d="M590 198.699C588.537 191.27 583.396 181.721 571.183 177.32C556.519 172.169 540.437 173.012 526.381 179.668C501.435 191.829 495.191 217.559 487.915 242.537C484.071 255.709 482.618 276.552 490.997 289.037C499.814 302.172 534.966 314.161 557.993 306.528C576.523 300.383 578.216 282.631 580.861 270.634C581.962 265.665 581.407 250.515 561.469 246.134C559.598 245.728 545.618 240.434 543.899 242.213C542.824 243.314 542.009 247.633 541.633 249.196C541.147 251.201 538.622 256.631 539.696 258.845C540.269 260.02 559.794 263.208 555.824 272.476C550.709 284.32 530.358 282.244 520.879 275.277C513.012 269.504 510.208 258.112 510.71 248.284C511.131 240.081 514.868 233.902 517.986 226.601C520.422 220.864 527.188 207.918 530.69 205.272C538.881 199.091 546.444 192.551 556.856 200.438C563.236 205.272 557.297 213.326 560.008 218.959C561.407 221.831 570.904 222.924 573.585 223.62C576.057 224.253 580.422 225.156 582.957 224.279C589.48 221.984 591.036 203.965 590 198.699Z" fill="#8EB3FD"/>
<path d="M153.64 356.338C148.683 360.367 143.541 366.275 141.095 372.058C139.428 375.969 137.306 379.9 137.117 384.208C136.49 398.456 143.129 406.704 155.378 411.212C164.105 414.427 173.944 415.078 180.467 414.825C189.58 414.545 202.51 418.827 205.35 423.064C208.037 427.048 221.021 444.25 180.629 455.343C176.785 456.4 172.196 458.442 168.246 458.958C168.048 458.958 164.177 459.554 164.159 459.591C162.986 462.11 165.646 468.191 166.104 470.711C167 475.796 167.789 480.747 171.192 484.768C173.11 487.035 177.744 486.268 180.216 485.735C186.865 484.289 209.32 482.536 228.279 460.674C238.361 449.048 241.137 442.208 239.713 425.731C238.432 410.751 229.695 397.976 212.833 395.428C190.351 392.024 172.51 392.656 167.645 385.492C158.917 372.609 179.992 367.911 189.052 368.598C189.841 368.662 198.702 369.247 199.023 368.598C201.435 363.394 202.797 354.016 205.01 349.237C206.568 345.867 194.374 346.419 192.466 346.436C179.715 346.536 166.409 345.948 153.64 356.338Z" fill="#2953A7"/>
<path fill-rule="evenodd" clip-rule="evenodd" d="M236.935 329.21C242.885 301.666 267.965 299.397 276.317 304.754C282.926 309.098 289.256 313.859 295.267 319.01C310.359 332.103 312.316 351.497 314.186 370.014C314.376 371.891 314.564 373.759 314.764 375.61C316.682 393.309 315.185 413.996 296.37 421.999C266.138 434.892 248.8 399.333 241.38 375.981C239.537 370.392 238.199 364.646 237.384 358.814C236.613 352.988 236.182 346.927 235.86 341.062C236.016 337.097 236.376 333.141 236.935 329.21ZM263.41 347.423C262.168 339.608 260.217 327.341 268.665 331.992C274.468 335 279.239 339.7 282.355 345.481C288.87 356.674 300.714 392.342 286.181 396.244C273.456 399.659 268.499 374.773 266.085 362.65C265.917 361.802 265.746 360.955 265.573 360.108C265.231 358.472 263.95 350.964 263.681 349.159C263.598 348.612 263.507 348.031 263.41 347.423Z" fill="white"/>
<path fill-rule="evenodd" clip-rule="evenodd" d="M351.413 314.649C364.234 288.56 394.19 297.015 402.057 309.429C406.376 316.263 407.657 323.998 408.95 331.808L409.215 333.405C410.445 340.959 410.692 348.642 409.952 356.261C409.614 360.068 408.851 363.783 408.086 367.497C407.546 370.121 407.008 372.746 406.617 375.404C403.562 396.382 398.939 425.87 372.872 427.153C353.519 428.11 338.196 414.558 336.278 395.325C333.377 366.479 338.753 340.478 351.413 314.649ZM364.503 345.529C365.839 327.36 380.148 318.725 384.215 326.187C391.446 339.439 390.424 357.381 388.31 371.737C387.28 378.83 382.728 387.863 375.112 388.766C357.913 390.715 361.139 369.213 363.383 354.254C363.886 350.906 364.34 347.885 364.503 345.529Z" fill="white"/>
<path d="M416.196 436.923C416.975 437.737 415.812 437.547 416.196 436.923C415.65 436.364 422.594 406.433 424.593 396.533C427.988 379.746 431.007 365.111 434.072 348.254C435.175 342.228 436.759 322.787 441.186 318.26C442.71 316.697 454.162 318.26 456.177 318.26C473.481 318.26 470.282 327.05 475.459 341.965C479.672 354.117 488.901 394.978 492.055 398.185C492.7 398.854 518.281 328.729 518.281 328.729C518.281 328.729 526.749 332.344 531.14 333.699C534.84 334.837 544.67 336.21 546.659 340.312C548.917 344.955 512.772 421.619 505.245 434.05C502.736 438.187 494.088 461.352 489.912 459.915C486.572 458.777 483.64 458.037 480.271 457.159C461.061 452.219 467.961 439.805 465.28 421.927C464.546 416.994 464.232 411.898 463.139 407.039C461.616 400.263 460.189 393.466 458.856 386.649C458.741 386.035 456.24 374.462 455.649 375.066C452.343 378.473 451.473 387.714 450.273 392.159C447.171 403.903 444.422 415.711 441.168 427.392C440.201 430.888 439.474 439.607 437.423 441.721C435.962 443.257 416.196 437.655 416.196 436.923Z" fill="#2953A7"/>
</svg>
