<svg width="612" height="608" viewBox="0 0 612 608" fill="none" xmlns="http://www.w3.org/2000/svg">
<path d="M262.004 114.814C308.142 104.143 358.859 121.149 380.646 164.159C389.783 182.326 395.738 217.371 394.924 244.245C394.159 269.361 389.6 294.745 380.615 318.275C377.335 326.921 373.149 335.196 369.049 343.47C365.205 351.192 361.79 359.035 358.375 366.86C354.593 375.518 350.554 384.054 346.778 392.712C346.668 392.974 334.501 387.161 333.143 386.535C330.786 385.447 327.439 383.459 323.198 380.935C320.688 379.44 317.873 377.762 314.764 375.974C310.962 373.745 307.057 371.694 303.063 369.827C299.807 368.35 294.831 366.319 289.935 366.319C286.689 366.319 283.576 367.6 281.28 369.881C278.985 372.161 277.695 375.254 277.695 378.479C277.695 397.485 279.715 418.121 282.01 438.124C282.622 443.45 283.246 448.715 283.87 453.901C285.096 464.461 286.218 475.033 287.236 485.615C288.705 500.407 284.691 519.9 294.44 532.613C294.905 533.221 298.112 537.416 304.201 537.416C313.828 537.416 323.461 532.552 330.364 528.521C335.695 525.414 340.872 522.186 346.044 518.964C354.061 513.966 362.066 508.974 370.572 504.463L371.705 503.855C379.581 499.684 388.186 495.118 396.485 490.187C413.351 480.173 431.595 467.217 440.273 449.968C441.006 448.51 441.441 446.922 441.552 445.296C441.663 443.67 441.449 442.038 440.922 440.495C440.45 439.12 439.747 437.835 438.841 436.695C438.103 435.775 437.262 434.943 436.332 434.214C435.272 433.398 434.162 432.646 433.009 431.965C430.598 430.544 428.145 429.196 425.652 427.922C422.055 426.066 418.436 424.252 414.796 422.48L414.055 422.115C406.897 418.154 399.546 414.549 392.029 411.311C395.548 403.346 399.232 395.467 402.709 387.484C406.013 379.902 409.306 372.326 412.996 364.896L413.412 364.057C417.648 355.545 422.488 345.799 426.411 335.481C436.387 309.495 442.899 277.509 443.859 245.716C444.82 214.131 440.371 180.557 426.344 152.692C394.918 90.6154 320.174 51.4845 251.024 67.4081C224.353 73.3178 199.341 85.6602 179.298 104.229C176.948 106.405 171.109 111.822 166.238 118.103C163.765 121.283 160.62 125.849 158.514 131.278C156.507 136.428 154.029 146.132 158.82 156.51C164.451 168.719 172.835 169.753 185.13 164.159C193.294 160.444 199.684 146.247 205.785 138.319C218.417 121.903 243.209 119.058 262.004 114.814Z" fill="#2953A7"/>
</svg>
